{
copyright = "Copyright (c) 2024 by Vladimir Nikolic. All rights reserved.";
designer = "Vladimir Nikolic";
designerURL = "http://www.coroflot.com/vladimirnikolic";
familyName = Trackball;
customParameters = (
{
name = glyphOrder;
value = (
.notdef,
NULL,
uni000D,
space,
exclam,
quotedbl,
numbersign,
percent,
ampersand,
quotesingle,
asterisk,
plus,
comma,
hyphen,
period,
slash,
zero,
one,
two,
three,
four,
five,
six,
seven,
eight,
nine,
colon,
semicolon,
less,
equal,
question,
at,
A,
B,
C,
D,
E,
F,
G,
H,
I,
J,
K,
L,
M,
N,
O,
P,
Q,
R,
S,
T,
U,
V,
W,
X,
Y,
Z,
bracketleft,
backslash,
bracketright,
underscore,
grave,
a,
b,
c,
d,
e,
f,
g,
h,
i,
j,
k,
l,
m,
n,
o,
p,
q,
r,
s,
t,
u,
v,
w,
x,
y,
z,
braceleft,
bar,
asciitilde,
uni00A0,
exclamdown,
cent,
sterling,
currency,
yen,
section,
dieresis,
copyright,
ordfeminine,
uni00AD,
registered,
macron,
degree,
plusminus,
acute,
paragraph,
periodcentered,
cedilla,
ordmasculine,
guillemotright,
questiondown,
Acircumflex,
Aring,
AE,
Ecircumflex,
Icircumflex,
Idieresis,
Eth,
Ocircumflex,
multiply,
Thorn,
acircumflex,
aring,
ae,
ecircumflex,
icircumflex,
idieresis,
eth,
ocircumflex,
divide,
oslash,
ucircumflex,
Amacron,
amacron,
Aogonek,
aogonek,
Cacute,
cacute,
Ccircumflex,
ccircumflex,
Cdotaccent,
cdotaccent,
Ccaron,
ccaron,
Dcaron,
dcaron,
Dcroat,
dcroat,
Edotaccent,
edotaccent,
Eogonek,
eogonek,
Ecaron,
ecaron,
Gcircumflex,
gcircumflex,
Gdotaccent,
gdotaccent,
Hcircumflex,
hcircumflex,
Hbar,
hbar,
Iogonek,
iogonek,
Idotaccent,
IJ,
ij,
Jcircumflex,
jcircumflex,
uni0136,
uni0137,
Lacute,
lacute,
Lcaron,
lcaron,
Ldot,
ldot,
Lslash,
lslash,
Ncaron,
ncaron,
OE,
oe,
Rcaron,
rcaron,
Scircumflex,
scircumflex,
Scaron,
scaron,
Tcaron,
Tbar,
tbar,
Uogonek,
uogonek,
Wcircumflex,
wcircumflex,
Ycircumflex,
ycircumflex,
Zdotaccent,
zdotaccent,
Zcaron,
zcaron,
circumflex,
caron,
uni02C9,
breve,
dotaccent,
ring,
ogonek,
tilde,
hungarumlaut,
gravecomb,
acutecomb,
uni0302,
tildecomb,
uni0304,
uni0306,
uni0307,
uni0308,
uni030A,
uni030B,
uni030C,

glyphs = (
{
glyphname = exclam;
layers = (
{
layerId = "604F039F-C4E4-4D5F-9F8C-06B1752D997F";
paths = (
{
nodes = (
"260 676 LINE",
"260 488 LINE",
"248 488 OFFCURVE",
"228 487 OFFCURVE",
"213 481 OFFCURVE",
"204 465 OFFCURVE",
"204 450 QCURVE SMOOTH",
"204 244 LINE",
"16 244 LINE",
"16 507 LINE SMOOTH",
"16 542 OFFCURVE",
"43 603 OFFCURVE",
"89 649 OFFCURVE",
"150 676 OFFCURVE",
"185 676 QCURVE SMOOTH"
);
},
{
nodes = (
"204 188 LINE",
"204 0 LINE",
"16 0 LINE",
"16 188 LINE"
);
}
);
width = 273;
}
);
unicode = 0021;
},
{
glyphname = quotedbl;
layers = (
{
layerId = "604F039F-C4E4-4D5F-9F8C-06B1752D997F";
paths = (
{
nodes = (
"204 676 LINE",
"170 396 LINE",
"55 396 LINE",
"26 676 LINE"
);
},
{
nodes = (
"410 676 LINE",
"376 396 LINE",
"261 396 LINE",
"232 676 LINE"
);
}
);
width = 430;
}
);
unicode = 0022;
},
{
glyphname = numbersign;
layers = (
{
layerId = "604F039F-C4E4-4D5F-9F8C-06B1752D997F";
paths = (
{
nodes = (
"241 252 LINE",
"351 252 LINE",
"370 345 LINE",
"261 345 LINE"
);
},
{
nodes = (
"514 141 LINE",
"437 141 LINE",
"407 0 LINE",
"297 0 LINE",
"327 141 LINE",
"217 141 LINE",
"187 0 LINE",
"76 0 LINE",
"106 141 LINE",
"27 141 LINE",
"50 252 LINE",
"130 252 LINE",
"150 345 LINE",
"69 345 LINE",
"93 456 LINE",
"174 456 LINE",
"202 590 LINE",
"313 590 LINE",
"284 456 LINE",
"394 456 LINE",
"423 590 LINE",
"533 590 LINE",
"504 456 LINE",
"581 456 LINE",
"557 345 LINE",
"481 345 LINE",
"461 252 LINE",
"538 252 LINE"
);
}
);
width = 603;
}
);
unicode = 0023;
},
{
glyphname = percent;
layers = (
{
layerId = "604F039F-C4E4-4D5F-9F8C-06B1752D997F";
paths = (
{
nodes = (
"634 671 LINE",
"403 1 LINE",
"245 1 LINE",
"476 671 LINE"
);
},
{
nodes = (
"212 408 LINE",
"212 609 LINE",
"155 609 LINE",
"155 408 LINE"
);
},
{
nodes = (
"340 329 LINE",
"33 329 LINE",
"33 676 LINE",
"340 676 LINE"
);
},
{
nodes = (
"734 86 LINE",
"734 274 LINE",
"670 274 LINE",
"670 86 LINE"
);
},
{
nodes = (
"856 1 LINE",
"549 1 LINE",
"549 348 LINE",
"856 348 LINE"
);
}
);
width = 879;
}
);
unicode = 0025;
},
{
glyphname = ampersand;
layers = (
{
layerId = "604F039F-C4E4-4D5F-9F8C-06B1752D997F";
paths = (
{
nodes = (
"544 499 LINE",
"304 499 LINE SMOOTH",
"289 499 OFFCURVE",
"275 491 OFFCURVE",
"270 477 OFFCURVE",
"269 459 OFFCURVE",
"269 454 QCURVE",
"270 400 LINE",
"438 400 LINE",
"438 447 LINE",
"601 447 LINE",
"601 400 LINE",
"667 400 LINE",
"667 259 LINE",
"601 259 LINE",
"601 6 LINE",
"322 6 LINE SMOOTH",
"273 6 OFFCURVE",
"186 42 OFFCURVE",
"121 105 OFFCURVE",
"83 189 OFFCURVE",
"83 235 QCURVE",
"83 236 LINE",
"20 236 LINE",
"20 400 LINE",
"84 400 LINE",
"83 517 LINE",
"83 550 OFFCURVE",
"109 608 OFFCURVE",
"154 650 OFFCURVE",
"214 676 OFFCURVE",
"249 676 QCURVE SMOOTH",
"544 676 LINE"
);
},
{
nodes = (
"438 182 LINE",
"438 259 LINE",
"267 259 LINE",
"267 235 LINE SMOOTH",
"267 210 OFFCURVE",
"288 188 OFFCURVE",
"314 182 OFFCURVE",
"322 182 QCURVE SMOOTH",
"325 182 OFFCURVE",
"327 182 QCURVE"
);
}
);
width = 676;
}
);
unicode = 0026;
},
{
glyphname = quotesingle;
layers = (
{
layerId = "604F039F-C4E4-4D5F-9F8C-06B1752D997F";
paths = (
{
nodes = (
"204 676 LINE",
"170 388 LINE",
"55 388 LINE",
"26 676 LINE"
);
}
);
width = 233;
}
);
unicode = 0027;
},
{
glyphname = asterisk;
layers = (
{
layerId = "604F039F-C4E4-4D5F-9F8C-06B1752D997F";
paths = (
{
nodes = (
"297 488 LINE",
"248 426 LINE",
"193 486 LINE",
"201 390 LINE",
"123 390 LINE",
"134 478 LINE",
"79 421 LINE",
"27 481 LINE",
"97 527 LINE",
"25 577 LINE",
"77 639 LINE",
"131 579 LINE",
"121 675 LINE",
"201 675 LINE",
"191 587 LINE",
"245 644 LINE",
"297 584 LINE",
"224 535 LINE"
);
}
);
width = 330;
}
);
unicode = 002A;
},
{
glyphname = plus;
layers = (
{
layerId = "604F039F-C4E4-4D5F-9F8C-06B1752D997F";
paths = (
{
nodes = (
"153 556 LINE",
"307 556 LINE",
"307 421 LINE",
"443 421 LINE",
"443 267 LINE",
"307 267 LINE",
"307 128 LINE",
"153 128 LINE",
"153 267 LINE",
"15 267 LINE",
"15 421 LINE",
"153 421 LINE"
);
}
);
width = 458;
}
);
unicode = 002B;
},
{
glyphname = comma;
layers = (
{
layerId = "604F039F-C4E4-4D5F-9F8C-06B1752D997F";
paths = (
{
nodes = (
"247 188 LINE",
"142 -101 LINE",
"4 -102 LINE",
"49 188 LINE"
);
}
);
width = 261;
}
);
unicode = 002C;
},
{
glyphname = hyphen;
layers = (
{
layerId = "604F039F-C4E4-4D5F-9F8C-06B1752D997F";
paths = (
{
nodes = (
"443 421 LINE",
"443 267 LINE",
"15 267 LINE",
"15 421 LINE"
);
}
);
width = 456;
}
);
unicode = 002D;
},
{
glyphname = period;
layers = (
{
layerId = "604F039F-C4E4-4D5F-9F8C-06B1752D997F";
paths = (
{
nodes = (
"17 113 OFFCURVE",
"32 148 OFFCURVE",
"57 173 OFFCURVE",
"91 188 OFFCURVE",
"111 188 QCURVE SMOOTH",
"150 188 OFFCURVE",
"205 133 OFFCURVE",
"205 94 QCURVE SMOOTH",
"205 74 OFFCURVE",
"190 40 OFFCURVE",
"165 15 OFFCURVE",
"130 0 OFFCURVE",
"111 0 QCURVE SMOOTH",
"72 0 OFFCURVE",
"17 55 OFFCURVE",
"17 94 QCURVE SMOOTH"
);
}
);
width = 222;
}
);
unicode = 002E;
},
{
glyphname = slash;
layers = (
{
layerId = "604F039F-C4E4-4D5F-9F8C-06B1752D997F";
paths = (
{
nodes = (
"455 678 LINE",
"202 0 LINE",
"14 0 LINE",
"267 678 LINE"
);
}
);
width = 461;
}
);
unicode = 002F;
},
{
glyphname = zero;
layers = (
{
layerId = "604F039F-C4E4-4D5F-9F8C-06B1752D997F";
paths = (
{
nodes = (
"206 187 LINE",
"356 187 LINE",
"356 488 LINE",
"206 488 LINE"
);
},
{
nodes = (
"375 732 LINE",
"375 675 LINE",
"544 675 LINE",
"544 0 LINE",
"18 0 LINE",
"18 675 LINE",
"187 675 LINE",
"187 732 LINE"
);
}
);
width = 562;
}
);
unicode = 0030;
},
{
glyphname = one;
layers = (
{
layerId = "604F039F-C4E4-4D5F-9F8C-06B1752D997F";
paths = (
{
nodes = (
"91 676 LINE SMOOTH",
"126 676 OFFCURVE",
"187 649 OFFCURVE",
"233 603 OFFCURVE",
"260 542 OFFCURVE",
"260 507 QCURVE SMOOTH",
"260 0 LINE",
"72 0 LINE",
"72 451 LINE SMOOTH",
"72 466 OFFCURVE",
"63 481 OFFCURVE",
"48 487 OFFCURVE",
"27 488 OFFCURVE",
"16 488 QCURVE",
"16 676 LINE"
);
}
);
width = 278;
}
);
unicode = 0031;
},
{
glyphname = two;
layers = (
{
layerId = "604F039F-C4E4-4D5F-9F8C-06B1752D997F";
paths = (
{
nodes = (
"545 244 LINE",
"207 244 LINE",
"207 187 LINE",
"545 187 LINE",
"545 0 LINE",
"19 0 LINE",
"19 412 LINE",
"357 412 LINE",
"357 431 LINE SMOOTH",
"357 460 OFFCURVE",
"331 488 OFFCURVE",
"301 488 QCURVE SMOOTH",
"19 488 LINE",
"19 675 LINE",
"301 675 LINE SMOOTH",
"351 675 OFFCURVE",
"440 636 OFFCURVE",
"506 570 OFFCURVE",
"545 481 OFFCURVE",
"545 431 QCURVE SMOOTH"
);
}
);
width = 564;
}
);
unicode = 0032;
},
{
glyphname = three;
layers = (
{
layerId = "604F039F-C4E4-4D5F-9F8C-06B1752D997F";
paths = (
{
nodes = (
"542 488 LINE",
"542 431 LINE",
"599 431 LINE",
"599 244 LINE",
"542 244 LINE",
"542 194 OFFCURVE",
"503 105 OFFCURVE",
"437 39 OFFCURVE",
"348 0 OFFCURVE",
"298 0 QCURVE SMOOTH",
"17 0 LINE",
"17 187 LINE",
"298 187 LINE SMOOTH",
"327 187 OFFCURVE",
"355 213 OFFCURVE",
"355 240 QCURVE",
"355 242 OFFCURVE",
"355 244 QCURVE",
"129 244 LINE",
"129 413 LINE",
"355 413 LINE",
"355 488 LINE",
"17 488 LINE",
"17 676 LINE",
"599 676 LINE",
"599 488 LINE"
);
}
);
width = 614;
}
);
unicode = 0033;
},
{
glyphname = four;
layers = (
{
layerId = "604F039F-C4E4-4D5F-9F8C-06B1752D997F";
paths = (
{
nodes = (
"599 413 LINE",
"599 244 LINE",
"543 244 LINE",
"543 200 OFFCURVE",
"533 113 OFFCURVE",
"499 43 OFFCURVE",
"431 0 OFFCURVE",
"374 0 QCURVE SMOOTH",
"308 0 LINE",
"308 187 LINE",
"326 187 OFFCURVE",
"345 193 OFFCURVE",
"354 206 OFFCURVE",
"355 228 OFFCURVE",
"355 244 QCURVE",
"328 244 OFFCURVE",
"257 239 OFFCURVE",
"182 239 OFFCURVE",
"109 248 OFFCURVE",
"52 276 OFFCURVE",
"17 328 OFFCURVE",
"17 370 QCURVE SMOOTH",
"17 676 LINE",
"205 676 LINE",
"205 413 LINE",
"355 413 LINE",
"355 676 LINE",
"543 676 LINE",
"543 413 LINE"
);
}
);
width = 613;
}
);
unicode = 0034;
},
{
glyphname = five;
layers = (
{
layerId = "604F039F-C4E4-4D5F-9F8C-06B1752D997F";
paths = (
{
nodes = (
"598 244 LINE SMOOTH",
"598 194 OFFCURVE",
"559 105 OFFCURVE",
"493 39 OFFCURVE",
"404 0 OFFCURVE",
"354 0 QCURVE SMOOTH",
"72 0 LINE",
"72 188 LINE",
"354 188 LINE SMOOTH",
"375 188 OFFCURVE",
"397 199 OFFCURVE",
"408 218 OFFCURVE",
"410 246 OFFCURVE",
"410 263 QCURVE",
"72 263 LINE",
"72 488 LINE",
"16 488 LINE",
"16 676 LINE",
"598 676 LINE",
"598 488 LINE",
"260 488 LINE",
"260 432 LINE",
"598 432 LINE"
);
}
);
width = 615;
}
);
unicode = 0035;
},
{
glyphname = six;
layers = (
{
layerId = "604F039F-C4E4-4D5F-9F8C-06B1752D997F";
paths = (
{
nodes = (
"598 0 LINE",
"317 0 LINE SMOOTH",
"260 0 OFFCURVE",
"170 42 OFFCURVE",
"106 113 OFFCURVE",
"72 209 OFFCURVE",
"72 263 QCURVE",
"16 263 LINE",
"16 432 LINE",
"72 432 LINE",
"72 676 LINE",
"598 676 LINE",
"598 488 LINE",
"260 488 LINE",
"260 432 LINE",
"411 432 LINE SMOOTH",
"467 432 OFFCURVE",
"540 411 OFFCURVE",
"582 363 OFFCURVE",
"598 288 OFFCURVE",
"598 234 QCURVE SMOOTH"
);
},
{
nodes = (
"410 263 LINE",
"260 263 LINE",
"260 237 LINE SMOOTH",
"260 219 OFFCURVE",
"279 199 OFFCURVE",
"308 189 OFFCURVE",
"340 186 OFFCURVE",
"353 186 QCURVE SMOOTH",
"367 186 OFFCURVE",
"396 188 OFFCURVE",
"410 188 QCURVE"
);
}
);
width = 618;
}
);
unicode = 0036;
},
{
glyphname = seven;
layers = (
{
layerId = "604F039F-C4E4-4D5F-9F8C-06B1752D997F";
paths = (
{
nodes = (
"482 676 LINE SMOOTH",
"521 676 OFFCURVE",
"576 622 OFFCURVE",
"576 583 QCURVE SMOOTH",
"576 558 OFFCURVE",
"563 535 QCURVE SMOOTH",
"251 0 LINE",
"18 0 LINE",
"303 488 LINE",
"206 488 LINE",
"206 451 LINE",
"18 451 LINE",
"18 676 LINE"
);
}
);
width = 587;
}
);
unicode = 0037;
},
{
glyphname = eight;
layers = (
{
layerId = "604F039F-C4E4-4D5F-9F8C-06B1752D997F";
paths = (
{
nodes = (
"205 488 LINE",
"205 432 LINE",
"355 432 LINE",
"355 488 LINE"
);
},
{
nodes = (
"205 244 LINE",
"205 187 LINE",
"355 187 LINE",
"355 244 LINE"
);
},
{
nodes = (
"374 732 LINE",
"374 676 LINE",
"543 676 LINE",
"543 0 LINE",
"17 0 LINE",
"17 676 LINE",
"186 676 LINE",
"186 732 LINE"
);
}
);
width = 561;
}
);
unicode = 0038;
},
{
glyphname = nine;
layers = (
{
layerId = "604F039F-C4E4-4D5F-9F8C-06B1752D997F";
paths = (
{
nodes = (
"598 413 LINE",
"598 244 LINE",
"542 244 LINE",
"542 0 LINE",
"354 0 LINE",
"354 244 LINE",
"327 244 OFFCURVE",
"256 239 OFFCURVE",
"181 239 OFFCURVE",
"108 248 OFFCURVE",
"51 276 OFFCURVE",
"16 328 OFFCURVE",
"16 370 QCURVE SMOOTH",
"16 676 LINE",
"542 676 LINE",
"542 413 LINE"
);
},
{
nodes = (
"354 413 LINE",
"354 488 LINE",
"204 488 LINE",
"204 413 LINE"
);
}
);
width = 614;
}
);
unicode = 0039;
},
{
glyphname = colon;
layers = (
{
layerId = "604F039F-C4E4-4D5F-9F8C-06B1752D997F";
paths = (
{
nodes = (
"16 601 OFFCURVE",
"31 636 OFFCURVE",
"56 661 OFFCURVE",
"90 676 OFFCURVE",
"110 676 QCURVE SMOOTH",
"129 676 OFFCURVE",
"164 661 OFFCURVE",
"189 636 OFFCURVE",
"204 601 OFFCURVE",
"204 582 QCURVE SMOOTH",
"204 562 OFFCURVE",
"189 528 OFFCURVE",
"164 503 OFFCURVE",
"129 488 OFFCURVE",
"110 488 QCURVE SMOOTH",
"90 488 OFFCURVE",
"56 503 OFFCURVE",
"31 528 OFFCURVE",
"16 562 OFFCURVE",
"16 582 QCURVE SMOOTH"
);
},
{
nodes = (
"17 113 OFFCURVE",
"32 148 OFFCURVE",
"57 173 OFFCURVE",
"91 188 OFFCURVE",
"111 188 QCURVE SMOOTH",
"150 188 OFFCURVE",
"205 133 OFFCURVE",
"205 94 QCURVE SMOOTH",
"205 74 OFFCURVE",
"190 40 OFFCURVE",
"165 15 OFFCURVE",
"130 0 OFFCURVE",
"111 0 QCURVE SMOOTH",
"72 0 OFFCURVE",
"17 55 OFFCURVE",
"17 94 QCURVE SMOOTH"
);
}
);
width = 222;
}
);
unicode = 003A;
},
{
glyphname = semicolon;
layers = (
{
layerId = "604F039F-C4E4-4D5F-9F8C-06B1752D997F";
paths = (
{
nodes = (
"48 601 OFFCURVE",
"63 636 OFFCURVE",
"88 661 OFFCURVE",
"122 676 OFFCURVE",
"142 676 QCURVE SMOOTH",
"161 676 OFFCURVE",
"196 661 OFFCURVE",
"221 636 OFFCURVE",
"236 601 OFFCURVE",
"236 582 QCURVE SMOOTH",
"236 562 OFFCURVE",
"221 528 OFFCURVE",
"196 503 OFFCURVE",
"161 488 OFFCURVE",
"142 488 QCURVE SMOOTH",
"122 488 OFFCURVE",
"88 503 OFFCURVE",
"63 528 OFFCURVE",
"48 562 OFFCURVE",
"48 582 QCURVE SMOOTH"
);
},
{
nodes = (
"247 188 LINE",
"142 -101 LINE",
"4 -102 LINE",
"49 188 LINE"
);
}
);
width = 264;
}
);
unicode = 003B;
},
{
glyphname = less;
layers = (
{
layerId = "604F039F-C4E4-4D5F-9F8C-06B1752D997F";
paths = (
{
nodes = (
"21 381 LINE",
"363 618 LINE",
"363 460 LINE",
"186 339 LINE",
"230 309 OFFCURVE",
"319 246 OFFCURVE",
"363 217 QCURVE",
"363 59 LINE",
"21 295 LINE"
);
}
);
width = 367;
}
);
unicode = 003C;
},
{
glyphname = equal;
layers = (
{
layerId = "604F039F-C4E4-4D5F-9F8C-06B1752D997F";
paths = (
{
nodes = (
"444 293 LINE",
"444 166 LINE",
"27 166 LINE",
"27 293 LINE"
);
},
{
nodes = (
"444 523 LINE",
"444 395 LINE",
"27 395 LINE",
"27 523 LINE"
);
}
);
width = 466;
}
);
unicode = 003D;
},
{
glyphname = question;
layers = (
{
layerId = "604F039F-C4E4-4D5F-9F8C-06B1752D997F";
paths = (
{
nodes = (
"537 370 LINE SMOOTH",
"537 344 OFFCURVE",
"517 298 OFFCURVE",
"483 264 OFFCURVE",
"438 244 OFFCURVE",
"412 244 QCURVE SMOOTH",
"199 244 LINE",
"199 413 LINE",
"350 413 LINE",
"350 488 LINE",
"12 488 LINE",
"12 676 LINE",
"537 676 LINE"
);
},
{
nodes = (
"387 188 LINE",
"387 0 LINE",
"199 0 LINE",
"199 188 LINE"
);
}
);
width = 549;
}
);
unicode = 003F;
},
{
glyphname = at;
layers = (
{
layerId = "604F039F-C4E4-4D5F-9F8C-06B1752D997F";
paths = (
{
nodes = (
"430 624 LINE SMOOTH",
"466 624 OFFCURVE",
"529 601 OFFCURVE",
"576 559 OFFCURVE",
"604 499 OFFCURVE",
"604 462 QCURVE SMOOTH",
"604 213 LINE SMOOTH",
"604 181 OFFCURVE",
"557 134 OFFCURVE",
"524 134 QCURVE SMOOTH",
"267 134 LINE SMOOTH",
"235 134 OFFCURVE",
"189 181 OFFCURVE",
"189 213 QCURVE SMOOTH",
"189 280 LINE SMOOTH",
"189 312 OFFCURVE",
"235 359 OFFCURVE",
"267 359 QCURVE SMOOTH",
"352 359 LINE",
"352 392 LINE",
"189 392 LINE",
"189 490 LINE",
"372 490 LINE SMOOTH",
"405 490 OFFCURVE",
"450 443 OFFCURVE",
"450 412 QCURVE SMOOTH",
"450 233 LINE",
"502 233 LINE",
"502 462 LINE SMOOTH",
"502 495 OFFCURVE",
"459 524 OFFCURVE",
"430 524 QCURVE SMOOTH",
"201 524 LINE SMOOTH",
"172 524 OFFCURVE",
"130 495 OFFCURVE",
"130 462 QCURVE SMOOTH",
"130 161 LINE SMOOTH",
"130 130 OFFCURVE",
"172 101 OFFCURVE",
"201 101 QCURVE SMOOTH",
"430 101 LINE",
"430 0 LINE",
"201 0 LINE SMOOTH",
"165 0 OFFCURVE",
"103 23 OFFCURVE",
"56 66 OFFCURVE",
"29 125 OFFCURVE",
"29 161 QCURVE SMOOTH",
"29 462 LINE SMOOTH",
"29 499 OFFCURVE",
"56 559 OFFCURVE",
"103 601 OFFCURVE",
"165 624 OFFCURVE",
"201 624 QCURVE SMOOTH"
);
},
{
nodes = (
"352 259 LINE",
"288 259 LINE",
"288 233 LINE",
"352 233 LINE"
);
}
);
width = 629;
}
);
unicode = 0040;
},
{
glyphname = A;
layers = (
{
layerId = "604F039F-C4E4-4D5F-9F8C-06B1752D997F";
paths = (
{
nodes = (
"245 675 LINE",
"245 713 LINE",
"433 713 LINE",
"433 675 LINE",
"658 675 LINE",
"658 488 LINE",
"601 488 LINE",
"601 225 LINE SMOOTH",
"601 210 OFFCURVE",
"610 194 OFFCURVE",
"626 187 OFFCURVE",
"636 187 QCURVE",
"637 187 LINE",
"637 187 OFFCURVE",
"637 187 QCURVE",
"638 187 LINE",
"639 187 OFFCURVE",
"640 187 QCURVE",
"641 187 LINE",
"642 187 OFFCURVE",
"642 187 QCURVE",
"643 187 LINE",
"643 187 OFFCURVE",
"644 187 QCURVE",
"646 187 LINE",
"646 187 OFFCURVE",
"647 187 QCURVE",
"648 187 LINE",
"648 187 OFFCURVE",
"649 187 QCURVE",
"658 187 LINE",
"658 0 LINE",
"583 0 LINE SMOOTH",
"525 0 OFFCURVE",
"458 44 OFFCURVE",
"423 113 OFFCURVE",
"414 200 OFFCURVE",
"414 244 QCURVE",
"264 244 LINE",
"264 168 LINE SMOOTH",
"264 133 OFFCURVE",
"237 72 OFFCURVE",
"191 26 OFFCURVE",
"129 0 OFFCURVE",
"95 0 QCURVE SMOOTH",
"19 0 LINE",
"19 187 LINE",
"20 187 LINE",
"20 187 OFFCURVE",
"20 187 QCURVE",
"22 187 LINE",
"22 187 OFFCURVE",
"23 187 QCURVE",
"25 187 LINE",
"26 187 OFFCURVE",
"26 187 QCURVE",
"27 187 LINE",
"27 187 OFFCURVE",
"28 187 QCURVE",
"30 187 LINE",
"31 187 OFFCURVE",
"31 187 QCURVE",
"32 187 LINE",
"32 187 OFFCURVE",
"33 187 QCURVE",
"41 187 LINE SMOOTH",
"51 187 OFFCURVE",
"67 194 OFFCURVE",
"76 210 OFFCURVE",
"76 225 QCURVE SMOOTH",
"76 488 LINE",
"19 488 LINE",
"19 675 LINE"
);
},
{
nodes = (
"414 431 LINE",
"414 488 LINE",
"264 488 LINE",
"264 431 LINE"
);
}
);
width = 677;
}
);
unicode = 0041;
},
{
glyphname = B;
layers = (
{
layerId = "604F039F-C4E4-4D5F-9F8C-06B1752D997F";
paths = (
{
nodes = (
"605 169 LINE SMOOTH",
"605 134 OFFCURVE",
"578 73 OFFCURVE",
"532 27 OFFCURVE",
"471 0 OFFCURVE",
"436 0 QCURVE SMOOTH",
"296 0 LINE",
"296 188 LINE",
"417 188 LINE",
"417 244 LINE",
"267 244 LINE",
"267 0 LINE",
"79 0 LINE",
"79 244 LINE",
"23 244 LINE",
"23 432 LINE",
"79 432 LINE",
"79 488 LINE",
"23 488 LINE",
"23 676 LINE",
"605 676 LINE"
);
},
{
nodes = (
"417 413 LINE",
"417 488 LINE",
"267 488 LINE",
"267 413 LINE"
);
}
);
width = 627;
}
);
unicode = 0042;
},
{
glyphname = C;
layers = (
{
layerId = "604F039F-C4E4-4D5F-9F8C-06B1752D997F";
paths = (
{
nodes = (
"601 432 LINE",
"413 432 LINE",
"413 489 LINE",
"263 489 LINE",
"263 357 LINE SMOOTH",
"263 308 OFFCURVE",
"295 245 OFFCURVE",
"348 208 OFFCURVE",
"418 191 OFFCURVE",
"482 187 OFFCURVE",
"509 187 QCURVE SMOOTH",
"520 187 OFFCURVE",
"568 188 OFFCURVE",
"601 188 QCURVE",
"601 0 LINE",
"432 0 LINE SMOOTH",
"358 0 OFFCURVE",
"228 56 OFFCURVE",
"131 153 OFFCURVE",
"75 283 OFFCURVE",
"75 357 QCURVE SMOOTH",
"75 470 LINE",
"19 470 LINE",
"19 676 LINE",
"601 676 LINE"
);
}
);
width = 625;
}
);
unicode = 0043;
},
{
glyphname = D;
layers = (
{
layerId = "604F039F-C4E4-4D5F-9F8C-06B1752D997F";
paths = (
{
nodes = (
"600 244 LINE SMOOTH",
"600 194 OFFCURVE",
"561 105 OFFCURVE",
"495 39 OFFCURVE",
"406 0 OFFCURVE",
"356 0 QCURVE SMOOTH",
"295 0 LINE",
"295 188 LINE",
"314 188 OFFCURVE",
"340 186 OFFCURVE",
"345 186 QCURVE SMOOTH",
"360 186 OFFCURVE",
"390 193 OFFCURVE",
"412 217 OFFCURVE",
"412 244 QCURVE SMOOTH",
"412 488 LINE",
"262 488 LINE",
"262 0 LINE",
"74 0 LINE",
"74 488 LINE",
"18 488 LINE",
"18 676 LINE",
"600 676 LINE"
);
}
);
width = 619;
}
);
unicode = 0044;
},
{
glyphname = E;
layers = (
{
layerId = "604F039F-C4E4-4D5F-9F8C-06B1752D997F";
paths = (
{
nodes = (
"19 244 LINE",
"19 431 LINE",
"75 431 LINE",
"75 488 LINE",
"19 488 LINE",
"19 675 LINE",
"601 675 LINE",
"601 488 LINE",
"263 488 LINE",
"263 413 LINE",
"488 413 LINE",
"488 244 LINE",
"263 244 LINE",
"263 243 OFFCURVE",
"263 242 QCURVE",
"263 187 OFFCURVE",
"319 187 QCURVE SMOOTH",
"601 187 LINE",
"601 0 LINE",
"319 0 LINE SMOOTH",
"269 0 OFFCURVE",
"180 39 OFFCURVE",
"114 105 OFFCURVE",
"75 194 OFFCURVE",
"75 244 QCURVE"
);
}
);
width = 620;
}
);
unicode = 0045;
},
{
glyphname = F;
layers = (
{
layerId = "604F039F-C4E4-4D5F-9F8C-06B1752D997F";
paths = (
{
nodes = (
"19 244 LINE",
"19 432 LINE",
"76 432 LINE",
"76 488 LINE",
"19 488 LINE",
"19 676 LINE",
"601 676 LINE",
"601 488 LINE",
"263 488 LINE",
"263 413 LINE",
"488 413 LINE",
"488 244 LINE",
"263 244 LINE",
"263 200 OFFCURVE",
"253 112 OFFCURVE",
"219 43 OFFCURVE",
"151 0 OFFCURVE",
"94 0 QCURVE SMOOTH",
"19 0 LINE",
"19 187 LINE",
"38 187 OFFCURVE",
"61 190 OFFCURVE",
"73 201 OFFCURVE",
"76 224 OFFCURVE",
"76 244 QCURVE"
);
}
);
width = 621;
}
);
unicode = 0046;
},
{
glyphname = G;
layers = (
{
layerId = "604F039F-C4E4-4D5F-9F8C-06B1752D997F";
paths = (
{
nodes = (
"601 413 LINE",
"601 0 LINE",
"432 0 LINE SMOOTH",
"358 0 OFFCURVE",
"228 56 OFFCURVE",
"131 153 OFFCURVE",
"75 283 OFFCURVE",
"75 357 QCURVE SMOOTH",
"75 470 LINE",
"19 470 LINE",
"19 676 LINE",
"601 676 LINE",
"601 451 LINE",
"413 451 LINE",
"413 488 LINE",
"263 488 LINE",
"263 357 LINE SMOOTH",
"263 325 OFFCURVE",
"286 267 OFFCURVE",
"326 222 OFFCURVE",
"381 193 OFFCURVE",
"413 189 QCURVE",
"413 244 LINE",
"357 244 LINE",
"357 413 LINE"
);
}
);
width = 620;
}
);
unicode = 0047;
},
{
glyphname = H;
layers = (
{
layerId = "604F039F-C4E4-4D5F-9F8C-06B1752D997F";
paths = (
{
nodes = (
"657 188 LINE",
"657 0 LINE",
"582 0 LINE SMOOTH",
"547 0 OFFCURVE",
"486 27 OFFCURVE",
"440 73 OFFCURVE",
"413 134 OFFCURVE",
"413 169 QCURVE SMOOTH",
"413 244 LINE",
"262 244 LINE",
"262 0 LINE",
"75 0 LINE",
"75 244 LINE",
"18 244 LINE",
"18 432 LINE",
"75 432 LINE",
"75 676 LINE",
"262 676 LINE",
"262 432 LINE",
"413 432 LINE",
"413 676 LINE",
"600 676 LINE",
"600 225 LINE SMOOTH",
"600 210 OFFCURVE",
"609 195 OFFCURVE",
"625 188 OFFCURVE",
"636 188 QCURVE",
"637 188 LINE",
"638 188 OFFCURVE",
"639 188 QCURVE",
"640 188 LINE",
"641 188 OFFCURVE",
"641 188 QCURVE",
"642 188 LINE",
"642 188 OFFCURVE",
"642 188 QCURVE",
"644 188 LINE",
"644 188 OFFCURVE",
"645 188 QCURVE",
"646 188 OFFCURVE",
"646 188 QCURVE",
"654 188 LINE",
"654 188 OFFCURVE",
"654 188 QCURVE"
);
}
);
width = 673;
}
);
unicode = 0048;
},
{
glyphname = I;
layers = (
{
layerId = "604F039F-C4E4-4D5F-9F8C-06B1752D997F";
paths = (
{
nodes = (
"265 676 LINE",
"265 169 LINE SMOOTH",
"265 134 OFFCURVE",
"238 73 OFFCURVE",
"192 27 OFFCURVE",
"131 0 OFFCURVE",
"96 0 QCURVE SMOOTH",
"21 0 LINE",
"21 188 LINE",
"32 188 OFFCURVE",
"53 189 OFFCURVE",
"68 195 OFFCURVE",
"77 210 OFFCURVE",
"77 225 QCURVE SMOOTH",
"77 676 LINE"
);
}
);
width = 285;
}
);
unicode = 0049;
},
{
glyphname = J;
layers = (
{
layerId = "604F039F-C4E4-4D5F-9F8C-06B1752D997F";
paths = (
{
nodes = (
"342 675 LINE",
"342 300 LINE SMOOTH",
"342 232 OFFCURVE",
"292 121 OFFCURVE",
"205 43 OFFCURVE",
"89 0 OFFCURVE",
"23 0 QCURVE",
"23 187 LINE",
"49 187 OFFCURVE",
"97 200 OFFCURVE",
"133 228 OFFCURVE",
"154 271 OFFCURVE",
"154 300 QCURVE SMOOTH",
"154 488 LINE",
"23 488 LINE",
"23 675 LINE"
);
}
);
width = 363;
}
);
unicode = 004A;
},
{
glyphname = K;
layers = (
{
layerId = "604F039F-C4E4-4D5F-9F8C-06B1752D997F";
paths = (
{
nodes = (
"547 676 LINE",
"524 643 OFFCURVE",
"463 551 OFFCURVE",
"408 449 OFFCURVE",
"370 347 OFFCURVE",
"370 305 QCURVE SMOOTH",
"370 267 OFFCURVE",
"403 222 OFFCURVE",
"454 196 OFFCURVE",
"517 188 OFFCURVE",
"547 188 QCURVE",
"547 0 LINE",
"494 0 OFFCURVE",
"393 18 OFFCURVE",
"305 60 OFFCURVE",
"233 128 OFFCURVE",
"209 179 QCURVE",
"209 0 LINE",
"21 0 LINE",
"21 676 LINE",
"209 676 LINE",
"209 451 LINE",
"228 511 OFFCURVE",
"289 623 OFFCURVE",
"322 676 QCURVE"
);
}
);
width = 566;
}
);
unicode = 004B;
},
{
glyphname = L;
layers = (
{
layerId = "604F039F-C4E4-4D5F-9F8C-06B1752D997F";
paths = (
{
nodes = (
"601 169 LINE SMOOTH",
"601 134 OFFCURVE",
"574 73 OFFCURVE",
"528 27 OFFCURVE",
"467 0 OFFCURVE",
"432 0 QCURVE SMOOTH",
"19 0 LINE",
"19 188 LINE",
"75 188 LINE",
"75 676 LINE",
"263 676 LINE",
"263 188 LINE",
"375 188 LINE SMOOTH",
"390 188 OFFCURVE",
"406 197 OFFCURVE",
"412 212 OFFCURVE",
"413 232 OFFCURVE",
"413 244 QCURVE",
"601 244 LINE"
);
}
);
width = 620;
}
);
unicode = 004C;
},
{
glyphname = M;
layers = (
{
layerId = "604F039F-C4E4-4D5F-9F8C-06B1752D997F";
paths = (
{
nodes = (
"771 676 LINE",
"771 488 LINE",
"715 488 LINE",
"715 225 LINE SMOOTH",
"715 210 OFFCURVE",
"724 195 OFFCURVE",
"739 188 OFFCURVE",
"750 188 QCURVE",
"751 188 LINE",
"752 188 OFFCURVE",
"753 188 QCURVE",
"754 188 LINE",
"755 188 OFFCURVE",
"755 188 QCURVE",
"756 188 LINE",
"756 188 OFFCURVE",
"756 188 QCURVE",
"758 188 LINE",
"758 188 OFFCURVE",
"759 188 QCURVE",
"760 188 OFFCURVE",
"760 188 QCURVE",
"768 188 LINE",
"768 188 OFFCURVE",
"768 188 QCURVE",
"771 188 LINE",
"771 0 LINE",
"715 0 LINE SMOOTH",
"653 0 OFFCURVE",
"578 37 OFFCURVE",
"539 103 OFFCURVE",
"527 192 OFFCURVE",
"527 244 QCURVE SMOOTH",
"527 488 LINE",
"490 488 LINE",
"490 244 LINE",
"302 244 LINE",
"302 488 LINE",
"264 488 LINE",
"264 244 LINE SMOOTH",
"264 184 OFFCURVE",
"250 93 OFFCURVE",
"206 31 OFFCURVE",
"125 0 OFFCURVE",
"58 0 QCURVE SMOOTH",
"20 0 LINE",
"20 188 LINE",
"22 188 LINE",
"23 188 OFFCURVE",
"24 188 QCURVE",
"25 188 LINE",
"25 188 OFFCURVE",
"26 188 QCURVE",
"27 188 LINE",
"27 188 OFFCURVE",
"27 188 QCURVE",
"29 188 LINE",
"29 188 OFFCURVE",
"29 188 QCURVE",
"30 188 LINE",
"30 188 OFFCURVE",
"31 188 QCURVE",
"38 188 LINE",
"39 188 OFFCURVE",
"39 188 QCURVE",
"42 188 LINE SMOOTH",
"52 188 OFFCURVE",
"68 195 OFFCURVE",
"77 210 OFFCURVE",
"77 225 QCURVE SMOOTH",
"77 488 LINE",
"20 488 LINE",
"20 676 LINE",
"302 676 LINE",
"302 713 LINE",
"490 713 LINE",
"490 676 LINE"
);
}
);
width = 791;
}
);
unicode = 004D;
},
{
glyphname = N;
layers = (
{
layerId = "604F039F-C4E4-4D5F-9F8C-06B1752D997F";
paths = (
{
nodes = (
"619 0 LINE",
"544 0 LINE SMOOTH",
"509 0 OFFCURVE",
"448 27 OFFCURVE",
"402 73 OFFCURVE",
"375 134 OFFCURVE",
"375 169 QCURVE SMOOTH",
"375 488 LINE",
"310 481 OFFCURVE",
"242 445 OFFCURVE",
"210 385 OFFCURVE",
"206 299 OFFCURVE",
"206 244 QCURVE SMOOTH",
"206 0 LINE",
"18 0 LINE",
"18 676 LINE",
"206 676 LINE",
"206 640 LINE",
"251 660 OFFCURVE",
"338 676 OFFCURVE",
"387 676 QCURVE SMOOTH",
"563 676 LINE",
"563 225 LINE SMOOTH",
"563 210 OFFCURVE",
"572 195 OFFCURVE",
"587 189 OFFCURVE",
"608 188 OFFCURVE",
"619 188 QCURVE"
);
}
);
width = 636;
}
);
unicode = 004E;
},
{
glyphname = O;
layers = (
{
layerId = "604F039F-C4E4-4D5F-9F8C-06B1752D997F";
paths = (
{
nodes = (
"361 188 LINE",
"361 488 LINE",
"211 488 LINE",
"211 188 LINE"
);
},
{
nodes = (
"549 0 LINE",
"23 0 LINE",
"23 676 LINE",
"549 676 LINE"
);
}
);
width = 570;
}
);
unicode = 004F;
},
{
glyphname = P;
layers = (
{
layerId = "604F039F-C4E4-4D5F-9F8C-06B1752D997F";
paths = (
{
nodes = (
"601 413 LINE SMOOTH",
"601 364 OFFCURVE",
"569 301 OFFCURVE",
"516 263 OFFCURVE",
"446 247 OFFCURVE",
"382 243 OFFCURVE",
"355 243 QCURVE SMOOTH",
"344 243 OFFCURVE",
"295 244 OFFCURVE",
"263 244 QCURVE",
"263 0 LINE",
"75 0 LINE",
"75 244 LINE",
"19 244 LINE",
"19 432 LINE",
"75 432 LINE",
"75 488 LINE",
"19 488 LINE",
"19 676 LINE",
"601 676 LINE"
);
},
{
nodes = (
"413 413 LINE",
"413 488 LINE",
"263 488 LINE",
"263 413 LINE"
);
}
);
width = 621;
}
);
unicode = 0050;
},
{
glyphname = Q;
layers = (
{
layerId = "604F039F-C4E4-4D5F-9F8C-06B1752D997F";
paths = (
{
nodes = (
"359 188 LINE",
"359 488 LINE",
"209 488 LINE",
"209 188 LINE"
);
},
{
nodes = (
"546 0 LINE",
"378 0 LINE",
"378 -56 LINE",
"190 -56 LINE",
"190 0 LINE",
"21 0 LINE",
"21 676 LINE",
"546 676 LINE"
);
}
);
width = 568;
}
);
unicode = 0051;
},
{
glyphname = R;
layers = (
{
layerId = "604F039F-C4E4-4D5F-9F8C-06B1752D997F";
paths = (
{
nodes = (
"599 0 LINE",
"540 0 OFFCURVE",
"434 31 OFFCURVE",
"350 92 OFFCURVE",
"293 183 OFFCURVE",
"283 244 QCURVE",
"261 244 LINE",
"261 0 LINE",
"73 0 LINE",
"73 244 LINE",
"17 244 LINE",
"17 432 LINE",
"73 432 LINE",
"73 489 LINE",
"17 489 LINE",
"17 676 LINE",
"599 676 LINE",
"599 413 LINE SMOOTH",
"599 382 OFFCURVE",
"577 326 OFFCURVE",
"539 281 OFFCURVE",
"487 251 OFFCURVE",
"456 247 QCURVE",
"464 224 OFFCURVE",
"494 194 OFFCURVE",
"533 176 OFFCURVE",
"577 169 OFFCURVE",
"599 169 QCURVE"
);
},
{
nodes = (
"411 413 LINE",
"411 489 LINE",
"261 489 LINE",
"261 413 LINE"
);
}
);
width = 617;
}
);
unicode = 0052;
},
{
glyphname = S;
layers = (
{
layerId = "604F039F-C4E4-4D5F-9F8C-06B1752D997F";
paths = (
{
nodes = (
"20 244 LINE",
"20 432 LINE SMOOTH",
"20 482 OFFCURVE",
"59 571 OFFCURVE",
"125 637 OFFCURVE",
"214 676 OFFCURVE",
"264 676 QCURVE SMOOTH",
"546 676 LINE",
"546 489 LINE",
"358 489 LINE SMOOTH",
"326 489 OFFCURVE",
"289 492 OFFCURVE",
"280 492 QCURVE SMOOTH",
"264 492 OFFCURVE",
"231 485 OFFCURVE",
"208 452 OFFCURVE",
"208 413 QCURVE",
"546 413 LINE",
"546 244 LINE SMOOTH",
"546 194 OFFCURVE",
"507 105 OFFCURVE",
"441 39 OFFCURVE",
"352 0 OFFCURVE",
"302 0 QCURVE SMOOTH",
"20 0 LINE",
"20 188 LINE",
"264 188 LINE SMOOTH",
"281 188 OFFCURVE",
"300 187 OFFCURVE",
"301 187 QCURVE",
"316 187 OFFCURVE",
"342 196 OFFCURVE",
"358 220 OFFCURVE",
"358 244 QCURVE"
);
}
);
width = 561;
}
);
unicode = 0053;
},
{
glyphname = T;
layers = (
{
layerId = "604F039F-C4E4-4D5F-9F8C-06B1752D997F";
paths = (
{
nodes = (
"375 226 LINE SMOOTH",
"375 211 OFFCURVE",
"384 195 OFFCURVE",
"399 188 OFFCURVE",
"409 188 QCURVE",
"411 188 LINE",
"412 188 OFFCURVE",
"413 188 QCURVE",
"414 188 OFFCURVE",
"415 188 QCURVE",
"416 188 OFFCURVE",
"416 188 QCURVE",
"417 188 LINE",
"418 188 OFFCURVE",
"418 188 QCURVE",
"419 188 LINE",
"419 188 OFFCURVE",
"419 188 QCURVE",
"427 188 LINE",
"428 188 OFFCURVE",
"428 188 QCURVE",
"431 188 LINE",
"431 0 LINE",
"356 0 LINE SMOOTH",
"321 0 OFFCURVE",
"260 27 OFFCURVE",
"214 73 OFFCURVE",
"187 134 OFFCURVE",
"187 169 QCURVE SMOOTH",
"187 488 LINE",
"18 488 LINE",
"18 676 LINE",
"543 676 LINE",
"543 488 LINE",
"375 488 LINE"
);
}
);
width = 561;
}
);
unicode = 0054;
},
{
glyphname = U;
layers = (
{
layerId = "604F039F-C4E4-4D5F-9F8C-06B1752D997F";
paths = (
{
nodes = (
"601 0 LINE",
"432 0 LINE SMOOTH",
"358 0 OFFCURVE",
"228 56 OFFCURVE",
"131 153 OFFCURVE",
"75 283 OFFCURVE",
"75 357 QCURVE SMOOTH",
"75 469 LINE",
"19 469 LINE",
"19 676 LINE",
"263 676 LINE",
"263 485 LINE",
"263 484 OFFCURVE",
"263 482 QCURVE",
"263 463 LINE",
"263 461 OFFCURVE",
"263 460 QCURVE",
"263 445 LINE",
"263 444 OFFCURVE",
"263 442 QCURVE",
"263 393 LINE SMOOTH",
"263 343 OFFCURVE",
"288 257 OFFCURVE",
"350 196 OFFCURVE",
"413 189 QCURVE",
"413 676 LINE",
"601 676 LINE"
);
}
);
width = 622;
}
);
unicode = 0055;
},
{
glyphname = V;
layers = (
{
layerId = "604F039F-C4E4-4D5F-9F8C-06B1752D997F";
paths = (
{
nodes = (
"616 676 LINE",
"616 488 LINE",
"604 488 OFFCURVE",
"584 487 OFFCURVE",
"569 481 OFFCURVE",
"560 465 OFFCURVE",
"560 450 QCURVE SMOOTH",
"560 0 LINE",
"372 0 LINE",
"5 676 LINE",
"198 676 LINE",
"372 354 LINE",
"372 386 OFFCURVE",
"371 428 OFFCURVE",
"371 433 QCURVE SMOOTH",
"371 464 OFFCURVE",
"377 531 OFFCURVE",
"394 596 OFFCURVE",
"432 646 OFFCURVE",
"494 676 OFFCURVE",
"541 676 QCURVE SMOOTH"
);
}
);
width = 634;
}
);
unicode = 0056;
},
{
glyphname = W;
layers = (
{
layerId = "604F039F-C4E4-4D5F-9F8C-06B1752D997F";
paths = (
{
nodes = (
"771 676 LINE",
"771 488 LINE",
"770 488 LINE",
"769 488 OFFCURVE",
"767 488 QCURVE",
"765 488 LINE",
"765 488 OFFCURVE",
"764 488 QCURVE",
"762 488 LINE",
"762 488 OFFCURVE",
"762 488 QCURVE",
"761 488 LINE",
"761 488 OFFCURVE",
"760 488 QCURVE",
"758 488 LINE",
"757 488 OFFCURVE",
"757 488 QCURVE",
"752 488 LINE",
"752 488 OFFCURVE",
"752 488 QCURVE",
"750 488 LINE",
"739 488 OFFCURVE",
"724 481 OFFCURVE",
"715 466 OFFCURVE",
"715 451 QCURVE SMOOTH",
"715 188 LINE",
"771 188 LINE",
"771 0 LINE",
"489 0 LINE",
"489 -38 LINE",
"301 -38 LINE",
"301 0 LINE",
"20 0 LINE",
"20 188 LINE",
"76 188 LINE",
"76 451 LINE SMOOTH",
"76 466 OFFCURVE",
"67 481 OFFCURVE",
"52 488 OFFCURVE",
"42 488 QCURVE",
"41 488 LINE",
"39 488 OFFCURVE",
"38 488 QCURVE",
"36 488 LINE",
"35 488 OFFCURVE",
"35 488 QCURVE",
"33 488 LINE",
"33 488 OFFCURVE",
"32 488 QCURVE",
"31 488 OFFCURVE",
"31 488 QCURVE",
"28 488 LINE",
"28 488 OFFCURVE",
"28 488 QCURVE",
"23 488 LINE",
"23 488 OFFCURVE",
"22 488 QCURVE",
"20 488 LINE",
"20 676 LINE",
"76 676 LINE SMOOTH",
"138 676 OFFCURVE",
"213 639 OFFCURVE",
"252 573 OFFCURVE",
"264 484 OFFCURVE",
"264 432 QCURVE SMOOTH",
"264 188 LINE",
"301 188 LINE",
"301 432 LINE",
"489 432 LINE",
"489 188 LINE",
"527 188 LINE",
"527 432 LINE SMOOTH",
"527 492 OFFCURVE",
"542 583 OFFCURVE",
"586 644 OFFCURVE",
"667 676 OFFCURVE",
"733 676 QCURVE SMOOTH"
);
}
);
width = 789;
}
);
unicode = 0057;
},
{
glyphname = X;
layers = (
{
layerId = "604F039F-C4E4-4D5F-9F8C-06B1752D997F";
paths = (
{
nodes = (
"575 676 LINE",
"575 488 LINE",
"538 488 OFFCURVE",
"494 486 OFFCURVE",
"466 476 OFFCURVE",
"450 458 OFFCURVE",
"433 424 OFFCURVE",
"411 374 OFFCURVE",
"391 338 QCURVE",
"575 0 LINE",
"387 0 LINE",
"297 167 LINE",
"278 132 OFFCURVE",
"246 71 OFFCURVE",
"205 26 OFFCURVE",
"149 0 OFFCURVE",
"106 0 QCURVE SMOOTH",
"20 0 LINE",
"20 188 LINE",
"57 188 OFFCURVE",
"102 189 OFFCURVE",
"129 197 OFFCURVE",
"145 215 OFFCURVE",
"161 249 OFFCURVE",
"183 300 OFFCURVE",
"204 338 QCURVE",
"20 676 LINE",
"208 676 LINE",
"298 511 LINE",
"316 544 OFFCURVE",
"348 604 OFFCURVE",
"389 649 OFFCURVE",
"446 676 OFFCURVE",
"489 676 QCURVE SMOOTH"
);
}
);
width = 592;
}
);
unicode = 0058;
},
{
glyphname = Y;
layers = (
{
layerId = "604F039F-C4E4-4D5F-9F8C-06B1752D997F";
paths = (
{
nodes = (
"600 413 LINE",
"600 244 LINE",
"544 244 LINE",
"544 194 OFFCURVE",
"505 105 OFFCURVE",
"439 39 OFFCURVE",
"350 0 OFFCURVE",
"300 0 QCURVE SMOOTH",
"131 0 LINE",
"131 188 LINE",
"300 188 LINE SMOOTH",
"356 188 OFFCURVE",
"356 242 QCURVE",
"356 243 OFFCURVE",
"356 244 QCURVE",
"329 244 OFFCURVE",
"258 239 OFFCURVE",
"183 239 OFFCURVE",
"110 249 OFFCURVE",
"53 277 OFFCURVE",
"18 328 OFFCURVE",
"18 370 QCURVE SMOOTH",
"18 676 LINE",
"206 676 LINE",
"206 413 LINE",
"356 413 LINE",
"356 676 LINE",
"544 676 LINE",
"544 413 LINE"
);
}
);
width = 617;
}
);
unicode = 0059;
},
{
glyphname = Z;
layers = (
{
layerId = "604F039F-C4E4-4D5F-9F8C-06B1752D997F";
paths = (
{
nodes = (
"618 169 LINE SMOOTH",
"618 134 OFFCURVE",
"591 73 OFFCURVE",
"545 27 OFFCURVE",
"484 0 OFFCURVE",
"449 0 QCURVE SMOOTH",
"17 0 LINE",
"309 488 LINE",
"242 488 LINE SMOOTH",
"227 488 OFFCURVE",
"212 479 OFFCURVE",
"205 463 OFFCURVE",
"205 453 QCURVE",
"205 451 LINE",
"205 450 OFFCURVE",
"205 450 QCURVE",
"205 448 LINE",
"205 448 OFFCURVE",
"205 447 QCURVE",
"205 446 OFFCURVE",
"205 446 QCURVE",
"205 445 LINE",
"205 445 OFFCURVE",
"205 445 QCURVE",
"205 443 LINE",
"205 442 OFFCURVE",
"205 442 QCURVE",
"205 431 LINE",
"17 431 LINE",
"17 507 LINE SMOOTH",
"17 542 OFFCURVE",
"44 603 OFFCURVE",
"90 649 OFFCURVE",
"151 676 OFFCURVE",
"186 676 QCURVE SMOOTH",
"618 676 LINE",
"326 187 LINE",
"393 187 LINE SMOOTH",
"408 187 OFFCURVE",
"423 196 OFFCURVE",
"430 212 OFFCURVE",
"430 223 QCURVE",
"430 223 OFFCURVE",
"430 224 QCURVE",
"430 225 OFFCURVE",
"430 225 QCURVE",
"430 227 LINE",
"430 228 OFFCURVE",
"430 229 QCURVE",
"430 231 LINE",
"430 231 OFFCURVE",
"430 232 QCURVE",
"430 233 OFFCURVE",
"430 233 QCURVE",
"430 239 LINE",
"430 239 OFFCURVE",
"430 240 QCURVE",
"430 241 LINE",
"430 241 OFFCURVE",
"430 241 QCURVE",
"430 244 LINE",
"618 244 LINE"
);
}
);
width = 634;
}
);
unicode = 005A;
},
{
glyphname = bracketleft;
layers = (
{
layerId = "604F039F-C4E4-4D5F-9F8C-06B1752D997F";
paths = (
{
nodes = (
"211 -28 LINE",
"343 -28 LINE",
"343 -216 LINE",
"23 -216 LINE",
"23 887 LINE",
"343 887 LINE",
"343 699 LINE",
"211 699 LINE"
);
}
);
width = 242;
}
);
unicode = 005B;
},
{
glyphname = backslash;
layers = (
{
layerId = "604F039F-C4E4-4D5F-9F8C-06B1752D997F";
paths = (
{
nodes = (
"202 678 LINE",
"455 0 LINE",
"267 0 LINE",
"14 678 LINE"
);
}
);
width = 461;
}
);
unicode = 005C;
},
{
glyphname = bracketright;
layers = (
{
layerId = "604F039F-C4E4-4D5F-9F8C-06B1752D997F";
paths = (
{
nodes = (
"26 699 LINE",
"-106 699 LINE",
"-106 887 LINE",
"214 887 LINE",
"214 -216 LINE",
"-106 -216 LINE",
"-106 -28 LINE",
"26 -28 LINE"
);
}
);
width = 242;
}
);
unicode = 005D;
},
{
glyphname = underscore;
layers = (
{
layerId = "604F039F-C4E4-4D5F-9F8C-06B1752D997F";
paths = (
{
nodes = (
"21 -60 LINE",
"676 -60 LINE",
"676 -227 LINE",
"21 -227 LINE"
);
}
);
width = 696;
}
);
unicode = 005F;
},
{
glyphname = grave;
layers = (
{
layerId = "604F039F-C4E4-4D5F-9F8C-06B1752D997F";
paths = (
{
nodes = (
"257 743 LINE",
"126 743 LINE",
"32 915 LINE",
"181 915 LINE"
);
}
);
width = 301;
}
);
unicode = 0060;
},
{
glyphname = a;
layers = (
{
layerId = "604F039F-C4E4-4D5F-9F8C-06B1752D997F";
paths = (
{
nodes = (
"245 675 LINE",
"245 713 LINE",
"433 713 LINE",
"433 675 LINE",
"658 675 LINE",
"658 488 LINE",
"601 488 LINE",
"601 225 LINE SMOOTH",
"601 210 OFFCURVE",
"610 194 OFFCURVE",
"626 187 OFFCURVE",
"636 187 QCURVE",
"637 187 LINE",
"637 187 OFFCURVE",
"637 187 QCURVE",
"638 187 LINE",
"639 187 OFFCURVE",
"640 187 QCURVE",
"641 187 LINE",
"642 187 OFFCURVE",
"642 187 QCURVE",
"643 187 LINE",
"643 187 OFFCURVE",
"644 187 QCURVE",
"646 187 LINE",
"646 187 OFFCURVE",
"647 187 QCURVE",
"648 187 LINE",
"648 187 OFFCURVE",
"649 187 QCURVE",
"658 187 LINE",
"658 0 LINE",
"583 0 LINE SMOOTH",
"525 0 OFFCURVE",
"458 44 OFFCURVE",
"423 113 OFFCURVE",
"414 200 OFFCURVE",
"414 244 QCURVE",
"264 244 LINE",
"264 168 LINE SMOOTH",
"264 133 OFFCURVE",
"237 72 OFFCURVE",
"191 26 OFFCURVE",
"129 0 OFFCURVE",
"95 0 QCURVE SMOOTH",
"19 0 LINE",
"19 187 LINE",
"20 187 LINE",
"20 187 OFFCURVE",
"20 187 QCURVE",
"22 187 LINE",
"22 187 OFFCURVE",
"23 187 QCURVE",
"25 187 LINE",
"26 187 OFFCURVE",
"26 187 QCURVE",
"27 187 LINE",
"27 187 OFFCURVE",
"28 187 QCURVE",
"30 187 LINE",
"31 187 OFFCURVE",
"31 187 QCURVE",
"32 187 LINE",
"32 187 OFFCURVE",
"33 187 QCURVE",
"41 187 LINE SMOOTH",
"51 187 OFFCURVE",
"67 194 OFFCURVE",
"76 210 OFFCURVE",
"76 225 QCURVE SMOOTH",
"76 488 LINE",
"19 488 LINE",
"19 675 LINE"
);
},
{
nodes = (
"414 431 LINE",
"414 488 LINE",
"264 488 LINE",
"264 431 LINE"
);
}
);
width = 677;
}
);
unicode = 0061;
},
{
glyphname = b;
layers = (
{
layerId = "604F039F-C4E4-4D5F-9F8C-06B1752D997F";
paths = (
{
nodes = (
"605 169 LINE SMOOTH",
"605 134 OFFCURVE",
"578 73 OFFCURVE",
"532 27 OFFCURVE",
"471 0 OFFCURVE",
"436 0 QCURVE SMOOTH",
"296 0 LINE",
"296 188 LINE",
"417 188 LINE",
"417 244 LINE",
"267 244 LINE",
"267 0 LINE",
"79 0 LINE",
"79 244 LINE",
"23 244 LINE",
"23 432 LINE",
"79 432 LINE",
"79 488 LINE",
"23 488 LINE",
"23 676 LINE",
"605 676 LINE"
);
},
{
nodes = (
"417 413 LINE",
"417 488 LINE",
"267 488 LINE",
"267 413 LINE"
);
}
);
width = 627;
}
);
unicode = 0062;
},
{
glyphname = c;
layers = (
{
layerId = "604F039F-C4E4-4D5F-9F8C-06B1752D997F";
paths = (
{
nodes = (
"601 432 LINE",
"413 432 LINE",
"413 489 LINE",
"263 489 LINE",
"263 357 LINE SMOOTH",
"263 308 OFFCURVE",
"295 245 OFFCURVE",
"348 208 OFFCURVE",
"418 191 OFFCURVE",
"482 187 OFFCURVE",
"509 187 QCURVE SMOOTH",
"520 187 OFFCURVE",
"568 188 OFFCURVE",
"601 188 QCURVE",
"601 0 LINE",
"432 0 LINE SMOOTH",
"358 0 OFFCURVE",
"228 56 OFFCURVE",
"131 153 OFFCURVE",
"75 283 OFFCURVE",
"75 357 QCURVE SMOOTH",
"75 470 LINE",
"19 470 LINE",
"19 676 LINE",
"601 676 LINE"
);
}
);
width = 625;
}
);
unicode = 0063;
},
{
glyphname = d;
layers = (
{
layerId = "604F039F-C4E4-4D5F-9F8C-06B1752D997F";
paths = (
{
nodes = (
"600 244 LINE SMOOTH",
"600 194 OFFCURVE",
"561 105 OFFCURVE",
"495 39 OFFCURVE",
"406 0 OFFCURVE",
"356 0 QCURVE SMOOTH",
"295 0 LINE",
"295 188 LINE",
"314 188 OFFCURVE",
"340 186 OFFCURVE",
"345 186 QCURVE SMOOTH",
"360 186 OFFCURVE",
"390 193 OFFCURVE",
"412 217 OFFCURVE",
"412 244 QCURVE SMOOTH",
"412 488 LINE",
"262 488 LINE",
"262 0 LINE",
"74 0 LINE",
"74 488 LINE",
"18 488 LINE",
"18 676 LINE",
"600 676 LINE"
);
}
);
width = 619;
}
);
unicode = 0064;
},
{
glyphname = e;
layers = (
{
layerId = "604F039F-C4E4-4D5F-9F8C-06B1752D997F";
paths = (
{
nodes = (
"19 244 LINE",
"19 431 LINE",
"75 431 LINE",
"75 488 LINE",
"19 488 LINE",
"19 675 LINE",
"601 675 LINE",
"601 488 LINE",
"263 488 LINE",
"263 413 LINE",
"488 413 LINE",
"488 244 LINE",
"263 244 LINE",
"263 243 OFFCURVE",
"263 242 QCURVE",
"263 187 OFFCURVE",
"319 187 QCURVE SMOOTH",
"601 187 LINE",
"601 0 LINE",
"319 0 LINE SMOOTH",
"269 0 OFFCURVE",
"180 39 OFFCURVE",
"114 105 OFFCURVE",
"75 194 OFFCURVE",
"75 244 QCURVE"
);
}
);
width = 620;
}
);
unicode = 0065;
},
{
glyphname = f;
layers = (
{
layerId = "604F039F-C4E4-4D5F-9F8C-06B1752D997F";
paths = (
{
nodes = (
"19 244 LINE",
"19 432 LINE",
"76 432 LINE",
"76 488 LINE",
"19 488 LINE",
"19 676 LINE",
"601 676 LINE",
"601 488 LINE",
"263 488 LINE",
"263 413 LINE",
"488 413 LINE",
"488 244 LINE",
"263 244 LINE",
"263 200 OFFCURVE",
"253 112 OFFCURVE",
"219 43 OFFCURVE",
"151 0 OFFCURVE",
"94 0 QCURVE SMOOTH",
"19 0 LINE",
"19 187 LINE",
"38 187 OFFCURVE",
"61 190 OFFCURVE",
"73 201 OFFCURVE",
"76 224 OFFCURVE",
"76 244 QCURVE"
);
}
);
width = 621;
}
);
unicode = 0066;
},
{
glyphname = g;
layers = (
{
layerId = "604F039F-C4E4-4D5F-9F8C-06B1752D997F";
paths = (
{
nodes = (
"601 413 LINE",
"601 0 LINE",
"432 0 LINE SMOOTH",
"358 0 OFFCURVE",
"228 56 OFFCURVE",
"131 153 OFFCURVE",
"75 283 OFFCURVE",
"75 357 QCURVE SMOOTH",
"75 470 LINE",
"19 470 LINE",
"19 676 LINE",
"601 676 LINE",
"601 451 LINE",
"413 451 LINE",
"413 488 LINE",
"263 488 LINE",
"263 357 LINE SMOOTH",
"263 325 OFFCURVE",
"286 267 OFFCURVE",
"326 222 OFFCURVE",
"381 193 OFFCURVE",
"413 189 QCURVE",
"413 244 LINE",
"357 244 LINE",
"357 413 LINE"
);
}
);
width = 620;
}
);
unicode = 0067;
},
{
glyphname = h;
layers = (
{
layerId = "604F039F-C4E4-4D5F-9F8C-06B1752D997F";
paths = (
{
nodes = (
"657 188 LINE",
"657 0 LINE",
"582 0 LINE SMOOTH",
"547 0 OFFCURVE",
"486 27 OFFCURVE",
"440 73 OFFCURVE",
"413 134 OFFCURVE",
"413 169 QCURVE SMOOTH",
"413 244 LINE",
"262 244 LINE",
"262 0 LINE",
"75 0 LINE",
"75 244 LINE",
"18 244 LINE",
"18 432 LINE",
"75 432 LINE",
"75 676 LINE",
"262 676 LINE",
"262 432 LINE",
"413 432 LINE",
"413 676 LINE",
"600 676 LINE",
"600 225 LINE SMOOTH",
"600 210 OFFCURVE",
"609 195 OFFCURVE",
"625 188 OFFCURVE",
"636 188 QCURVE",
"637 188 LINE",
"638 188 OFFCURVE",
"639 188 QCURVE",
"640 188 LINE",
"641 188 OFFCURVE",
"641 188 QCURVE",
"642 188 LINE",
"642 188 OFFCURVE",
"642 188 QCURVE",
"644 188 LINE",
"644 188 OFFCURVE",
"645 188 QCURVE",
"646 188 OFFCURVE",
"646 188 QCURVE",
"654 188 LINE",
"654 188 OFFCURVE",
"654 188 QCURVE"
);
}
);
width = 673;
}
);
unicode = 0068;
},
{
glyphname = i;
layers = (
{
layerId = "604F039F-C4E4-4D5F-9F8C-06B1752D997F";
paths = (
{
nodes = (
"265 676 LINE",
"265 169 LINE SMOOTH",
"265 134 OFFCURVE",
"238 73 OFFCURVE",
"192 27 OFFCURVE",
"131 0 OFFCURVE",
"96 0 QCURVE SMOOTH",
"21 0 LINE",
"21 188 LINE",
"32 188 OFFCURVE",
"53 189 OFFCURVE",
"68 195 OFFCURVE",
"77 210 OFFCURVE",
"77 225 QCURVE SMOOTH",
"77 676 LINE"
);
}
);
width = 285;
}
);
unicode = 0069;
},
{
glyphname = j;
layers = (
{
layerId = "604F039F-C4E4-4D5F-9F8C-06B1752D997F";
paths = (
{
nodes = (
"342 675 LINE",
"342 300 LINE SMOOTH",
"342 232 OFFCURVE",
"292 121 OFFCURVE",
"205 43 OFFCURVE",
"89 0 OFFCURVE",
"23 0 QCURVE",
"23 187 LINE",
"49 187 OFFCURVE",
"97 200 OFFCURVE",
"133 228 OFFCURVE",
"154 271 OFFCURVE",
"154 300 QCURVE SMOOTH",
"154 488 LINE",
"23 488 LINE",
"23 675 LINE"
);
}
);
width = 363;
}
);
unicode = 006A;
},
{
glyphname = k;
layers = (
{
layerId = "604F039F-C4E4-4D5F-9F8C-06B1752D997F";
paths = (
{
nodes = (
"547 676 LINE",
"524 643 OFFCURVE",
"463 551 OFFCURVE",
"408 449 OFFCURVE",
"370 347 OFFCURVE",
"370 305 QCURVE SMOOTH",
"370 267 OFFCURVE",
"403 222 OFFCURVE",
"454 196 OFFCURVE",
"517 188 OFFCURVE",
"547 188 QCURVE",
"547 0 LINE",
"494 0 OFFCURVE",
"393 18 OFFCURVE",
"305 60 OFFCURVE",
"233 128 OFFCURVE",
"209 179 QCURVE",
"209 0 LINE",
"21 0 LINE",
"21 676 LINE",
"209 676 LINE",
"209 451 LINE",
"228 511 OFFCURVE",
"289 623 OFFCURVE",
"322 676 QCURVE"
);
}
);
width = 566;
}
);
unicode = 006B;
},
{
glyphname = l;
layers = (
{
layerId = "604F039F-C4E4-4D5F-9F8C-06B1752D997F";
paths = (
{
nodes = (
"601 169 LINE SMOOTH",
"601 134 OFFCURVE",
"574 73 OFFCURVE",
"528 27 OFFCURVE",
"467 0 OFFCURVE",
"432 0 QCURVE SMOOTH",
"19 0 LINE",
"19 188 LINE",
"75 188 LINE",
"75 676 LINE",
"263 676 LINE",
"263 188 LINE",
"375 188 LINE SMOOTH",
"390 188 OFFCURVE",
"406 197 OFFCURVE",
"412 212 OFFCURVE",
"413 232 OFFCURVE",
"413 244 QCURVE",
"601 244 LINE"
);
}
);
width = 620;
}
);
unicode = 006C;
},
{
glyphname = m;
layers = (
{
layerId = "604F039F-C4E4-4D5F-9F8C-06B1752D997F";
paths = (
{
nodes = (
"771 676 LINE",
"771 488 LINE",
"715 488 LINE",
"715 225 LINE SMOOTH",
"715 210 OFFCURVE",
"724 195 OFFCURVE",
"739 188 OFFCURVE",
"750 188 QCURVE",
"751 188 LINE",
"752 188 OFFCURVE",
"753 188 QCURVE",
"754 188 LINE",
"755 188 OFFCURVE",
"755 188 QCURVE",
"756 188 LINE",
"756 188 OFFCURVE",
"756 188 QCURVE",
"758 188 LINE",
"758 188 OFFCURVE",
"759 188 QCURVE",
"760 188 OFFCURVE",
"760 188 QCURVE",
"768 188 LINE",
"768 188 OFFCURVE",
"768 188 QCURVE",
"771 188 LINE",
"771 0 LINE",
"715 0 LINE SMOOTH",
"653 0 OFFCURVE",
"578 37 OFFCURVE",
"539 103 OFFCURVE",
"527 192 OFFCURVE",
"527 244 QCURVE SMOOTH",
"527 488 LINE",
"490 488 LINE",
"490 244 LINE",
"302 244 LINE",
"302 488 LINE",
"264 488 LINE",
"264 244 LINE SMOOTH",
"264 184 OFFCURVE",
"250 93 OFFCURVE",
"206 31 OFFCURVE",
"125 0 OFFCURVE",
"58 0 QCURVE SMOOTH",
"20 0 LINE",
"20 188 LINE",
"22 188 LINE",
"23 188 OFFCURVE",
"24 188 QCURVE",
"25 188 LINE",
"25 188 OFFCURVE",
"26 188 QCURVE",
"27 188 LINE",
"27 188 OFFCURVE",
"27 188 QCURVE",
"29 188 LINE",
"29 188 OFFCURVE",
"29 188 QCURVE",
"30 188 LINE",
"30 188 OFFCURVE",
"31 188 QCURVE",
"38 188 LINE",
"39 188 OFFCURVE",
"39 188 QCURVE",
"42 188 LINE SMOOTH",
"52 188 OFFCURVE",
"68 195 OFFCURVE",
"77 210 OFFCURVE",
"77 225 QCURVE SMOOTH",
"77 488 LINE",
"20 488 LINE",
"20 676 LINE",
"302 676 LINE",
"302 713 LINE",
"490 713 LINE",
"490 676 LINE"
);
}
);
width = 791;
}
);
unicode = 006D;
},
{
glyphname = n;
layers = (
{
layerId = "604F039F-C4E4-4D5F-9F8C-06B1752D997F";
paths = (
{
nodes = (
"619 0 LINE",
"544 0 LINE SMOOTH",
"509 0 OFFCURVE",
"448 27 OFFCURVE",
"402 73 OFFCURVE",
"375 134 OFFCURVE",
"375 169 QCURVE SMOOTH",
"375 488 LINE",
"310 481 OFFCURVE",
"242 445 OFFCURVE",
"210 385 OFFCURVE",
"206 299 OFFCURVE",
"206 244 QCURVE SMOOTH",
"206 0 LINE",
"18 0 LINE",
"18 676 LINE",
"206 676 LINE",
"206 640 LINE",
"251 660 OFFCURVE",
"338 676 OFFCURVE",
"387 676 QCURVE SMOOTH",
"563 676 LINE",
"563 225 LINE SMOOTH",
"563 210 OFFCURVE",
"572 195 OFFCURVE",
"587 189 OFFCURVE",
"608 188 OFFCURVE",
"619 188 QCURVE"
);
}
);
width = 636;
}
);
unicode = 006E;
},
{
glyphname = o;
layers = (
{
layerId = "604F039F-C4E4-4D5F-9F8C-06B1752D997F";
paths = (
{
nodes = (
"361 188 LINE",
"361 488 LINE",
"211 488 LINE",
"211 188 LINE"
);
},
{
nodes = (
"549 0 LINE",
"23 0 LINE",
"23 676 LINE",
"549 676 LINE"
);
}
);
width = 570;
}
);
unicode = 006F;
},
{
glyphname = p;
layers = (
{
layerId = "604F039F-C4E4-4D5F-9F8C-06B1752D997F";
paths = (
{
nodes = (
"601 413 LINE SMOOTH",
"601 364 OFFCURVE",
"569 301 OFFCURVE",
"516 263 OFFCURVE",
"446 247 OFFCURVE",
"382 243 OFFCURVE",
"355 243 QCURVE SMOOTH",
"344 243 OFFCURVE",
"295 244 OFFCURVE",
"263 244 QCURVE",
"263 0 LINE",
"75 0 LINE",
"75 244 LINE",
"19 244 LINE",
"19 432 LINE",
"75 432 LINE",
"75 488 LINE",
"19 488 LINE",
"19 676 LINE",
"601 676 LINE"
);
},
{
nodes = (
"413 413 LINE",
"413 488 LINE",
"263 488 LINE",
"263 413 LINE"
);
}
);
width = 621;
}
);
unicode = 0070;
},
{
glyphname = q;
layers = (
{
layerId = "604F039F-C4E4-4D5F-9F8C-06B1752D997F";
paths = (
{
nodes = (
"359 188 LINE",
"359 488 LINE",
"209 488 LINE",
"209 188 LINE"
);
},
{
nodes = (
"546 0 LINE",
"378 0 LINE",
"378 -56 LINE",
"190 -56 LINE",
"190 0 LINE",
"21 0 LINE",
"21 676 LINE",
"546 676 LINE"
);
}
);
width = 568;
}
);
unicode = 0071;
},
{
glyphname = r;
layers = (
{
layerId = "604F039F-C4E4-4D5F-9F8C-06B1752D997F";
paths = (
{
nodes = (
"599 0 LINE",
"540 0 OFFCURVE",
"434 31 OFFCURVE",
"350 92 OFFCURVE",
"293 183 OFFCURVE",
"283 244 QCURVE",
"261 244 LINE",
"261 0 LINE",
"73 0 LINE",
"73 244 LINE",
"17 244 LINE",
"17 432 LINE",
"73 432 LINE",
"73 489 LINE",
"17 489 LINE",
"17 676 LINE",
"599 676 LINE",
"599 413 LINE SMOOTH",
"599 382 OFFCURVE",
"577 326 OFFCURVE",
"539 281 OFFCURVE",
"487 251 OFFCURVE",
"456 247 QCURVE",
"464 224 OFFCURVE",
"494 194 OFFCURVE",
"533 176 OFFCURVE",
"577 169 OFFCURVE",
"599 169 QCURVE"
);
},
{
nodes = (
"411 413 LINE",
"411 489 LINE",
"261 489 LINE",
"261 413 LINE"
);
}
);
width = 617;
}
);
unicode = 0072;
},
{
glyphname = s;
layers = (
{
layerId = "604F039F-C4E4-4D5F-9F8C-06B1752D997F";
paths = (
{
nodes = (
"20 244 LINE",
"20 432 LINE SMOOTH",
"20 482 OFFCURVE",
"59 571 OFFCURVE",
"125 637 OFFCURVE",
"214 676 OFFCURVE",
"264 676 QCURVE SMOOTH",
"546 676 LINE",
"546 489 LINE",
"358 489 LINE SMOOTH",
"326 489 OFFCURVE",
"289 492 OFFCURVE",
"280 492 QCURVE SMOOTH",
"264 492 OFFCURVE",
"231 485 OFFCURVE",
"208 452 OFFCURVE",
"208 413 QCURVE",
"546 413 LINE",
"546 244 LINE SMOOTH",
"546 194 OFFCURVE",
"507 105 OFFCURVE",
"441 39 OFFCURVE",
"352 0 OFFCURVE",
"302 0 QCURVE SMOOTH",
"20 0 LINE",
"20 188 LINE",
"264 188 LINE SMOOTH",
"281 188 OFFCURVE",
"300 187 OFFCURVE",
"301 187 QCURVE",
"316 187 OFFCURVE",
"342 196 OFFCURVE",
"358 220 OFFCURVE",
"358 244 QCURVE"
);
}
);
width = 561;
}
);
unicode = 0073;
},
{
glyphname = t;
layers = (
{
layerId = "604F039F-C4E4-4D5F-9F8C-06B1752D997F";
paths = (
{
nodes = (
"375 226 LINE SMOOTH",
"375 211 OFFCURVE",
"384 195 OFFCURVE",
"399 188 OFFCURVE",
"409 188 QCURVE",
"411 188 LINE",
"412 188 OFFCURVE",
"413 188 QCURVE",
"414 188 OFFCURVE",
"415 188 QCURVE",
"416 188 OFFCURVE",
"416 188 QCURVE",
"417 188 LINE",
"418 188 OFFCURVE",
"418 188 QCURVE",
"419 188 LINE",
"419 188 OFFCURVE",
"419 188 QCURVE",
"427 188 LINE",
"428 188 OFFCURVE",
"428 188 QCURVE",
"431 188 LINE",
"431 0 LINE",
"356 0 LINE SMOOTH",
"321 0 OFFCURVE",
"260 27 OFFCURVE",
"214 73 OFFCURVE",
"187 134 OFFCURVE",
"187 169 QCURVE SMOOTH",
"187 488 LINE",
"18 488 LINE",
"18 676 LINE",
"543 676 LINE",
"543 488 LINE",
"375 488 LINE"
);
}
);
width = 561;
}
);
unicode = 0074;
},
{
glyphname = u;
layers = (
{
layerId = "604F039F-C4E4-4D5F-9F8C-06B1752D997F";
paths = (
{
nodes = (
"601 0 LINE",
"432 0 LINE SMOOTH",
"358 0 OFFCURVE",
"228 56 OFFCURVE",
"131 153 OFFCURVE",
"75 283 OFFCURVE",
"75 357 QCURVE SMOOTH",
"75 469 LINE",
"19 469 LINE",
"19 676 LINE",
"263 676 LINE",
"263 485 LINE",
"263 484 OFFCURVE",
"263 482 QCURVE",
"263 463 LINE",
"263 461 OFFCURVE",
"263 460 QCURVE",
"263 445 LINE",
"263 444 OFFCURVE",
"263 442 QCURVE",
"263 393 LINE SMOOTH",
"263 343 OFFCURVE",
"288 257 OFFCURVE",
"350 196 OFFCURVE",
"413 189 QCURVE",
"413 676 LINE",
"601 676 LINE"
);
}
);
width = 622;
}
);
unicode = 0075;
},
{
glyphname = v;
layers = (
{
layerId = "604F039F-C4E4-4D5F-9F8C-06B1752D997F";
paths = (
{
nodes = (
"616 676 LINE",
"616 488 LINE",
"604 488 OFFCURVE",
"584 487 OFFCURVE",
"569 481 OFFCURVE",
"560 465 OFFCURVE",
"560 450 QCURVE SMOOTH",
"560 0 LINE",
"372 0 LINE",
"5 676 LINE",
"198 676 LINE",
"372 354 LINE",
"372 386 OFFCURVE",
"371 428 OFFCURVE",
"371 433 QCURVE SMOOTH",
"371 464 OFFCURVE",
"377 531 OFFCURVE",
"394 596 OFFCURVE",
"432 646 OFFCURVE",
"494 676 OFFCURVE",
"541 676 QCURVE SMOOTH"
);
}
);
width = 634;
}
);
unicode = 0076;
},
{
glyphname = w;
layers = (
{
layerId = "604F039F-C4E4-4D5F-9F8C-06B1752D997F";
paths = (
{
nodes = (
"771 676 LINE",
"771 488 LINE",
"770 488 LINE",
"769 488 OFFCURVE",
"767 488 QCURVE",
"765 488 LINE",
"765 488 OFFCURVE",
"764 488 QCURVE",
"762 488 LINE",
"762 488 OFFCURVE",
"762 488 QCURVE",
"761 488 LINE",
"761 488 OFFCURVE",
"760 488 QCURVE",
"758 488 LINE",
"757 488 OFFCURVE",
"757 488 QCURVE",
"752 488 LINE",
"752 488 OFFCURVE",
"752 488 QCURVE",
"750 488 LINE",
"739 488 OFFCURVE",
"724 481 OFFCURVE",
"715 466 OFFCURVE",
"715 451 QCURVE SMOOTH",
"715 188 LINE",
"771 188 LINE",
"771 0 LINE",
"489 0 LINE",
"489 -38 LINE",
"301 -38 LINE",
"301 0 LINE",
"20 0 LINE",
"20 188 LINE",
"76 188 LINE",
"76 451 LINE SMOOTH",
"76 466 OFFCURVE",
"67 481 OFFCURVE",
"52 488 OFFCURVE",
"42 488 QCURVE",
"41 488 LINE",
"39 488 OFFCURVE",
"38 488 QCURVE",
"36 488 LINE",
"35 488 OFFCURVE",
"35 488 QCURVE",
"33 488 LINE",
"33 488 OFFCURVE",
"32 488 QCURVE",
"31 488 OFFCURVE",
"31 488 QCURVE",
"28 488 LINE",
"28 488 OFFCURVE",
"28 488 QCURVE",
"23 488 LINE",
"23 488 OFFCURVE",
"22 488 QCURVE",
"20 488 LINE",
"20 676 LINE",
"76 676 LINE SMOOTH",
"138 676 OFFCURVE",
"213 639 OFFCURVE",
"252 573 OFFCURVE",
"264 484 OFFCURVE",
"264 432 QCURVE SMOOTH",
"264 188 LINE",
"301 188 LINE",
"301 432 LINE",
"489 432 LINE",
"489 188 LINE",
"527 188 LINE",
"527 432 LINE SMOOTH",
"527 492 OFFCURVE",
"542 583 OFFCURVE",
"586 644 OFFCURVE",
"667 676 OFFCURVE",
"733 676 QCURVE SMOOTH"
);
}
);
width = 789;
}
);
unicode = 0077;
},
{
glyphname = x;
layers = (
{
layerId = "604F039F-C4E4-4D5F-9F8C-06B1752D997F";
paths = (
{
nodes = (
"575 676 LINE",
"575 488 LINE",
"538 488 OFFCURVE",
"494 486 OFFCURVE",
"466 476 OFFCURVE",
"450 458 OFFCURVE",
"433 424 OFFCURVE",
"411 374 OFFCURVE",
"391 338 QCURVE",
"575 0 LINE",
"387 0 LINE",
"297 167 LINE",
"278 132 OFFCURVE",
"246 71 OFFCURVE",
"205 26 OFFCURVE",
"149 0 OFFCURVE",
"106 0 QCURVE SMOOTH",
"20 0 LINE",
"20 188 LINE",
"57 188 OFFCURVE",
"102 189 OFFCURVE",
"129 197 OFFCURVE",
"145 215 OFFCURVE",
"161 249 OFFCURVE",
"183 300 OFFCURVE",
"204 338 QCURVE",
"20 676 LINE",
"208 676 LINE",
"298 511 LINE",
"316 544 OFFCURVE",
"348 604 OFFCURVE",
"389 649 OFFCURVE",
"446 676 OFFCURVE",
"489 676 QCURVE SMOOTH"
);
}
);
width = 592;
}
);
unicode = 0078;
},
{
glyphname = y;
layers = (
{
layerId = "604F039F-C4E4-4D5F-9F8C-06B1752D997F";
paths = (
{
nodes = (
"600 413 LINE",
"600 244 LINE",
"544 244 LINE",
"544 194 OFFCURVE",
"505 105 OFFCURVE",
"439 39 OFFCURVE",
"350 0 OFFCURVE",
"300 0 QCURVE SMOOTH",
"131 0 LINE",
"131 188 LINE",
"300 188 LINE SMOOTH",
"356 188 OFFCURVE",
"356 242 QCURVE",
"356 243 OFFCURVE",
"356 244 QCURVE",
"329 244 OFFCURVE",
"258 239 OFFCURVE",
"183 239 OFFCURVE",
"110 249 OFFCURVE",
"53 277 OFFCURVE",
"18 328 OFFCURVE",
"18 370 QCURVE SMOOTH",
"18 676 LINE",
"206 676 LINE",
"206 413 LINE",
"356 413 LINE",
"356 676 LINE",
"544 676 LINE",
"544 413 LINE"
);
}
);
width = 617;
}
);
unicode = 0079;
},
{
glyphname = z;
layers = (
{
layerId = "604F039F-C4E4-4D5F-9F8C-06B1752D997F";
paths = (
{
nodes = (
"618 169 LINE SMOOTH",
"618 134 OFFCURVE",
"591 73 OFFCURVE",
"545 27 OFFCURVE",
"484 0 OFFCURVE",
"449 0 QCURVE SMOOTH",
"17 0 LINE",
"309 488 LINE",
"242 488 LINE SMOOTH",
"227 488 OFFCURVE",
"212 479 OFFCURVE",
"205 463 OFFCURVE",
"205 453 QCURVE",
"205 451 LINE",
"205 450 OFFCURVE",
"205 450 QCURVE",
"205 448 LINE",
"205 448 OFFCURVE",
"205 447 QCURVE",
"205 446 OFFCURVE",
"205 446 QCURVE",
"205 445 LINE",
"205 445 OFFCURVE",
"205 445 QCURVE",
"205 443 LINE",
"205 442 OFFCURVE",
"205 442 QCURVE",
"205 431 LINE",
"17 431 LINE",
"17 507 LINE SMOOTH",
"17 542 OFFCURVE",
"44 603 OFFCURVE",
"90 649 OFFCURVE",
"151 676 OFFCURVE",
"186 676 QCURVE SMOOTH",
"618 676 LINE",
"326 187 LINE",
"393 187 LINE SMOOTH",
"408 187 OFFCURVE",
"423 196 OFFCURVE",
"430 212 OFFCURVE",
"430 223 QCURVE",
"430 223 OFFCURVE",
"430 224 QCURVE",
"430 225 OFFCURVE",
"430 225 QCURVE",
"430 227 LINE",
"430 228 OFFCURVE",
"430 229 QCURVE",
"430 231 LINE",
"430 231 OFFCURVE",
"430 232 QCURVE",
"430 233 OFFCURVE",
"430 233 QCURVE",
"430 239 LINE",
"430 239 OFFCURVE",
"430 240 QCURVE",
"430 241 LINE",
"430 241 OFFCURVE",
"430 241 QCURVE",
"430 244 LINE",
"618 244 LINE"
);
}
);
width = 634;
}
);
unicode = 007A;
},
{
glyphname = braceleft;
layers = (
{
layerId = "604F039F-C4E4-4D5F-9F8C-06B1752D997F";
paths = (
{
nodes = (
"338 96 LINE SMOOTH",
"338 67 OFFCURVE",
"359 24 OFFCURVE",
"395 -4 OFFCURVE",
"443 -17 OFFCURVE",
"469 -17 QCURVE",
"469 -204 LINE",
"403 -204 OFFCURVE",
"287 -161 OFFCURVE",
"200 -83 OFFCURVE",
"150 28 OFFCURVE",
"150 96 QCURVE SMOOTH",
"150 128 LINE SMOOTH",
"150 157 OFFCURVE",
"129 200 OFFCURVE",
"93 228 OFFCURVE",
"69 234 QCURVE",
"49 240 OFFCURVE",
"28 241 QCURVE",
"19 241 LINE",
"19 428 LINE",
"30 428 LINE",
"50 429 OFFCURVE",
"69 434 QCURVE SMOOTH",
"93 441 OFFCURVE",
"129 469 OFFCURVE",
"150 512 OFFCURVE",
"150 541 QCURVE SMOOTH",
"150 576 LINE SMOOTH",
"150 644 OFFCURVE",
"200 755 OFFCURVE",
"287 833 OFFCURVE",
"403 876 OFFCURVE",
"469 876 QCURVE",
"469 689 LINE",
"443 689 OFFCURVE",
"395 676 OFFCURVE",
"359 648 OFFCURVE",
"338 605 OFFCURVE",
"338 576 QCURVE SMOOTH",
"338 541 LINE SMOOTH",
"338 473 OFFCURVE",
"313 417 QCURVE SMOOTH",
"292 370 OFFCURVE",
"257 334 QCURVE",
"292 299 OFFCURVE",
"313 251 QCURVE SMOOTH",
"338 196 OFFCURVE",
"338 128 QCURVE SMOOTH"
);
}
);
width = 493;
}
);
unicode = 007B;
},
{
glyphname = bar;
layers = (
{
layerId = "604F039F-C4E4-4D5F-9F8C-06B1752D997F";
paths = (
{
nodes = (
"23 809 LINE",
"188 809 LINE",
"188 -151 LINE",
"23 -151 LINE"
);
}
);
width = 210;
}
);
unicode = 007C;
},
{
glyphname = asciitilde;
layers = (
{
layerId = "604F039F-C4E4-4D5F-9F8C-06B1752D997F";
paths = (
{
nodes = (
"21 312 LINE",
"41 363 LINE",
"55 402 OFFCURVE",
"122 444 OFFCURVE",
"165 442 QCURVE",
"190 442 OFFCURVE",
"247 424 OFFCURVE",
"305 403 OFFCURVE",
"361 385 OFFCURVE",
"385 383 QCURVE SMOOTH",
"395 382 OFFCURVE",
"399 387 OFFCURVE",
"401 392 QCURVE",
"400 391 LINE",
"417 442 LINE",
"521 404 LINE",
"503 354 LINE SMOOTH",
"488 314 OFFCURVE",
"424 272 OFFCURVE",
"378 274 QCURVE SMOOTH",
"349 276 OFFCURVE",
"285 296 OFFCURVE",
"252 308 QCURVE",
"253 307 LINE",
"232 314 LINE SMOOTH",
"211 321 OFFCURVE",
"173 331 OFFCURVE",
"159 333 QCURVE SMOOTH",
"150 334 OFFCURVE",
"146 333 OFFCURVE",
"145 331 QCURVE SMOOTH",
"123 274 LINE"
);
}
);
width = 542;
}
);
unicode = 007E;
},
{
glyphname = exclamdown;
layers = (
{
layerId = "604F039F-C4E4-4D5F-9F8C-06B1752D997F";
paths = (
{
nodes = (
"72 488 LINE",
"72 676 LINE",
"260 676 LINE",
"260 488 LINE"
);
},
{
nodes = (
"16 0 LINE",
"16 188 LINE",
"28 188 OFFCURVE",
"48 189 OFFCURVE",
"63 195 OFFCURVE",
"72 211 OFFCURVE",
"72 226 QCURVE SMOOTH",
"72 432 LINE",
"260 432 LINE",
"260 169 LINE SMOOTH",
"260 134 OFFCURVE",
"233 73 OFFCURVE",
"187 27 OFFCURVE",
"126 0 OFFCURVE",
"91 0 QCURVE SMOOTH"
);
}
);
width = 273;
}
);
unicode = 00A1;
},
{
glyphname = cent;
layers = (
{
layerId = "604F039F-C4E4-4D5F-9F8C-06B1752D997F";
paths = (
{
nodes = (
"154 676 LINE",
"280 676 LINE",
"280 542 LINE",
"411 542 LINE",
"411 378 LINE",
"285 378 LINE",
"285 416 LINE",
"184 416 LINE",
"184 368 LINE SMOOTH",
"184 335 OFFCURVE",
"206 293 OFFCURVE",
"241 268 OFFCURVE",
"288 257 OFFCURVE",
"331 254 OFFCURVE",
"347 254 QCURVE SMOOTH",
"356 254 OFFCURVE",
"389 255 OFFCURVE",
"411 255 QCURVE",
"411 128 LINE",
"298 128 LINE SMOOTH",
"289 128 OFFCURVE",
"280 129 QCURVE",
"280 0 LINE",
"154 0 LINE",
"154 176 LINE",
"140 186 OFFCURVE",
"128 198 QCURVE SMOOTH",
"95 231 OFFCURVE",
"58 318 OFFCURVE",
"58 368 QCURVE SMOOTH",
"58 403 LINE",
"20 403 LINE",
"20 542 LINE",
"154 542 LINE"
);
}
);
width = 428;
}
);
unicode = 00A2;
},
{
glyphname = sterling;
layers = (
{
layerId = "604F039F-C4E4-4D5F-9F8C-06B1752D997F";
paths = (
{
nodes = (
"435 676 LINE",
"435 523 LINE",
"318 523 LINE",
"301 522 OFFCURVE",
"285 518 QCURVE SMOOTH",
"265 513 OFFCURVE",
"236 490 OFFCURVE",
"219 455 OFFCURVE",
"219 431 QCURVE SMOOTH",
"219 331 LINE",
"365 331 LINE",
"365 217 LINE",
"219 217 LINE",
"219 153 LINE",
"399 153 LINE SMOOTH",
"411 153 OFFCURVE",
"424 160 OFFCURVE",
"429 172 OFFCURVE",
"430 189 OFFCURVE",
"430 198 QCURVE",
"583 198 LINE",
"583 137 LINE SMOOTH",
"583 109 OFFCURVE",
"561 59 OFFCURVE",
"524 22 OFFCURVE",
"474 0 OFFCURVE",
"446 0 QCURVE SMOOTH",
"21 0 LINE",
"21 153 LINE",
"66 153 LINE",
"66 217 LINE",
"18 217 LINE",
"18 331 LINE",
"66 331 LINE",
"66 431 LINE SMOOTH",
"66 487 OFFCURVE",
"107 577 OFFCURVE",
"178 640 OFFCURVE",
"225 657 QCURVE SMOOTH",
"269 673 OFFCURVE",
"318 675 QCURVE"
);
}
);
width = 597;
}
);
unicode = 00A3;
},
{
glyphname = currency;
layers = (
{
layerId = "604F039F-C4E4-4D5F-9F8C-06B1752D997F";
paths = (
{
nodes = (
"325 158 LINE",
"302 148 OFFCURVE",
"277 148 QCURVE SMOOTH",
"254 148 OFFCURVE",
"231 158 QCURVE",
"94 38 LINE",
"14 94 LINE",
"120 265 LINE",
"116 279 OFFCURVE",
"112 304 OFFCURVE",
"112 318 QCURVE SMOOTH",
"112 336 OFFCURVE",
"120 368 OFFCURVE",
"126 384 QCURVE",
"14 566 LINE",
"94 623 LINE",
"252 482 LINE",
"259 484 OFFCURVE",
"271 485 OFFCURVE",
"277 485 QCURVE SMOOTH",
"284 485 OFFCURVE",
"297 484 OFFCURVE",
"305 482 QCURVE",
"463 623 LINE",
"542 566 LINE",
"431 384 LINE",
"437 368 OFFCURVE",
"445 336 OFFCURVE",
"445 318 QCURVE SMOOTH",
"445 304 OFFCURVE",
"440 279 OFFCURVE",
"437 265 QCURVE",
"542 94 LINE",
"463 38 LINE"
);
},
{
nodes = (
"215 291 OFFCURVE",
"251 253 OFFCURVE",
"277 252 QCURVE",
"304 252 OFFCURVE",
"341 291 OFFCURVE",
"341 318 QCURVE SMOOTH",
"341 344 OFFCURVE",
"304 380 OFFCURVE",
"277 381 QCURVE",
"251 379 OFFCURVE",
"215 342 OFFCURVE",
"215 318 QCURVE SMOOTH"
);
}
);
width = 560;
}
);
unicode = 00A4;
},
{
glyphname = yen;
layers = (
{
layerId = "604F039F-C4E4-4D5F-9F8C-06B1752D997F";
paths = (
{
nodes = (
"296 0 LINE",
"155 0 LINE",
"155 343 LINE",
"150 343 OFFCURVE",
"95 350 OFFCURVE",
"52 371 OFFCURVE",
"26 409 OFFCURVE",
"26 441 QCURVE SMOOTH",
"26 676 LINE",
"168 676 LINE",
"168 472 LINE",
"291 472 LINE",
"291 676 LINE",
"433 676 LINE",
"433 441 LINE SMOOTH",
"433 409 OFFCURVE",
"407 371 OFFCURVE",
"364 350 OFFCURVE",
"310 343 OFFCURVE",
"296 343 QCURVE"
);
},
{
nodes = (
"416 154 LINE",
"416 41 LINE",
"45 41 LINE",
"45 154 LINE"
);
},
{
nodes = (
"416 308 LINE",
"416 193 LINE",
"45 193 LINE",
"45 308 LINE"
);
}
);
width = 458;
}
);
unicode = 00A5;
},
{
glyphname = section;
layers = (
{
layerId = "604F039F-C4E4-4D5F-9F8C-06B1752D997F";
paths = (
{
nodes = (
"29 90 LINE",
"159 90 LINE",
"159 82 OFFCURVE",
"160 68 OFFCURVE",
"164 59 OFFCURVE",
"175 53 OFFCURVE",
"185 53 QCURVE SMOOTH",
"277 53 LINE",
"277 51 LINE",
"322 51 LINE",
"326 52 OFFCURVE",
"338 56 OFFCURVE",
"350 62 OFFCURVE",
"358 72 OFFCURVE",
"358 79 QCURVE SMOOTH",
"358 99 OFFCURVE",
"351 113 OFFCURVE",
"348 115 QCURVE SMOOTH",
"67 278 LINE",
"61 286 LINE SMOOTH",
"52 298 OFFCURVE",
"34 337 OFFCURVE",
"30 370 OFFCURVE",
"30 379 QCURVE SMOOTH",
"30 395 OFFCURVE",
"38 439 OFFCURVE",
"56 468 QCURVE",
"47 482 OFFCURVE",
"21 539 OFFCURVE",
"21 582 QCURVE SMOOTH",
"21 622 OFFCURVE",
"53 679 OFFCURVE",
"98 715 OFFCURVE",
"148 734 OFFCURVE",
"167 737 QCURVE",
"354 737 LINE SMOOTH",
"378 737 OFFCURVE",
"421 719 OFFCURVE",
"452 689 OFFCURVE",
"471 648 OFFCURVE",
"471 626 QCURVE SMOOTH",
"471 576 LINE",
"341 576 LINE",
"341 584 OFFCURVE",
"340 598 OFFCURVE",
"336 607 OFFCURVE",
"325 613 OFFCURVE",
"315 613 QCURVE SMOOTH",
"230 613 LINE",
"230 612 LINE",
"184 612 LINE",
"180 611 OFFCURVE",
"167 608 OFFCURVE",
"155 601 OFFCURVE",
"146 590 OFFCURVE",
"146 582 QCURVE SMOOTH",
"146 564 OFFCURVE",
"155 551 OFFCURVE",
"156 549 QCURVE",
"161 547 LINE",
"445 378 LINE",
"455 366 OFFCURVE",
"473 327 OFFCURVE",
"477 293 OFFCURVE",
"477 284 QCURVE SMOOTH",
"477 268 OFFCURVE",
"469 223 OFFCURVE",
"450 194 QCURVE",
"459 181 OFFCURVE",
"483 124 OFFCURVE",
"483 79 QCURVE SMOOTH",
"483 40 OFFCURVE",
"452 -15 OFFCURVE",
"407 -52 OFFCURVE",
"358 -72 OFFCURVE",
"339 -75 QCURVE",
"146 -75 LINE SMOOTH",
"122 -75 OFFCURVE",
"79 -57 OFFCURVE",
"48 -23 OFFCURVE",
"29 18 OFFCURVE",
"29 40 QCURVE SMOOTH"
);
},
{
nodes = (
"342 262 LINE",
"347 270 OFFCURVE",
"352 287 OFFCURVE",
"352 291 QCURVE SMOOTH",
"352 294 LINE",
"162 404 LINE",
"157 394 OFFCURVE",
"154 379 OFFCURVE",
"154 376 QCURVE SMOOTH",
"154 373 OFFCURVE",
"155 371 QCURVE"
);
}
);
width = 498;
}
);
unicode = 00A7;
},
{
glyphname = dieresis;
layers = (
{
layerId = "604F039F-C4E4-4D5F-9F8C-06B1752D997F";
paths = (
{
nodes = (
"48 838 OFFCURVE",
"94 882 OFFCURVE",
"127 882 QCURVE SMOOTH",
"160 882 OFFCURVE",
"206 838 OFFCURVE",
"206 808 QCURVE SMOOTH",
"206 778 OFFCURVE",
"160 736 OFFCURVE",
"127 736 QCURVE SMOOTH",
"94 736 OFFCURVE",
"48 778 OFFCURVE",
"48 808 QCURVE SMOOTH"
);
},
{
nodes = (
"291 838 OFFCURVE",
"337 882 OFFCURVE",
"370 882 QCURVE SMOOTH",
"403 882 OFFCURVE",
"449 838 OFFCURVE",
"449 808 QCURVE SMOOTH",
"449 778 OFFCURVE",
"403 736 OFFCURVE",
"370 736 QCURVE SMOOTH",
"337 736 OFFCURVE",
"291 778 OFFCURVE",
"291 808 QCURVE SMOOTH"
);
}
);
width = 488;
}
);
unicode = 00A8;
},
{
glyphname = copyright;
layers = (
{
layerId = "604F039F-C4E4-4D5F-9F8C-06B1752D997F";
paths = (
{
nodes = (
"192 228 OFFCURVE",
"111 263 OFFCURVE",
"49 324 OFFCURVE",
"14 406 OFFCURVE",
"14 453 QCURVE SMOOTH",
"14 499 OFFCURVE",
"49 580 OFFCURVE",
"111 641 OFFCURVE",
"192 676 OFFCURVE",
"239 676 QCURVE SMOOTH",
"285 676 OFFCURVE",
"367 641 OFFCURVE",
"428 580 OFFCURVE",
"463 499 OFFCURVE",
"463 453 QCURVE SMOOTH",
"463 406 OFFCURVE",
"428 324 OFFCURVE",
"367 263 OFFCURVE",
"285 228 OFFCURVE",
"239 228 QCURVE SMOOTH"
);
},
{
nodes = (
"203 625 OFFCURVE",
"139 598 OFFCURVE",
"92 551 OFFCURVE",
"65 488 OFFCURVE",
"65 453 QCURVE SMOOTH",
"65 416 OFFCURVE",
"92 353 OFFCURVE",
"139 306 OFFCURVE",
"203 279 OFFCURVE",
"239 279 QCURVE SMOOTH",
"274 279 OFFCURVE",
"337 306 OFFCURVE",
"384 353 OFFCURVE",
"411 416 OFFCURVE",
"411 453 QCURVE SMOOTH",
"411 488 OFFCURVE",
"384 551 OFFCURVE",
"337 598 OFFCURVE",
"274 625 OFFCURVE",
"239 625 QCURVE SMOOTH"
);
},
{
nodes = (
"208 537 OFFCURVE",
"160 490 OFFCURVE",
"160 455 QCURVE SMOOTH",
"160 420 OFFCURVE",
"208 372 OFFCURVE",
"243 372 QCURVE SMOOTH",
"260 372 OFFCURVE",
"275 378 QCURVE SMOOTH",
"281 381 OFFCURVE",
"293 389 OFFCURVE",
"298 394 QCURVE",
"338 368 LINE",
"336 362 LINE",
"299 325 OFFCURVE",
"243 325 QCURVE SMOOTH",
"216 325 OFFCURVE",
"169 345 OFFCURVE",
"133 380 OFFCURVE",
"113 428 OFFCURVE",
"113 455 QCURVE SMOOTH",
"113 482 OFFCURVE",
"133 529 OFFCURVE",
"169 564 OFFCURVE",
"216 584 OFFCURVE",
"243 584 QCURVE SMOOTH",
"297 584 OFFCURVE",
"335 546 QCURVE",
"345 534 LINE",
"306 507 LINE",
"301 513 LINE",
"290 524 OFFCURVE",
"261 537 OFFCURVE",
"243 537 QCURVE SMOOTH"
);
}
);
width = 484;
}
);
unicode = 00A9;
},
{
glyphname = ordfeminine;
layers = (
{
layerId = "604F039F-C4E4-4D5F-9F8C-06B1752D997F";
paths = (
{
nodes = (
"272 425 LINE SMOOTH",
"272 411 OFFCURVE",
"261 385 OFFCURVE",
"242 366 OFFCURVE",
"217 355 OFFCURVE",
"202 355 QCURVE SMOOTH",
"91 355 LINE SMOOTH",
"76 355 OFFCURVE",
"51 366 OFFCURVE",
"32 385 OFFCURVE",
"21 411 OFFCURVE",
"21 425 QCURVE SMOOTH",
"21 497 LINE SMOOTH",
"21 511 OFFCURVE",
"32 536 OFFCURVE",
"51 556 OFFCURVE",
"76 567 OFFCURVE",
"91 567 QCURVE SMOOTH",
"194 567 LINE",
"194 598 LINE",
"21 598 LINE",
"21 675 LINE",
"202 675 LINE SMOOTH",
"217 675 OFFCURVE",
"242 664 OFFCURVE",
"261 645 OFFCURVE",
"272 620 OFFCURVE",
"272 605 QCURVE SMOOTH"
);
},
{
nodes = (
"99 433 LINE",
"194 433 LINE",
"194 489 LINE",
"99 489 LINE"
);
}
);
width = 300;
}
);
unicode = 00AA;
},
{
glyphname = uni00AD;
layers = (
{
layerId = "604F039F-C4E4-4D5F-9F8C-06B1752D997F";
paths = (
{
nodes = (
"397 421 LINE",
"397 267 LINE",
"15 267 LINE",
"15 421 LINE"
);
}
);
width = 412;
}
);
unicode = 00AD;
},
{
glyphname = registered;
layers = (
{
layerId = "604F039F-C4E4-4D5F-9F8C-06B1752D997F";
paths = (
{
nodes = (
"191 249 OFFCURVE",
"113 282 OFFCURVE",
"54 341 OFFCURVE",
"21 419 OFFCURVE",
"21 464 QCURVE SMOOTH",
"21 507 OFFCURVE",
"54 585 OFFCURVE",
"113 642 OFFCURVE",
"191 676 OFFCURVE",
"236 676 QCURVE SMOOTH",
"279 676 OFFCURVE",
"357 642 OFFCURVE",
"414 585 OFFCURVE",
"448 507 OFFCURVE",
"448 464 QCURVE SMOOTH",
"448 419 OFFCURVE",
"414 341 OFFCURVE",
"357 282 OFFCURVE",
"279 249 OFFCURVE",
"236 249 QCURVE SMOOTH"
);
},
{
nodes = (
"199 641 OFFCURVE",
"133 613 OFFCURVE",
"84 564 OFFCURVE",
"56 500 OFFCURVE",
"56 464 QCURVE SMOOTH",
"56 427 OFFCURVE",
"84 361 OFFCURVE",
"133 312 OFFCURVE",
"199 284 OFFCURVE",
"236 284 QCURVE SMOOTH",
"272 284 OFFCURVE",
"336 312 OFFCURVE",
"385 361 OFFCURVE",
"413 427 OFFCURVE",
"413 464 QCURVE SMOOTH",
"413 500 OFFCURVE",
"385 564 OFFCURVE",
"336 613 OFFCURVE",
"272 641 OFFCURVE",
"236 641 QCURVE SMOOTH"
);
},
{
nodes = (
"335 335 LINE",
"295 337 OFFCURVE",
"238 386 OFFCURVE",
"230 432 QCURVE",
"200 432 LINE",
"200 335 LINE",
"147 335 LINE",
"147 432 LINE",
"124 432 LINE",
"124 486 LINE",
"147 486 LINE",
"147 530 LINE",
"124 530 LINE",
"124 583 LINE",
"335 583 LINE",
"335 489 LINE SMOOTH",
"335 469 OFFCURVE",
"300 435 OFFCURVE",
"274 433 QCURVE",
"282 404 OFFCURVE",
"317 382 OFFCURVE",
"335 380 QCURVE"
);
},
{
nodes = (
"282 478 LINE",
"282 530 LINE",
"200 530 LINE",
"200 478 LINE"
);
}
);
width = 472;
}
);
unicode = 00AE;
},
{
glyphname = macron;
layers = (
{
layerId = "604F039F-C4E4-4D5F-9F8C-06B1752D997F";
paths = (
{
nodes = (
"424 900 LINE",
"424 746 LINE",
"45 746 LINE",
"45 900 LINE"
);
}
);
width = 469;
}
);
unicode = 00AF;
},
{
glyphname = degree;
layers = (
{
layerId = "604F039F-C4E4-4D5F-9F8C-06B1752D997F";
paths = (
{
nodes = (
"112 430 OFFCURVE",
"68 450 OFFCURVE",
"35 483 OFFCURVE",
"16 528 OFFCURVE",
"16 554 QCURVE SMOOTH",
"16 579 OFFCURVE",
"35 624 OFFCURVE",
"68 657 OFFCURVE",
"112 676 OFFCURVE",
"138 676 QCURVE SMOOTH",
"163 676 OFFCURVE",
"208 657 OFFCURVE",
"242 624 OFFCURVE",
"262 579 OFFCURVE",
"262 554 QCURVE SMOOTH",
"262 528 OFFCURVE",
"242 483 OFFCURVE",
"208 450 OFFCURVE",
"163 430 OFFCURVE",
"138 430 QCURVE SMOOTH"
);
},
{
nodes = (
"118 601 OFFCURVE",
"91 573 OFFCURVE",
"91 554 QCURVE SMOOTH",
"91 534 OFFCURVE",
"118 506 OFFCURVE",
"138 506 QCURVE SMOOTH",
"158 506 OFFCURVE",
"186 534 OFFCURVE",
"186 554 QCURVE SMOOTH",
"186 573 OFFCURVE",
"158 601 OFFCURVE",
"138 601 QCURVE SMOOTH"
);
}
);
width = 286;
}
);
unicode = 00B0;
},
{
glyphname = plusminus;
layers = (
{
layerId = "604F039F-C4E4-4D5F-9F8C-06B1752D997F";
paths = (
{
nodes = (
"363 214 LINE",
"363 96 LINE",
"36 96 LINE",
"36 214 LINE"
);
},
{
nodes = (
"142 599 LINE",
"259 599 LINE",
"259 496 LINE",
"363 496 LINE",
"363 378 LINE",
"259 378 LINE",
"259 272 LINE",
"142 272 LINE",
"142 378 LINE",
"36 378 LINE",
"36 496 LINE",
"142 496 LINE"
);
}
);
width = 389;
}
);
unicode = 00B1;
},
{
glyphname = acute;
layers = (
{
layerId = "604F039F-C4E4-4D5F-9F8C-06B1752D997F";
paths = (
{
nodes = (
"152 915 LINE",
"301 915 LINE",
"207 743 LINE",
"76 743 LINE"
);
}
);
width = 335;
}
);
unicode = 00B4;
},
{
glyphname = paragraph;
layers = (
{
layerId = "604F039F-C4E4-4D5F-9F8C-06B1752D997F";
paths = (
{
nodes = (
"638 675 LINE",
"638 571 LINE",
"575 571 LINE",
"575 0 LINE",
"454 0 LINE",
"454 571 LINE",
"367 571 LINE",
"367 0 LINE",
"250 0 LINE",
"250 344 LINE",
"183 344 LINE SMOOTH",
"151 344 OFFCURVE",
"93 370 OFFCURVE",
"50 415 OFFCURVE",
"25 475 OFFCURVE",
"25 509 QCURVE SMOOTH",
"25 545 OFFCURVE",
"50 605 OFFCURVE",
"93 650 OFFCURVE",
"151 676 OFFCURVE",
"183 676 QCURVE"
);
}
);
width = 661;
}
);
unicode = 00B6;
},
{
glyphname = periodcentered;
layers = (
{
layerId = "604F039F-C4E4-4D5F-9F8C-06B1752D997F";
paths = (
{
nodes = (
"18 451 OFFCURVE",
"71 505 OFFCURVE",
"109 505 QCURVE SMOOTH",
"147 505 OFFCURVE",
"200 451 OFFCURVE",
"200 413 QCURVE SMOOTH",
"200 375 OFFCURVE",
"147 323 OFFCURVE",
"109 323 QCURVE SMOOTH",
"71 323 OFFCURVE",
"18 375 OFFCURVE",
"18 413 QCURVE SMOOTH"
);
}
);
width = 214;
}
);
unicode = 00B7;
},
{
glyphname = cedilla;
layers = (
{
layerId = "604F039F-C4E4-4D5F-9F8C-06B1752D997F";
paths = (
{
nodes = (
"191 33 LINE",
"170 -54 LINE",
"180 -56 LINE",
"196 -60 OFFCURVE",
"228 -72 OFFCURVE",
"241 -81 QCURVE",
"252 -91 OFFCURVE",
"268 -117 OFFCURVE",
"268 -128 QCURVE SMOOTH",
"268 -147 OFFCURVE",
"232 -180 OFFCURVE",
"186 -188 QCURVE",
"187 -188 LINE",
"177 -190 OFFCURVE",
"46 -214 QCURVE",
"61 -167 LINE",
"124 -145 OFFCURVE",
"155 -132 OFFCURVE",
"155 -123 QCURVE SMOOTH",
"155 -115 OFFCURVE",
"130 -101 OFFCURVE",
"104 -91 OFFCURVE",
"76 -85 OFFCURVE",
"66 -84 QCURVE",
"97 33 LINE"
);
}
);
width = 299;
}
);
unicode = 00B8;
},
{
glyphname = ordmasculine;
layers = (
{
layerId = "604F039F-C4E4-4D5F-9F8C-06B1752D997F";
paths = (
{
nodes = (
"89 355 LINE SMOOTH",
"74 355 OFFCURVE",
"49 366 OFFCURVE",
"30 385 OFFCURVE",
"19 411 OFFCURVE",
"19 425 QCURVE SMOOTH",
"19 605 LINE SMOOTH",
"19 620 OFFCURVE",
"30 645 OFFCURVE",
"49 664 OFFCURVE",
"74 675 OFFCURVE",
"89 675 QCURVE SMOOTH",
"204 675 LINE SMOOTH",
"219 675 OFFCURVE",
"244 664 OFFCURVE",
"263 645 OFFCURVE",
"274 620 OFFCURVE",
"274 605 QCURVE SMOOTH",
"274 425 LINE SMOOTH",
"274 411 OFFCURVE",
"263 385 OFFCURVE",
"244 366 OFFCURVE",
"219 355 OFFCURVE",
"204 355 QCURVE SMOOTH"
);
},
{
nodes = (
"97 598 LINE",
"97 433 LINE",
"197 433 LINE",
"197 598 LINE"
);
}
);
width = 291;
}
);
unicode = 00BA;
},
{
glyphname = guillemotright;
layers = (
{
layerId = "604F039F-C4E4-4D5F-9F8C-06B1752D997F";
paths = (
{
nodes = (
"396 299 LINE",
"208 142 LINE",
"19 142 LINE",
"267 349 LINE",
"238 373 OFFCURVE",
"174 427 OFFCURVE",
"109 481 OFFCURVE",
"45 534 OFFCURVE",
"17 557 QCURVE",
"206 557 LINE",
"396 399 LINE"
);
},
{
nodes = (
"657 299 LINE",
"468 142 LINE",
"279 142 LINE",
"526 349 LINE",
"497 373 OFFCURVE",
"434 427 OFFCURVE",
"370 481 OFFCURVE",
"307 534 OFFCURVE",
"279 557 QCURVE",
"468 557 LINE",
"657 399 LINE"
);
}
);
width = 675;
}
);
unicode = 00BB;
},
{
glyphname = questiondown;
layers = (
{
layerId = "604F039F-C4E4-4D5F-9F8C-06B1752D997F";
paths = (
{
nodes = (
"162 488 LINE",
"162 676 LINE",
"350 676 LINE",
"350 488 LINE"
);
},
{
nodes = (
"12 306 LINE SMOOTH",
"12 332 OFFCURVE",
"32 378 OFFCURVE",
"66 412 OFFCURVE",
"111 432 OFFCURVE",
"137 432 QCURVE SMOOTH",
"350 432 LINE",
"350 263 LINE",
"199 263 LINE",
"199 188 LINE",
"537 188 LINE",
"537 0 LINE",
"12 0 LINE"
);
}
);
width = 549;
}
);
unicode = 00BF;
},
{
glyphname = Acircumflex;
layers = (
{
layerId = "604F039F-C4E4-4D5F-9F8C-06B1752D997F";
paths = (
{
nodes = (
"344 942 LINE",
"558 818 LINE",
"505 733 LINE",
"342 794 LINE",
"180 733 LINE",
"127 818 LINE"
);
},
{
nodes = (
"245 675 LINE",
"245 713 LINE",
"433 713 LINE",
"433 675 LINE",
"658 675 LINE",
"658 488 LINE",
"601 488 LINE",
"601 225 LINE SMOOTH",
"601 210 OFFCURVE",
"610 194 OFFCURVE",
"626 187 OFFCURVE",
"636 187 QCURVE SMOOTH",
"658 187 LINE",
"658 0 LINE",
"583 0 LINE SMOOTH",
"525 0 OFFCURVE",
"458 44 OFFCURVE",
"423 113 OFFCURVE",
"414 200 OFFCURVE",
"414 244 QCURVE",
"264 244 LINE",
"264 168 LINE SMOOTH",
"264 133 OFFCURVE",
"237 72 OFFCURVE",
"191 26 OFFCURVE",
"129 0 OFFCURVE",
"95 0 QCURVE SMOOTH",
"19 0 LINE",
"19 187 LINE",
"41 187 LINE SMOOTH",
"51 187 OFFCURVE",
"67 194 OFFCURVE",
"76 210 OFFCURVE",
"76 225 QCURVE SMOOTH",
"76 488 LINE",
"19 488 LINE",
"19 675 LINE"
);
},
{
nodes = (
"414 431 LINE",
"414 488 LINE",
"264 488 LINE",
"264 431 LINE"
);
}
);
width = 677;
}
);
unicode = 00C2;
},
{
glyphname = Aring;
layers = (
{
layerId = "604F039F-C4E4-4D5F-9F8C-06B1752D997F";
paths = (
{
nodes = (
"358 972 OFFCURVE",
"399 954 OFFCURVE",
"429 922 OFFCURVE",
"447 881 OFFCURVE",
"447 857 QCURVE SMOOTH",
"447 833 OFFCURVE",
"429 792 OFFCURVE",
"399 760 OFFCURVE",
"358 742 OFFCURVE",
"335 742 QCURVE SMOOTH",
"311 742 OFFCURVE",
"270 760 OFFCURVE",
"240 792 OFFCURVE",
"222 833 OFFCURVE",
"222 857 QCURVE SMOOTH",
"222 881 OFFCURVE",
"240 922 OFFCURVE",
"270 954 OFFCURVE",
"311 972 OFFCURVE",
"335 972 QCURVE SMOOTH"
);
},
{
nodes = (
"347 826 OFFCURVE",
"365 844 OFFCURVE",
"365 857 QCURVE SMOOTH",
"365 870 OFFCURVE",
"347 888 OFFCURVE",
"335 888 QCURVE SMOOTH",
"321 888 OFFCURVE",
"303 870 OFFCURVE",
"303 857 QCURVE SMOOTH",
"303 844 OFFCURVE",
"321 826 OFFCURVE",
"335 826 QCURVE SMOOTH"
);
},
{
nodes = (
"245 675 LINE",
"245 713 LINE",
"433 713 LINE",
"433 675 LINE",
"658 675 LINE",
"658 488 LINE",
"601 488 LINE",
"601 225 LINE SMOOTH",
"601 210 OFFCURVE",
"610 194 OFFCURVE",
"626 187 OFFCURVE",
"636 187 QCURVE",
"637 187 LINE",
"637 187 OFFCURVE",
"637 187 QCURVE",
"638 187 LINE",
"639 187 OFFCURVE",
"640 187 QCURVE",
"641 187 LINE",
"642 187 OFFCURVE",
"642 187 QCURVE",
"643 187 LINE",
"643 187 OFFCURVE",
"644 187 QCURVE",
"646 187 LINE",
"646 187 OFFCURVE",
"647 187 QCURVE",
"648 187 LINE",
"648 187 OFFCURVE",
"649 187 QCURVE",
"658 187 LINE",
"658 0 LINE",
"583 0 LINE SMOOTH",
"525 0 OFFCURVE",
"458 44 OFFCURVE",
"423 113 OFFCURVE",
"414 200 OFFCURVE",
"414 244 QCURVE",
"264 244 LINE",
"264 168 LINE SMOOTH",
"264 133 OFFCURVE",
"237 72 OFFCURVE",
"191 26 OFFCURVE",
"129 0 OFFCURVE",
"95 0 QCURVE SMOOTH",
"19 0 LINE",
"19 187 LINE",
"20 187 LINE",
"20 187 OFFCURVE",
"20 187 QCURVE",
"22 187 LINE",
"22 187 OFFCURVE",
"23 187 QCURVE",
"25 187 LINE",
"26 187 OFFCURVE",
"26 187 QCURVE",
"27 187 LINE",
"27 187 OFFCURVE",
"28 187 QCURVE",
"30 187 LINE",
"31 187 OFFCURVE",
"31 187 QCURVE",
"32 187 LINE",
"32 187 OFFCURVE",
"33 187 QCURVE",
"41 187 LINE SMOOTH",
"51 187 OFFCURVE",
"67 194 OFFCURVE",
"76 210 OFFCURVE",
"76 225 QCURVE SMOOTH",
"76 488 LINE",
"19 488 LINE",
"19 675 LINE"
);
},
{
nodes = (
"414 431 LINE",
"414 488 LINE",
"264 488 LINE",
"264 431 LINE"
);
}
);
width = 677;
}
);
unicode = 00C5;
},
{
glyphname = AE;
layers = (
{
layerId = "604F039F-C4E4-4D5F-9F8C-06B1752D997F";
paths = (
{
nodes = (
"607 488 LINE",
"607 413 LINE",
"832 413 LINE",
"832 244 LINE",
"607 244 LINE",
"607 225 LINE SMOOTH",
"607 205 OFFCURVE",
"622 190 OFFCURVE",
"633 188 QCURVE SMOOTH",
"640 187 OFFCURVE",
"648 187 QCURVE",
"648 187 OFFCURVE",
"648 187 QCURVE",
"649 187 LINE",
"650 187 OFFCURVE",
"650 187 QCURVE",
"651 187 LINE",
"652 187 OFFCURVE",
"653 187 QCURVE",
"653 187 OFFCURVE",
"653 187 QCURVE",
"655 187 LINE",
"655 187 OFFCURVE",
"656 187 QCURVE",
"656 187 OFFCURVE",
"657 187 QCURVE",
"945 187 LINE",
"945 0 LINE",
"589 0 LINE SMOOTH",
"535 0 OFFCURVE",
"470 38 OFFCURVE",
"434 100 OFFCURVE",
"422 179 OFFCURVE",
"421 220 QCURVE",
"420 226 OFFCURVE",
"419 238 OFFCURVE",
"419 244 QCURVE",
"270 244 LINE",
"270 168 LINE SMOOTH",
"270 133 OFFCURVE",
"243 72 OFFCURVE",
"197 26 OFFCURVE",
"135 0 OFFCURVE",
"101 0 QCURVE SMOOTH",
"25 0 LINE",
"25 187 LINE",
"26 187 LINE",
"26 187 OFFCURVE",
"26 187 QCURVE",
"28 187 LINE",
"28 187 OFFCURVE",
"29 187 QCURVE",
"31 187 LINE",
"32 187 OFFCURVE",
"32 187 QCURVE",
"33 187 LINE",
"33 187 OFFCURVE",
"34 187 QCURVE",
"36 187 LINE",
"37 187 OFFCURVE",
"37 187 QCURVE",
"38 187 LINE",
"38 187 OFFCURVE",
"39 187 QCURVE",
"47 187 LINE SMOOTH",
"57 187 OFFCURVE",
"73 194 OFFCURVE",
"82 210 OFFCURVE",
"82 225 QCURVE SMOOTH",
"82 488 LINE",
"25 488 LINE",
"25 675 LINE",
"251 675 LINE",
"251 713 LINE",
"439 713 LINE",
"439 675 LINE",
"945 675 LINE",
"945 488 LINE"
);
},
{
nodes = (
"419 431 LINE",
"419 488 LINE",
"270 488 LINE",
"270 431 LINE"
);
}
);
width = 968;
}
);
unicode = 00C6;
},
{
glyphname = Ecircumflex;
layers = (
{
layerId = "604F039F-C4E4-4D5F-9F8C-06B1752D997F";
paths = (
{
nodes = (
"311 942 LINE",
"525 818 LINE",
"472 733 LINE",
"309 794 LINE",
"147 733 LINE",
"94 818 LINE"
);
},
{
nodes = (
"19 244 LINE",
"19 431 LINE",
"75 431 LINE",
"75 488 LINE",
"19 488 LINE",
"19 675 LINE",
"601 675 LINE",
"601 488 LINE",
"263 488 LINE",
"263 413 LINE",
"488 413 LINE",
"488 244 LINE",
"263 244 LINE",
"263 243 OFFCURVE",
"263 242 QCURVE",
"263 187 OFFCURVE",
"319 187 QCURVE SMOOTH",
"601 187 LINE",
"601 0 LINE",
"319 0 LINE SMOOTH",
"269 0 OFFCURVE",
"180 39 OFFCURVE",
"114 105 OFFCURVE",
"75 194 OFFCURVE",
"75 244 QCURVE"
);
}
);
width = 620;
}
);
unicode = 00CA;
},
{
glyphname = Icircumflex;
layers = (
{
layerId = "604F039F-C4E4-4D5F-9F8C-06B1752D997F";
paths = (
{
nodes = (
"186 942 LINE",
"400 818 LINE",
"347 733 LINE",
"184 794 LINE",
"22 733 LINE",
"-31 818 LINE"
);
},
{
nodes = (
"265 676 LINE",
"265 169 LINE SMOOTH",
"265 134 OFFCURVE",
"238 73 OFFCURVE",
"192 27 OFFCURVE",
"131 0 OFFCURVE",
"96 0 QCURVE SMOOTH",
"21 0 LINE",
"21 188 LINE",
"32 188 OFFCURVE",
"53 189 OFFCURVE",
"68 195 OFFCURVE",
"77 210 OFFCURVE",
"77 225 QCURVE SMOOTH",
"77 676 LINE"
);
}
);
width = 285;
}
);
unicode = 00CE;
},
{
glyphname = Idieresis;
layers = (
{
layerId = "604F039F-C4E4-4D5F-9F8C-06B1752D997F";
paths = (
{
nodes = (
"205 865 OFFCURVE",
"258 919 OFFCURVE",
"296 919 QCURVE SMOOTH",
"334 919 OFFCURVE",
"387 865 OFFCURVE",
"387 827 QCURVE SMOOTH",
"387 789 OFFCURVE",
"334 737 OFFCURVE",
"296 737 QCURVE SMOOTH",
"258 737 OFFCURVE",
"205 789 OFFCURVE",
"205 827 QCURVE SMOOTH"
);
},
{
nodes = (
"-59 865 OFFCURVE",
"-6 919 OFFCURVE",
"32 919 QCURVE SMOOTH",
"70 919 OFFCURVE",
"123 865 OFFCURVE",
"123 827 QCURVE SMOOTH",
"123 789 OFFCURVE",
"70 737 OFFCURVE",
"32 737 QCURVE SMOOTH",
"-6 737 OFFCURVE",
"-59 789 OFFCURVE",
"-59 827 QCURVE SMOOTH"
);
},
{
nodes = (
"265 676 LINE",
"265 169 LINE SMOOTH",
"265 134 OFFCURVE",
"238 73 OFFCURVE",
"192 27 OFFCURVE",
"131 0 OFFCURVE",
"96 0 QCURVE SMOOTH",
"21 0 LINE",
"21 188 LINE",
"32 188 OFFCURVE",
"53 189 OFFCURVE",
"68 195 OFFCURVE",
"77 210 OFFCURVE",
"77 225 QCURVE SMOOTH",
"77 676 LINE"
);
}
);
width = 285;
}
);
unicode = 00CF;
},
{
glyphname = Eth;
layers = (
{
layerId = "604F039F-C4E4-4D5F-9F8C-06B1752D997F";
paths = (
{
nodes = (
"355 403 LINE",
"355 262 LINE",
"262 262 LINE",
"262 0 LINE",
"74 0 LINE",
"74 262 LINE",
"15 262 LINE",
"15 403 LINE",
"74 403 LINE",
"74 488 LINE",
"18 488 LINE",
"18 676 LINE",
"600 676 LINE",
"600 244 LINE SMOOTH",
"600 194 OFFCURVE",
"561 105 OFFCURVE",
"495 39 OFFCURVE",
"406 0 OFFCURVE",
"356 0 QCURVE SMOOTH",
"295 0 LINE",
"295 188 LINE",
"314 188 OFFCURVE",
"340 186 OFFCURVE",
"345 186 QCURVE SMOOTH",
"360 186 OFFCURVE",
"390 193 OFFCURVE",
"412 217 OFFCURVE",
"412 244 QCURVE SMOOTH",
"412 488 LINE",
"262 488 LINE",
"262 403 LINE"
);
}
);
width = 619;
}
);
unicode = 00D0;
},
{
glyphname = Ocircumflex;
layers = (
{
layerId = "604F039F-C4E4-4D5F-9F8C-06B1752D997F";
paths = (
{
nodes = (
"361 188 LINE",
"361 488 LINE",
"211 488 LINE",
"211 188 LINE"
);
},
{
nodes = (
"549 0 LINE",
"23 0 LINE",
"23 676 LINE",
"549 676 LINE"
);
},
{
nodes = (
"281 942 LINE",
"495 818 LINE",
"442 733 LINE",
"279 794 LINE",
"117 733 LINE",
"64 818 LINE"
);
}
);
width = 570;
}
);
unicode = 00D4;
},
{
glyphname = multiply;
layers = (
{
layerId = "604F039F-C4E4-4D5F-9F8C-06B1752D997F";
paths = (
{
nodes = (
"129 113 LINE",
"20 222 LINE",
"153 355 LINE",
"19 489 LINE",
"128 598 LINE",
"262 464 LINE",
"395 597 LINE",
"504 488 LINE",
"371 355 LINE",
"503 224 LINE",
"394 115 LINE",
"262 246 LINE"
);
}
);
width = 517;
}
);
unicode = 00D7;
},
{
glyphname = Thorn;
layers = (
{
layerId = "604F039F-C4E4-4D5F-9F8C-06B1752D997F";
paths = (
{
nodes = (
"208 676 LINE",
"208 584 LINE",
"414 584 LINE SMOOTH",
"451 584 OFFCURVE",
"516 556 OFFCURVE",
"564 508 OFFCURVE",
"592 443 OFFCURVE",
"592 406 QCURVE SMOOTH",
"592 275 LINE SMOOTH",
"592 238 OFFCURVE",
"564 173 OFFCURVE",
"516 125 OFFCURVE",
"451 98 OFFCURVE",
"414 98 QCURVE SMOOTH",
"208 98 LINE",
"208 1 LINE",
"20 1 LINE",
"20 676 LINE"
);
},
{
nodes = (
"403 422 LINE SMOOTH",
"403 428 OFFCURVE",
"401 436 QCURVE",
"393 450 OFFCURVE",
"353 453 OFFCURVE",
"337 453 QCURVE SMOOTH",
"330 453 OFFCURVE",
"322 453 QCURVE SMOOTH",
"208 453 LINE",
"208 224 LINE",
"321 224 LINE SMOOTH",
"328 224 OFFCURVE",
"334 224 QCURVE SMOOTH",
"351 224 OFFCURVE",
"390 228 OFFCURVE",
"400 238 QCURVE",
"401 241 OFFCURVE",
"403 249 OFFCURVE",
"403 255 QCURVE SMOOTH"
);
}
);
width = 617;
}
);
unicode = 00DE;
},
{
glyphname = acircumflex;
layers = (
{
layerId = "604F039F-C4E4-4D5F-9F8C-06B1752D997F";
paths = (
{
nodes = (
"344 942 LINE",
"558 818 LINE",
"505 733 LINE",
"342 794 LINE",
"180 733 LINE",
"127 818 LINE"
);
},
{
nodes = (
"245 675 LINE",
"245 713 LINE",
"433 713 LINE",
"433 675 LINE",
"658 675 LINE",
"658 488 LINE",
"601 488 LINE",
"601 225 LINE SMOOTH",
"601 210 OFFCURVE",
"610 194 OFFCURVE",
"626 187 OFFCURVE",
"636 187 QCURVE SMOOTH",
"658 187 LINE",
"658 0 LINE",
"583 0 LINE SMOOTH",
"525 0 OFFCURVE",
"458 44 OFFCURVE",
"423 113 OFFCURVE",
"414 200 OFFCURVE",
"414 244 QCURVE",
"264 244 LINE",
"264 168 LINE SMOOTH",
"264 133 OFFCURVE",
"237 72 OFFCURVE",
"191 26 OFFCURVE",
"129 0 OFFCURVE",
"95 0 QCURVE SMOOTH",
"19 0 LINE",
"19 187 LINE",
"41 187 LINE SMOOTH",
"51 187 OFFCURVE",
"67 194 OFFCURVE",
"76 210 OFFCURVE",
"76 225 QCURVE SMOOTH",
"76 488 LINE",
"19 488 LINE",
"19 675 LINE"
);
},
{
nodes = (
"414 431 LINE",
"414 488 LINE",
"264 488 LINE",
"264 431 LINE"
);
}
);
width = 677;
}
);
unicode = 00E2;
},
{
glyphname = aring;
layers = (
{
layerId = "604F039F-C4E4-4D5F-9F8C-06B1752D997F";
paths = (
{
nodes = (
"245 675 LINE",
"245 713 LINE",
"433 713 LINE",
"433 675 LINE",
"658 675 LINE",
"658 488 LINE",
"601 488 LINE",
"601 225 LINE SMOOTH",
"601 210 OFFCURVE",
"610 194 OFFCURVE",
"626 187 OFFCURVE",
"636 187 QCURVE",
"637 187 LINE",
"637 187 OFFCURVE",
"637 187 QCURVE",
"638 187 LINE",
"639 187 OFFCURVE",
"640 187 QCURVE",
"641 187 LINE",
"642 187 OFFCURVE",
"642 187 QCURVE",
"643 187 LINE",
"643 187 OFFCURVE",
"644 187 QCURVE",
"646 187 LINE",
"646 187 OFFCURVE",
"647 187 QCURVE",
"648 187 LINE",
"648 187 OFFCURVE",
"649 187 QCURVE",
"658 187 LINE",
"658 0 LINE",
"583 0 LINE SMOOTH",
"525 0 OFFCURVE",
"458 44 OFFCURVE",
"423 113 OFFCURVE",
"414 200 OFFCURVE",
"414 244 QCURVE",
"264 244 LINE",
"264 168 LINE SMOOTH",
"264 133 OFFCURVE",
"237 72 OFFCURVE",
"191 26 OFFCURVE",
"129 0 OFFCURVE",
"95 0 QCURVE SMOOTH",
"19 0 LINE",
"19 187 LINE",
"20 187 LINE",
"20 187 OFFCURVE",
"20 187 QCURVE",
"22 187 LINE",
"22 187 OFFCURVE",
"23 187 QCURVE",
"25 187 LINE",
"26 187 OFFCURVE",
"26 187 QCURVE",
"27 187 LINE",
"27 187 OFFCURVE",
"28 187 QCURVE",
"30 187 LINE",
"31 187 OFFCURVE",
"31 187 QCURVE",
"32 187 LINE",
"32 187 OFFCURVE",
"33 187 QCURVE",
"41 187 LINE SMOOTH",
"51 187 OFFCURVE",
"67 194 OFFCURVE",
"76 210 OFFCURVE",
"76 225 QCURVE SMOOTH",
"76 488 LINE",
"19 488 LINE",
"19 675 LINE"
);
},
{
nodes = (
"414 431 LINE",
"414 488 LINE",
"264 488 LINE",
"264 431 LINE"
);
},
{
nodes = (
"361 963 OFFCURVE",
"400 946 OFFCURVE",
"428 917 OFFCURVE",
"445 878 OFFCURVE",
"445 856 QCURVE SMOOTH",
"445 835 OFFCURVE",
"428 796 OFFCURVE",
"400 768 OFFCURVE",
"361 751 OFFCURVE",
"339 751 QCURVE SMOOTH",
"316 751 OFFCURVE",
"276 768 OFFCURVE",
"247 796 OFFCURVE",
"231 835 OFFCURVE",
"231 856 QCURVE SMOOTH",
"231 878 OFFCURVE",
"247 917 OFFCURVE",
"276 946 OFFCURVE",
"316 963 OFFCURVE",
"339 963 QCURVE SMOOTH"
);
},
{
nodes = (
"352 818 OFFCURVE",
"374 839 OFFCURVE",
"374 855 QCURVE SMOOTH",
"374 872 OFFCURVE",
"352 892 OFFCURVE",
"337 892 QCURVE SMOOTH",
"320 892 OFFCURVE",
"298 872 OFFCURVE",
"298 855 QCURVE SMOOTH",
"298 839 OFFCURVE",
"320 818 OFFCURVE",
"337 818 QCURVE SMOOTH"
);
}
);
width = 677;
}
);
unicode = 00E5;
},
{
glyphname = ae;
layers = (
{
layerId = "604F039F-C4E4-4D5F-9F8C-06B1752D997F";
paths = (
{
nodes = (
"607 488 LINE",
"607 413 LINE",
"832 413 LINE",
"832 244 LINE",
"607 244 LINE",
"607 225 LINE SMOOTH",
"607 205 OFFCURVE",
"622 190 OFFCURVE",
"633 188 QCURVE SMOOTH",
"640 187 OFFCURVE",
"648 187 QCURVE",
"648 187 OFFCURVE",
"648 187 QCURVE",
"649 187 LINE",
"650 187 OFFCURVE",
"650 187 QCURVE",
"651 187 LINE",
"652 187 OFFCURVE",
"653 187 QCURVE",
"653 187 OFFCURVE",
"653 187 QCURVE",
"655 187 LINE",
"655 187 OFFCURVE",
"656 187 QCURVE",
"656 187 OFFCURVE",
"657 187 QCURVE",
"945 187 LINE",
"945 0 LINE",
"589 0 LINE SMOOTH",
"535 0 OFFCURVE",
"470 38 OFFCURVE",
"434 100 OFFCURVE",
"422 179 OFFCURVE",
"421 220 QCURVE",
"420 226 OFFCURVE",
"419 238 OFFCURVE",
"419 244 QCURVE",
"270 244 LINE",
"270 168 LINE SMOOTH",
"270 133 OFFCURVE",
"243 72 OFFCURVE",
"197 26 OFFCURVE",
"135 0 OFFCURVE",
"101 0 QCURVE SMOOTH",
"25 0 LINE",
"25 187 LINE",
"26 187 LINE",
"26 187 OFFCURVE",
"26 187 QCURVE",
"28 187 LINE",
"28 187 OFFCURVE",
"29 187 QCURVE",
"31 187 LINE",
"32 187 OFFCURVE",
"32 187 QCURVE",
"33 187 LINE",
"33 187 OFFCURVE",
"34 187 QCURVE",
"36 187 LINE",
"37 187 OFFCURVE",
"37 187 QCURVE",
"38 187 LINE",
"38 187 OFFCURVE",
"39 187 QCURVE",
"47 187 LINE SMOOTH",
"57 187 OFFCURVE",
"73 194 OFFCURVE",
"82 210 OFFCURVE",
"82 225 QCURVE SMOOTH",
"82 488 LINE",
"25 488 LINE",
"25 675 LINE",
"251 675 LINE",
"251 713 LINE",
"439 713 LINE",
"439 675 LINE",
"945 675 LINE",
"945 488 LINE"
);
},
{
nodes = (
"419 431 LINE",
"419 488 LINE",
"270 488 LINE",
"270 431 LINE"
);
}
);
width = 968;
}
);
unicode = 00E6;
},
{
glyphname = ecircumflex;
layers = (
{
layerId = "604F039F-C4E4-4D5F-9F8C-06B1752D997F";
paths = (
{
nodes = (
"311 942 LINE",
"525 818 LINE",
"472 733 LINE",
"309 794 LINE",
"147 733 LINE",
"94 818 LINE"
);
},
{
nodes = (
"19 244 LINE",
"19 431 LINE",
"75 431 LINE",
"75 488 LINE",
"19 488 LINE",
"19 675 LINE",
"601 675 LINE",
"601 488 LINE",
"263 488 LINE",
"263 413 LINE",
"488 413 LINE",
"488 244 LINE",
"263 244 LINE",
"263 243 OFFCURVE",
"263 242 QCURVE",
"263 187 OFFCURVE",
"319 187 QCURVE SMOOTH",
"601 187 LINE",
"601 0 LINE",
"319 0 LINE SMOOTH",
"269 0 OFFCURVE",
"180 39 OFFCURVE",
"114 105 OFFCURVE",
"75 194 OFFCURVE",
"75 244 QCURVE"
);
}
);
width = 620;
}
);
unicode = 00EA;
},
{
glyphname = icircumflex;
layers = (
{
layerId = "604F039F-C4E4-4D5F-9F8C-06B1752D997F";
paths = (
{
nodes = (
"186 942 LINE",
"400 818 LINE",
"347 733 LINE",
"184 794 LINE",
"22 733 LINE",
"-31 818 LINE"
);
},
{
nodes = (
"265 676 LINE",
"265 169 LINE SMOOTH",
"265 134 OFFCURVE",
"238 73 OFFCURVE",
"192 27 OFFCURVE",
"131 0 OFFCURVE",
"96 0 QCURVE SMOOTH",
"21 0 LINE",
"21 188 LINE",
"32 188 OFFCURVE",
"53 189 OFFCURVE",
"68 195 OFFCURVE",
"77 210 OFFCURVE",
"77 225 QCURVE SMOOTH",
"77 676 LINE"
);
}
);
width = 285;
}
);
unicode = 00EE;
},
{
glyphname = idieresis;
layers = (
{
layerId = "604F039F-C4E4-4D5F-9F8C-06B1752D997F";
paths = (
{
nodes = (
"205 865 OFFCURVE",
"258 919 OFFCURVE",
"296 919 QCURVE SMOOTH",
"334 919 OFFCURVE",
"387 865 OFFCURVE",
"387 827 QCURVE SMOOTH",
"387 789 OFFCURVE",
"334 737 OFFCURVE",
"296 737 QCURVE SMOOTH",
"258 737 OFFCURVE",
"205 789 OFFCURVE",
"205 827 QCURVE SMOOTH"
);
},
{
nodes = (
"-59 865 OFFCURVE",
"-6 919 OFFCURVE",
"32 919 QCURVE SMOOTH",
"70 919 OFFCURVE",
"123 865 OFFCURVE",
"123 827 QCURVE SMOOTH",
"123 789 OFFCURVE",
"70 737 OFFCURVE",
"32 737 QCURVE SMOOTH",
"-6 737 OFFCURVE",
"-59 789 OFFCURVE",
"-59 827 QCURVE SMOOTH"
);
},
{
nodes = (
"265 676 LINE",
"265 169 LINE SMOOTH",
"265 134 OFFCURVE",
"238 73 OFFCURVE",
"192 27 OFFCURVE",
"131 0 OFFCURVE",
"96 0 QCURVE SMOOTH",
"21 0 LINE",
"21 188 LINE",
"32 188 OFFCURVE",
"53 189 OFFCURVE",
"68 195 OFFCURVE",
"77 210 OFFCURVE",
"77 225 QCURVE SMOOTH",
"77 676 LINE"
);
}
);
width = 285;
}
);
unicode = 00EF;
},
{
glyphname = eth;
layers = (
{
layerId = "604F039F-C4E4-4D5F-9F8C-06B1752D997F";
paths = (
{
nodes = (
"355 403 LINE",
"355 262 LINE",
"262 262 LINE",
"262 0 LINE",
"74 0 LINE",
"74 262 LINE",
"15 262 LINE",
"15 403 LINE",
"74 403 LINE",
"74 488 LINE",
"18 488 LINE",
"18 676 LINE",
"600 676 LINE",
"600 244 LINE SMOOTH",
"600 194 OFFCURVE",
"561 105 OFFCURVE",
"495 39 OFFCURVE",
"406 0 OFFCURVE",
"356 0 QCURVE SMOOTH",
"295 0 LINE",
"295 188 LINE",
"314 188 OFFCURVE",
"340 186 OFFCURVE",
"345 186 QCURVE SMOOTH",
"360 186 OFFCURVE",
"390 193 OFFCURVE",
"412 217 OFFCURVE",
"412 244 QCURVE SMOOTH",
"412 488 LINE",
"262 488 LINE",
"262 403 LINE"
);
}
);
width = 619;
}
);
unicode = 00F0;
},
{
glyphname = ocircumflex;
layers = (
{
layerId = "604F039F-C4E4-4D5F-9F8C-06B1752D997F";
paths = (
{
nodes = (
"361 188 LINE",
"361 488 LINE",
"211 488 LINE",
"211 188 LINE"
);
},
{
nodes = (
"549 0 LINE",
"23 0 LINE",
"23 676 LINE",
"549 676 LINE"
);
},
{
nodes = (
"281 942 LINE",
"495 818 LINE",
"442 733 LINE",
"279 794 LINE",
"117 733 LINE",
"64 818 LINE"
);
}
);
width = 570;
}
);
unicode = 00F4;
},
{
glyphname = divide;
layers = (
{
layerId = "604F039F-C4E4-4D5F-9F8C-06B1752D997F";
paths = (
{
nodes = (
"122 524 OFFCURVE",
"134 553 OFFCURVE",
"155 574 OFFCURVE",
"182 586 OFFCURVE",
"199 586 QCURVE SMOOTH",
"214 586 OFFCURVE",
"242 574 OFFCURVE",
"263 553 OFFCURVE",
"275 524 OFFCURVE",
"275 508 QCURVE SMOOTH",
"275 492 OFFCURVE",
"263 463 OFFCURVE",
"242 443 OFFCURVE",
"214 430 OFFCURVE",
"199 430 QCURVE SMOOTH",
"182 430 OFFCURVE",
"155 443 OFFCURVE",
"134 463 OFFCURVE",
"122 492 OFFCURVE",
"122 508 QCURVE SMOOTH"
);
},
{
nodes = (
"368 407 LINE",
"368 280 LINE",
"21 280 LINE",
"21 407 LINE"
);
},
{
nodes = (
"123 191 OFFCURVE",
"135 220 OFFCURVE",
"156 241 OFFCURVE",
"183 253 OFFCURVE",
"199 253 QCURVE SMOOTH",
"215 253 OFFCURVE",
"243 241 OFFCURVE",
"264 220 OFFCURVE",
"276 191 OFFCURVE",
"276 175 QCURVE SMOOTH",
"276 159 OFFCURVE",
"264 131 OFFCURVE",
"243 110 OFFCURVE",
"215 97 OFFCURVE",
"199 97 QCURVE SMOOTH",
"183 97 OFFCURVE",
"156 110 OFFCURVE",
"135 131 OFFCURVE",
"123 159 OFFCURVE",
"123 175 QCURVE SMOOTH"
);
}
);
width = 393;
}
);
unicode = 00F7;
},
{
glyphname = oslash;
layers = (
{
layerId = "604F039F-C4E4-4D5F-9F8C-06B1752D997F";
paths = (
{
nodes = (
"307 488 LINE",
"211 488 LINE",
"211 278 LINE"
);
},
{
nodes = (
"361 188 LINE",
"361 398 LINE",
"266 188 LINE"
);
},
{
nodes = (
"549 0 LINE",
"181 0 LINE",
"157 -52 LINE",
"61 -52 LINE",
"85 0 LINE",
"23 0 LINE",
"23 676 LINE",
"392 676 LINE",
"413 722 LINE",
"508 722 LINE",
"487 676 LINE",
"549 676 LINE"
);
}
);
width = 570;
}
);
unicode = 00F8;
},
{
glyphname = ucircumflex;
layers = (
{
layerId = "604F039F-C4E4-4D5F-9F8C-06B1752D997F";
paths = (
{
nodes = (
"336 942 LINE",
"550 818 LINE",
"497 733 LINE",
"334 794 LINE",
"172 733 LINE",
"119 818 LINE"
);
},
{
nodes = (
"601 0 LINE",
"432 0 LINE SMOOTH",
"358 0 OFFCURVE",
"228 56 OFFCURVE",
"131 153 OFFCURVE",
"75 283 OFFCURVE",
"75 357 QCURVE SMOOTH",
"75 469 LINE",
"19 469 LINE",
"19 676 LINE",
"263 676 LINE",
"263 485 LINE",
"263 484 OFFCURVE",
"263 482 QCURVE",
"263 463 LINE",
"263 461 OFFCURVE",
"263 460 QCURVE",
"263 445 LINE",
"263 444 OFFCURVE",
"263 442 QCURVE",
"263 393 LINE SMOOTH",
"263 343 OFFCURVE",
"288 257 OFFCURVE",
"350 196 OFFCURVE",
"413 189 QCURVE",
"413 676 LINE",
"601 676 LINE"
);
}
);
width = 622;
}
);
unicode = 00FB;
},
{
glyphname = Amacron;
layers = (
{
layerId = "604F039F-C4E4-4D5F-9F8C-06B1752D997F";
paths = (
{
nodes = (
"531 900 LINE",
"531 746 LINE",
"152 746 LINE",
"152 900 LINE"
);
},
{
nodes = (
"245 675 LINE",
"245 713 LINE",
"433 713 LINE",
"433 675 LINE",
"658 675 LINE",
"658 488 LINE",
"601 488 LINE",
"601 225 LINE SMOOTH",
"601 210 OFFCURVE",
"610 194 OFFCURVE",
"626 187 OFFCURVE",
"636 187 QCURVE",
"637 187 LINE",
"637 187 OFFCURVE",
"637 187 QCURVE",
"638 187 LINE",
"639 187 OFFCURVE",
"640 187 QCURVE",
"641 187 LINE",
"642 187 OFFCURVE",
"642 187 QCURVE",
"643 187 LINE",
"643 187 OFFCURVE",
"644 187 QCURVE",
"646 187 LINE",
"646 187 OFFCURVE",
"647 187 QCURVE",
"648 187 LINE",
"648 187 OFFCURVE",
"649 187 QCURVE",
"658 187 LINE",
"658 0 LINE",
"583 0 LINE SMOOTH",
"525 0 OFFCURVE",
"458 44 OFFCURVE",
"423 113 OFFCURVE",
"414 200 OFFCURVE",
"414 244 QCURVE",
"264 244 LINE",
"264 168 LINE SMOOTH",
"264 133 OFFCURVE",
"237 72 OFFCURVE",
"191 26 OFFCURVE",
"129 0 OFFCURVE",
"95 0 QCURVE SMOOTH",
"19 0 LINE",
"19 187 LINE",
"20 187 LINE",
"20 187 OFFCURVE",
"20 187 QCURVE",
"22 187 LINE",
"22 187 OFFCURVE",
"23 187 QCURVE",
"25 187 LINE",
"26 187 OFFCURVE",
"26 187 QCURVE",
"27 187 LINE",
"27 187 OFFCURVE",
"28 187 QCURVE",
"30 187 LINE",
"31 187 OFFCURVE",
"31 187 QCURVE",
"32 187 LINE",
"32 187 OFFCURVE",
"33 187 QCURVE",
"41 187 LINE SMOOTH",
"51 187 OFFCURVE",
"67 194 OFFCURVE",
"76 210 OFFCURVE",
"76 225 QCURVE SMOOTH",
"76 488 LINE",
"19 488 LINE",
"19 675 LINE"
);
},
{
nodes = (
"414 431 LINE",
"414 488 LINE",
"264 488 LINE",
"264 431 LINE"
);
}
);
width = 677;
}
);
unicode = 0100;
},
{
glyphname = amacron;
layers = (
{
layerId = "604F039F-C4E4-4D5F-9F8C-06B1752D997F";
paths = (
{
nodes = (
"531 900 LINE",
"531 746 LINE",
"152 746 LINE",
"152 900 LINE"
);
},
{
nodes = (
"245 675 LINE",
"245 713 LINE",
"433 713 LINE",
"433 675 LINE",
"658 675 LINE",
"658 488 LINE",
"601 488 LINE",
"601 225 LINE SMOOTH",
"601 210 OFFCURVE",
"610 194 OFFCURVE",
"626 187 OFFCURVE",
"636 187 QCURVE",
"637 187 LINE",
"637 187 OFFCURVE",
"637 187 QCURVE",
"638 187 LINE",
"639 187 OFFCURVE",
"640 187 QCURVE",
"641 187 LINE",
"642 187 OFFCURVE",
"642 187 QCURVE",
"643 187 LINE",
"643 187 OFFCURVE",
"644 187 QCURVE",
"646 187 LINE",
"646 187 OFFCURVE",
"647 187 QCURVE",
"648 187 LINE",
"648 187 OFFCURVE",
"649 187 QCURVE",
"658 187 LINE",
"658 0 LINE",
"583 0 LINE SMOOTH",
"525 0 OFFCURVE",
"458 44 OFFCURVE",
"423 113 OFFCURVE",
"414 200 OFFCURVE",
"414 244 QCURVE",
"264 244 LINE",
"264 168 LINE SMOOTH",
"264 133 OFFCURVE",
"237 72 OFFCURVE",
"191 26 OFFCURVE",
"129 0 OFFCURVE",
"95 0 QCURVE SMOOTH",
"19 0 LINE",
"19 187 LINE",
"20 187 LINE",
"20 187 OFFCURVE",
"20 187 QCURVE",
"22 187 LINE",
"22 187 OFFCURVE",
"23 187 QCURVE",
"25 187 LINE",
"26 187 OFFCURVE",
"26 187 QCURVE",
"27 187 LINE",
"27 187 OFFCURVE",
"28 187 QCURVE",
"30 187 LINE",
"31 187 OFFCURVE",
"31 187 QCURVE",
"32 187 LINE",
"32 187 OFFCURVE",
"33 187 QCURVE",
"41 187 LINE SMOOTH",
"51 187 OFFCURVE",
"67 194 OFFCURVE",
"76 210 OFFCURVE",
"76 225 QCURVE SMOOTH",
"76 488 LINE",
"19 488 LINE",
"19 675 LINE"
);
},
{
nodes = (
"414 431 LINE",
"414 488 LINE",
"264 488 LINE",
"264 431 LINE"
);
}
);
width = 677;
}
);
unicode = 0101;
},
{
glyphname = Aogonek;
layers = (
{
layerId = "604F039F-C4E4-4D5F-9F8C-06B1752D997F";
paths = (
{
nodes = (
"245 675 LINE",
"245 713 LINE",
"433 713 LINE",
"433 675 LINE",
"658 675 LINE",
"658 488 LINE",
"601 488 LINE",
"601 225 LINE SMOOTH",
"601 210 OFFCURVE",
"610 194 OFFCURVE",
"626 187 OFFCURVE",
"636 187 QCURVE",
"637 187 LINE",
"637 187 OFFCURVE",
"637 187 QCURVE",
"638 187 LINE",
"639 187 OFFCURVE",
"640 187 QCURVE",
"641 187 LINE",
"642 187 OFFCURVE",
"642 187 QCURVE",
"643 187 LINE",
"643 187 OFFCURVE",
"644 187 QCURVE",
"646 187 LINE",
"646 187 OFFCURVE",
"647 187 QCURVE",
"648 187 LINE",
"648 187 OFFCURVE",
"649 187 QCURVE",
"658 187 LINE",
"658 0 LINE",
"590 0 LINE",
"568 -28 OFFCURVE",
"553 -53 QCURVE SMOOTH",
"531 -87 OFFCURVE",
"531 -108 QCURVE SMOOTH",
"531 -123 OFFCURVE",
"541 -126 QCURVE SMOOTH",
"546 -128 OFFCURVE",
"560 -130 OFFCURVE",
"565 -130 QCURVE SMOOTH",
"569 -130 OFFCURVE",
"573 -129 QCURVE SMOOTH",
"581 -128 OFFCURVE",
"619 -116 QCURVE",
"645 -152 LINE",
"597 -169 OFFCURVE",
"557 -179 QCURVE",
"545 -181 OFFCURVE",
"519 -184 OFFCURVE",
"502 -184 QCURVE SMOOTH",
"480 -184 OFFCURVE",
"435 -176 OFFCURVE",
"419 -165 QCURVE SMOOTH",
"396 -149 OFFCURVE",
"396 -134 QCURVE SMOOTH",
"396 -118 OFFCURVE",
"426 -72 OFFCURVE",
"446 -51 QCURVE SMOOTH",
"458 -38 OFFCURVE",
"480 -19 QCURVE SMOOTH",
"495 -5 OFFCURVE",
"514 11 QCURVE",
"501 15 OFFCURVE",
"492 22 QCURVE",
"458 44 OFFCURVE",
"423 113 OFFCURVE",
"414 200 OFFCURVE",
"414 244 QCURVE",
"264 244 LINE",
"264 168 LINE SMOOTH",
"264 133 OFFCURVE",
"237 72 OFFCURVE",
"191 26 OFFCURVE",
"129 0 OFFCURVE",
"95 0 QCURVE SMOOTH",
"19 0 LINE",
"19 187 LINE",
"20 187 LINE",
"20 187 OFFCURVE",
"20 187 QCURVE",
"22 187 LINE",
"22 187 OFFCURVE",
"23 187 QCURVE",
"25 187 LINE",
"26 187 OFFCURVE",
"26 187 QCURVE",
"27 187 LINE",
"27 187 OFFCURVE",
"28 187 QCURVE",
"30 187 LINE",
"31 187 OFFCURVE",
"31 187 QCURVE",
"32 187 LINE",
"32 187 OFFCURVE",
"33 187 QCURVE",
"41 187 LINE SMOOTH",
"51 187 OFFCURVE",
"67 194 OFFCURVE",
"76 210 OFFCURVE",
"76 225 QCURVE SMOOTH",
"76 488 LINE",
"19 488 LINE",
"19 675 LINE"
);
},
{
nodes = (
"414 431 LINE",
"414 488 LINE",
"264 488 LINE",
"264 431 LINE"
);
}
);
width = 677;
}
);
unicode = 0104;
},
{
glyphname = aogonek;
layers = (
{
layerId = "604F039F-C4E4-4D5F-9F8C-06B1752D997F";
paths = (
{
nodes = (
"245 675 LINE",
"245 713 LINE",
"433 713 LINE",
"433 675 LINE",
"658 675 LINE",
"658 488 LINE",
"601 488 LINE",
"601 225 LINE SMOOTH",
"601 210 OFFCURVE",
"610 194 OFFCURVE",
"626 187 OFFCURVE",
"636 187 QCURVE",
"637 187 LINE",
"637 187 OFFCURVE",
"637 187 QCURVE",
"638 187 LINE",
"639 187 OFFCURVE",
"640 187 QCURVE",
"641 187 LINE",
"642 187 OFFCURVE",
"642 187 QCURVE",
"643 187 LINE",
"643 187 OFFCURVE",
"644 187 QCURVE",
"646 187 LINE",
"646 187 OFFCURVE",
"647 187 QCURVE",
"648 187 LINE",
"648 187 OFFCURVE",
"649 187 QCURVE",
"658 187 LINE",
"658 0 LINE",
"618 0 LINE",
"596 -28 OFFCURVE",
"581 -53 QCURVE SMOOTH",
"559 -87 OFFCURVE",
"559 -108 QCURVE SMOOTH",
"559 -123 OFFCURVE",
"569 -126 QCURVE SMOOTH",
"574 -128 OFFCURVE",
"588 -130 OFFCURVE",
"593 -130 QCURVE SMOOTH",
"597 -130 OFFCURVE",
"601 -129 QCURVE SMOOTH",
"609 -128 OFFCURVE",
"647 -116 QCURVE",
"673 -152 LINE",
"625 -169 OFFCURVE",
"585 -179 QCURVE",
"573 -181 OFFCURVE",
"547 -184 OFFCURVE",
"530 -184 QCURVE SMOOTH",
"508 -184 OFFCURVE",
"463 -176 OFFCURVE",
"447 -165 QCURVE SMOOTH",
"424 -149 OFFCURVE",
"424 -134 QCURVE SMOOTH",
"424 -118 OFFCURVE",
"454 -72 OFFCURVE",
"474 -51 QCURVE SMOOTH",
"486 -38 OFFCURVE",
"508 -19 QCURVE",
"520 -7 OFFCURVE",
"534 5 QCURVE",
"509 10 OFFCURVE",
"492 22 QCURVE SMOOTH",
"458 44 OFFCURVE",
"423 113 OFFCURVE",
"414 200 OFFCURVE",
"414 244 QCURVE",
"264 244 LINE",
"264 168 LINE SMOOTH",
"264 133 OFFCURVE",
"237 72 OFFCURVE",
"191 26 OFFCURVE",
"129 0 OFFCURVE",
"95 0 QCURVE SMOOTH",
"19 0 LINE",
"19 187 LINE",
"20 187 LINE",
"20 187 OFFCURVE",
"20 187 QCURVE",
"22 187 LINE",
"22 187 OFFCURVE",
"23 187 QCURVE",
"25 187 LINE",
"26 187 OFFCURVE",
"26 187 QCURVE",
"27 187 LINE",
"27 187 OFFCURVE",
"28 187 QCURVE",
"30 187 LINE",
"31 187 OFFCURVE",
"31 187 QCURVE",
"32 187 LINE",
"32 187 OFFCURVE",
"33 187 QCURVE",
"41 187 LINE SMOOTH",
"51 187 OFFCURVE",
"67 194 OFFCURVE",
"76 210 OFFCURVE",
"76 225 QCURVE SMOOTH",
"76 488 LINE",
"19 488 LINE",
"19 675 LINE"
);
},
{
nodes = (
"414 431 LINE",
"414 488 LINE",
"264 488 LINE",
"264 431 LINE"
);
}
);
width = 677;
}
);
unicode = 0105;
},
{
glyphname = Cacute;
layers = (
{
layerId = "604F039F-C4E4-4D5F-9F8C-06B1752D997F";
paths = (
{
nodes = (
"476 869 LINE",
"254 745 LINE",
"185 839 LINE",
"371 1004 LINE"
);
},
{
nodes = (
"601 432 LINE",
"413 432 LINE",
"413 489 LINE",
"263 489 LINE",
"263 357 LINE SMOOTH",
"263 308 OFFCURVE",
"295 245 OFFCURVE",
"348 208 OFFCURVE",
"418 191 OFFCURVE",
"482 187 OFFCURVE",
"509 187 QCURVE SMOOTH",
"520 187 OFFCURVE",
"568 188 OFFCURVE",
"601 188 QCURVE",
"601 0 LINE",
"432 0 LINE SMOOTH",
"358 0 OFFCURVE",
"228 56 OFFCURVE",
"131 153 OFFCURVE",
"75 283 OFFCURVE",
"75 357 QCURVE SMOOTH",
"75 470 LINE",
"19 470 LINE",
"19 676 LINE",
"601 676 LINE"
);
}
);
width = 625;
}
);
unicode = 0106;
},
{
glyphname = cacute;
layers = (
{
layerId = "604F039F-C4E4-4D5F-9F8C-06B1752D997F";
paths = (
{
nodes = (
"476 869 LINE",
"254 745 LINE",
"185 839 LINE",
"371 1004 LINE"
);
},
{
nodes = (
"601 432 LINE",
"413 432 LINE",
"413 489 LINE",
"263 489 LINE",
"263 357 LINE SMOOTH",
"263 308 OFFCURVE",
"295 245 OFFCURVE",
"348 208 OFFCURVE",
"418 191 OFFCURVE",
"482 187 OFFCURVE",
"509 187 QCURVE SMOOTH",
"520 187 OFFCURVE",
"568 188 OFFCURVE",
"601 188 QCURVE",
"601 0 LINE",
"432 0 LINE SMOOTH",
"358 0 OFFCURVE",
"228 56 OFFCURVE",
"131 153 OFFCURVE",
"75 283 OFFCURVE",
"75 357 QCURVE SMOOTH",
"75 470 LINE",
"19 470 LINE",
"19 676 LINE",
"601 676 LINE"
);
}
);
width = 625;
}
);
unicode = 0107;
},
{
glyphname = Ccircumflex;
layers = (
{
layerId = "604F039F-C4E4-4D5F-9F8C-06B1752D997F";
paths = (
{
nodes = (
"319 942 LINE",
"533 818 LINE",
"480 733 LINE",
"317 794 LINE",
"155 733 LINE",
"102 818 LINE"
);
},
{
nodes = (
"601 432 LINE",
"413 432 LINE",
"413 489 LINE",
"263 489 LINE",
"263 357 LINE SMOOTH",
"263 308 OFFCURVE",
"295 245 OFFCURVE",
"348 208 OFFCURVE",
"418 191 OFFCURVE",
"482 187 OFFCURVE",
"509 187 QCURVE SMOOTH",
"520 187 OFFCURVE",
"568 188 OFFCURVE",
"601 188 QCURVE",
"601 0 LINE",
"432 0 LINE SMOOTH",
"358 0 OFFCURVE",
"228 56 OFFCURVE",
"131 153 OFFCURVE",
"75 283 OFFCURVE",
"75 357 QCURVE SMOOTH",
"75 470 LINE",
"19 470 LINE",
"19 676 LINE",
"601 676 LINE"
);
}
);
width = 625;
}
);
unicode = 0108;
},
{
glyphname = ccircumflex;
layers = (
{
layerId = "604F039F-C4E4-4D5F-9F8C-06B1752D997F";
paths = (
{
nodes = (
"319 942 LINE",
"533 818 LINE",
"480 733 LINE",
"317 794 LINE",
"155 733 LINE",
"102 818 LINE"
);
},
{
nodes = (
"601 432 LINE",
"413 432 LINE",
"413 489 LINE",
"263 489 LINE",
"263 357 LINE SMOOTH",
"263 308 OFFCURVE",
"295 245 OFFCURVE",
"348 208 OFFCURVE",
"418 191 OFFCURVE",
"482 187 OFFCURVE",
"509 187 QCURVE SMOOTH",
"520 187 OFFCURVE",
"568 188 OFFCURVE",
"601 188 QCURVE",
"601 0 LINE",
"432 0 LINE SMOOTH",
"358 0 OFFCURVE",
"228 56 OFFCURVE",
"131 153 OFFCURVE",
"75 283 OFFCURVE",
"75 357 QCURVE SMOOTH",
"75 470 LINE",
"19 470 LINE",
"19 676 LINE",
"601 676 LINE"
);
}
);
width = 625;
}
);
unicode = 0109;
},
{
glyphname = Cdotaccent;
layers = (
{
layerId = "604F039F-C4E4-4D5F-9F8C-06B1752D997F";
paths = (
{
nodes = (
"214 872 OFFCURVE",
"267 926 OFFCURVE",
"305 926 QCURVE SMOOTH",
"343 926 OFFCURVE",
"396 872 OFFCURVE",
"396 834 QCURVE SMOOTH",
"396 796 OFFCURVE",
"343 744 OFFCURVE",
"305 744 QCURVE SMOOTH",
"267 744 OFFCURVE",
"214 796 OFFCURVE",
"214 834 QCURVE SMOOTH"
);
},
{
nodes = (
"601 432 LINE",
"413 432 LINE",
"413 489 LINE",
"263 489 LINE",
"263 357 LINE SMOOTH",
"263 308 OFFCURVE",
"295 245 OFFCURVE",
"348 208 OFFCURVE",
"418 191 OFFCURVE",
"482 187 OFFCURVE",
"509 187 QCURVE SMOOTH",
"520 187 OFFCURVE",
"568 188 OFFCURVE",
"601 188 QCURVE",
"601 0 LINE",
"432 0 LINE SMOOTH",
"358 0 OFFCURVE",
"228 56 OFFCURVE",
"131 153 OFFCURVE",
"75 283 OFFCURVE",
"75 357 QCURVE SMOOTH",
"75 470 LINE",
"19 470 LINE",
"19 676 LINE",
"601 676 LINE"
);
}
);
width = 625;
}
);
unicode = 010A;
},
{
glyphname = cdotaccent;
layers = (
{
layerId = "604F039F-C4E4-4D5F-9F8C-06B1752D997F";
paths = (
{
nodes = (
"214 872 OFFCURVE",
"267 926 OFFCURVE",
"305 926 QCURVE SMOOTH",
"343 926 OFFCURVE",
"396 872 OFFCURVE",
"396 834 QCURVE SMOOTH",
"396 796 OFFCURVE",
"343 744 OFFCURVE",
"305 744 QCURVE SMOOTH",
"267 744 OFFCURVE",
"214 796 OFFCURVE",
"214 834 QCURVE SMOOTH"
);
},
{
nodes = (
"601 432 LINE",
"413 432 LINE",
"413 489 LINE",
"263 489 LINE",
"263 357 LINE SMOOTH",
"263 308 OFFCURVE",
"295 245 OFFCURVE",
"348 208 OFFCURVE",
"418 191 OFFCURVE",
"482 187 OFFCURVE",
"509 187 QCURVE SMOOTH",
"520 187 OFFCURVE",
"568 188 OFFCURVE",
"601 188 QCURVE",
"601 0 LINE",
"432 0 LINE SMOOTH",
"358 0 OFFCURVE",
"228 56 OFFCURVE",
"131 153 OFFCURVE",
"75 283 OFFCURVE",
"75 357 QCURVE SMOOTH",
"75 470 LINE",
"19 470 LINE",
"19 676 LINE",
"601 676 LINE"
);
}
);
width = 625;
}
);
unicode = 010B;
},
{
glyphname = Ccaron;
layers = (
{
layerId = "604F039F-C4E4-4D5F-9F8C-06B1752D997F";
paths = (
{
nodes = (
"100 857 LINE",
"153 942 LINE",
"315 881 LINE",
"478 942 LINE",
"531 857 LINE",
"317 733 LINE"
);
},
{
nodes = (
"601 432 LINE",
"413 432 LINE",
"413 489 LINE",
"263 489 LINE",
"263 357 LINE SMOOTH",
"263 308 OFFCURVE",
"295 245 OFFCURVE",
"348 208 OFFCURVE",
"418 191 OFFCURVE",
"482 187 OFFCURVE",
"509 187 QCURVE SMOOTH",
"520 187 OFFCURVE",
"568 188 OFFCURVE",
"601 188 QCURVE",
"601 0 LINE",
"432 0 LINE SMOOTH",
"358 0 OFFCURVE",
"228 56 OFFCURVE",
"131 153 OFFCURVE",
"75 283 OFFCURVE",
"75 357 QCURVE SMOOTH",
"75 470 LINE",
"19 470 LINE",
"19 676 LINE",
"601 676 LINE"
);
}
);
width = 625;
}
);
unicode = 010C;
},
{
glyphname = ccaron;
layers = (
{
layerId = "604F039F-C4E4-4D5F-9F8C-06B1752D997F";
paths = (
{
nodes = (
"100 857 LINE",
"153 942 LINE",
"315 881 LINE",
"478 942 LINE",
"531 857 LINE",
"317 733 LINE"
);
},
{
nodes = (
"601 432 LINE",
"413 432 LINE",
"413 489 LINE",
"263 489 LINE",
"263 357 LINE SMOOTH",
"263 308 OFFCURVE",
"295 245 OFFCURVE",
"348 208 OFFCURVE",
"418 191 OFFCURVE",
"482 187 OFFCURVE",
"509 187 QCURVE SMOOTH",
"520 187 OFFCURVE",
"568 188 OFFCURVE",
"601 188 QCURVE",
"601 0 LINE",
"432 0 LINE SMOOTH",
"358 0 OFFCURVE",
"228 56 OFFCURVE",
"131 153 OFFCURVE",
"75 283 OFFCURVE",
"75 357 QCURVE SMOOTH",
"75 470 LINE",
"19 470 LINE",
"19 676 LINE",
"601 676 LINE"
);
}
);
width = 625;
}
);
unicode = 010D;
},
{
glyphname = Dcaron;
layers = (
{
layerId = "604F039F-C4E4-4D5F-9F8C-06B1752D997F";
paths = (
{
nodes = (
"89 857 LINE",
"142 942 LINE",
"304 881 LINE",
"467 942 LINE",
"520 857 LINE",
"306 733 LINE"
);
},
{
nodes = (
"600 244 LINE SMOOTH",
"600 194 OFFCURVE",
"561 105 OFFCURVE",
"495 39 OFFCURVE",
"406 0 OFFCURVE",
"356 0 QCURVE SMOOTH",
"295 0 LINE",
"295 188 LINE",
"314 188 OFFCURVE",
"340 186 OFFCURVE",
"345 186 QCURVE SMOOTH",
"360 186 OFFCURVE",
"390 193 OFFCURVE",
"412 217 OFFCURVE",
"412 244 QCURVE SMOOTH",
"412 488 LINE",
"262 488 LINE",
"262 0 LINE",
"74 0 LINE",
"74 488 LINE",
"18 488 LINE",
"18 676 LINE",
"600 676 LINE"
);
}
);
width = 619;
}
);
unicode = 010E;
},
{
glyphname = dcaron;
layers = (
{
layerId = "604F039F-C4E4-4D5F-9F8C-06B1752D997F";
paths = (
{
nodes = (
"89 857 LINE",
"142 942 LINE",
"304 881 LINE",
"467 942 LINE",
"520 857 LINE",
"306 733 LINE"
);
},
{
nodes = (
"600 244 LINE SMOOTH",
"600 194 OFFCURVE",
"561 105 OFFCURVE",
"495 39 OFFCURVE",
"406 0 OFFCURVE",
"356 0 QCURVE SMOOTH",
"295 0 LINE",
"295 188 LINE",
"314 188 OFFCURVE",
"340 186 OFFCURVE",
"345 186 QCURVE SMOOTH",
"360 186 OFFCURVE",
"390 193 OFFCURVE",
"412 217 OFFCURVE",
"412 244 QCURVE SMOOTH",
"412 488 LINE",
"262 488 LINE",
"262 0 LINE",
"74 0 LINE",
"74 488 LINE",
"18 488 LINE",
"18 676 LINE",
"600 676 LINE"
);
}
);
width = 619;
}
);
unicode = 010F;
},
{
glyphname = Dcroat;
layers = (
{
layerId = "604F039F-C4E4-4D5F-9F8C-06B1752D997F";
paths = (
{
nodes = (
"355 403 LINE",
"355 262 LINE",
"262 262 LINE",
"262 0 LINE",
"74 0 LINE",
"74 262 LINE",
"15 262 LINE",
"15 403 LINE",
"74 403 LINE",
"74 488 LINE",
"18 488 LINE",
"18 676 LINE",
"600 676 LINE",
"600 244 LINE SMOOTH",
"600 194 OFFCURVE",
"561 105 OFFCURVE",
"495 39 OFFCURVE",
"406 0 OFFCURVE",
"356 0 QCURVE SMOOTH",
"295 0 LINE",
"295 188 LINE",
"314 188 OFFCURVE",
"340 186 OFFCURVE",
"345 186 QCURVE SMOOTH",
"360 186 OFFCURVE",
"390 193 OFFCURVE",
"412 217 OFFCURVE",
"412 244 QCURVE SMOOTH",
"412 488 LINE",
"262 488 LINE",
"262 403 LINE"
);
}
);
width = 619;
}
);
unicode = 0110;
},
{
glyphname = dcroat;
layers = (
{
layerId = "604F039F-C4E4-4D5F-9F8C-06B1752D997F";
paths = (
{
nodes = (
"355 403 LINE",
"355 262 LINE",
"262 262 LINE",
"262 0 LINE",
"74 0 LINE",
"74 262 LINE",
"15 262 LINE",
"15 403 LINE",
"74 403 LINE",
"74 488 LINE",
"18 488 LINE",
"18 676 LINE",
"600 676 LINE",
"600 244 LINE SMOOTH",
"600 194 OFFCURVE",
"561 105 OFFCURVE",
"495 39 OFFCURVE",
"406 0 OFFCURVE",
"356 0 QCURVE SMOOTH",
"295 0 LINE",
"295 188 LINE",
"314 188 OFFCURVE",
"340 186 OFFCURVE",
"345 186 QCURVE SMOOTH",
"360 186 OFFCURVE",
"390 193 OFFCURVE",
"412 217 OFFCURVE",
"412 244 QCURVE SMOOTH",
"412 488 LINE",
"262 488 LINE",
"262 403 LINE"
);
}
);
width = 619;
}
);
unicode = 0111;
},
{
glyphname = Edotaccent;
layers = (
{
layerId = "604F039F-C4E4-4D5F-9F8C-06B1752D997F";
paths = (
{
nodes = (
"214 872 OFFCURVE",
"267 926 OFFCURVE",
"305 926 QCURVE SMOOTH",
"343 926 OFFCURVE",
"396 872 OFFCURVE",
"396 834 QCURVE SMOOTH",
"396 796 OFFCURVE",
"343 744 OFFCURVE",
"305 744 QCURVE SMOOTH",
"267 744 OFFCURVE",
"214 796 OFFCURVE",
"214 834 QCURVE SMOOTH"
);
},
{
nodes = (
"19 244 LINE",
"19 431 LINE",
"75 431 LINE",
"75 488 LINE",
"19 488 LINE",
"19 675 LINE",
"601 675 LINE",
"601 488 LINE",
"263 488 LINE",
"263 413 LINE",
"488 413 LINE",
"488 244 LINE",
"263 244 LINE",
"263 243 OFFCURVE",
"263 242 QCURVE",
"263 187 OFFCURVE",
"319 187 QCURVE SMOOTH",
"601 187 LINE",
"601 0 LINE",
"319 0 LINE SMOOTH",
"269 0 OFFCURVE",
"180 39 OFFCURVE",
"114 105 OFFCURVE",
"75 194 OFFCURVE",
"75 244 QCURVE"
);
}
);
width = 620;
}
);
unicode = 0116;
},
{
glyphname = edotaccent;
layers = (
{
layerId = "604F039F-C4E4-4D5F-9F8C-06B1752D997F";
paths = (
{
nodes = (
"214 872 OFFCURVE",
"267 926 OFFCURVE",
"305 926 QCURVE SMOOTH",
"343 926 OFFCURVE",
"396 872 OFFCURVE",
"396 834 QCURVE SMOOTH",
"396 796 OFFCURVE",
"343 744 OFFCURVE",
"305 744 QCURVE SMOOTH",
"267 744 OFFCURVE",
"214 796 OFFCURVE",
"214 834 QCURVE SMOOTH"
);
},
{
nodes = (
"19 244 LINE",
"19 431 LINE",
"75 431 LINE",
"75 488 LINE",
"19 488 LINE",
"19 675 LINE",
"601 675 LINE",
"601 488 LINE",
"263 488 LINE",
"263 413 LINE",
"488 413 LINE",
"488 244 LINE",
"263 244 LINE",
"263 243 OFFCURVE",
"263 242 QCURVE",
"263 187 OFFCURVE",
"319 187 QCURVE SMOOTH",
"601 187 LINE",
"601 0 LINE",
"319 0 LINE SMOOTH",
"269 0 OFFCURVE",
"180 39 OFFCURVE",
"114 105 OFFCURVE",
"75 194 OFFCURVE",
"75 244 QCURVE"
);
}
);
width = 620;
}
);
unicode = 0117;
},
{
glyphname = Eogonek;
layers = (
{
layerId = "604F039F-C4E4-4D5F-9F8C-06B1752D997F";
paths = (
{
nodes = (
"19 244 LINE",
"19 431 LINE",
"75 431 LINE",
"75 488 LINE",
"19 488 LINE",
"19 675 LINE",
"601 675 LINE",
"601 488 LINE",
"263 488 LINE",
"263 413 LINE",
"488 413 LINE",
"488 244 LINE",
"263 244 LINE",
"263 243 OFFCURVE",
"263 242 QCURVE",
"263 187 OFFCURVE",
"319 187 QCURVE SMOOTH",
"601 187 LINE",
"601 0 LINE",
"419 0 LINE",
"397 -28 OFFCURVE",
"382 -53 QCURVE SMOOTH",
"360 -87 OFFCURVE",
"360 -108 QCURVE SMOOTH",
"360 -123 OFFCURVE",
"370 -126 QCURVE SMOOTH",
"375 -128 OFFCURVE",
"389 -130 OFFCURVE",
"394 -130 QCURVE SMOOTH",
"398 -130 OFFCURVE",
"402 -129 QCURVE SMOOTH",
"410 -128 OFFCURVE",
"448 -116 QCURVE",
"474 -152 LINE",
"426 -169 OFFCURVE",
"386 -179 QCURVE",
"374 -181 OFFCURVE",
"348 -184 OFFCURVE",
"331 -184 QCURVE SMOOTH",
"309 -184 OFFCURVE",
"264 -176 OFFCURVE",
"248 -165 QCURVE SMOOTH",
"225 -149 OFFCURVE",
"225 -134 QCURVE SMOOTH",
"225 -118 OFFCURVE",
"255 -72 OFFCURVE",
"275 -51 QCURVE SMOOTH",
"287 -38 OFFCURVE",
"309 -19 QCURVE SMOOTH",
"318 -10 OFFCURVE",
"330 0 QCURVE",
"319 0 LINE SMOOTH",
"269 0 OFFCURVE",
"180 39 OFFCURVE",
"114 105 OFFCURVE",
"75 194 OFFCURVE",
"75 244 QCURVE"
);
}
);
width = 620;
}
);
unicode = 0118;
},
{
glyphname = eogonek;
layers = (
{
layerId = "604F039F-C4E4-4D5F-9F8C-06B1752D997F";
paths = (
{
nodes = (
"19 244 LINE",
"19 431 LINE",
"75 431 LINE",
"75 488 LINE",
"19 488 LINE",
"19 675 LINE",
"601 675 LINE",
"601 488 LINE",
"263 488 LINE",
"263 413 LINE",
"488 413 LINE",
"488 244 LINE",
"263 244 LINE",
"263 243 OFFCURVE",
"263 242 QCURVE",
"263 187 OFFCURVE",
"319 187 QCURVE SMOOTH",
"601 187 LINE",
"601 0 LINE",
"419 0 LINE",
"397 -28 OFFCURVE",
"382 -53 QCURVE SMOOTH",
"360 -87 OFFCURVE",
"360 -108 QCURVE SMOOTH",
"360 -123 OFFCURVE",
"370 -126 QCURVE SMOOTH",
"375 -128 OFFCURVE",
"389 -130 OFFCURVE",
"394 -130 QCURVE SMOOTH",
"398 -130 OFFCURVE",
"402 -129 QCURVE SMOOTH",
"410 -128 OFFCURVE",
"448 -116 QCURVE",
"474 -152 LINE",
"426 -169 OFFCURVE",
"386 -179 QCURVE",
"374 -181 OFFCURVE",
"348 -184 OFFCURVE",
"331 -184 QCURVE SMOOTH",
"309 -184 OFFCURVE",
"264 -176 OFFCURVE",
"248 -165 QCURVE SMOOTH",
"225 -149 OFFCURVE",
"225 -134 QCURVE SMOOTH",
"225 -118 OFFCURVE",
"255 -72 OFFCURVE",
"275 -51 QCURVE SMOOTH",
"287 -38 OFFCURVE",
"309 -19 QCURVE SMOOTH",
"318 -10 OFFCURVE",
"330 0 QCURVE",
"319 0 LINE SMOOTH",
"269 0 OFFCURVE",
"180 39 OFFCURVE",
"114 105 OFFCURVE",
"75 194 OFFCURVE",
"75 244 QCURVE"
);
}
);
width = 620;
}
);
unicode = 0119;
},
{
glyphname = Ecaron;
layers = (
{
layerId = "604F039F-C4E4-4D5F-9F8C-06B1752D997F";
paths = (
{
nodes = (
"93 857 LINE",
"146 942 LINE",
"308 881 LINE",
"471 942 LINE",
"524 857 LINE",
"310 733 LINE"
);
},
{
nodes = (
"19 244 LINE",
"19 431 LINE",
"75 431 LINE",
"75 488 LINE",
"19 488 LINE",
"19 675 LINE",
"601 675 LINE",
"601 488 LINE",
"263 488 LINE",
"263 413 LINE",
"488 413 LINE",
"488 244 LINE",
"263 244 LINE",
"263 243 OFFCURVE",
"263 242 QCURVE",
"263 187 OFFCURVE",
"319 187 QCURVE SMOOTH",
"601 187 LINE",
"601 0 LINE",
"319 0 LINE SMOOTH",
"269 0 OFFCURVE",
"180 39 OFFCURVE",
"114 105 OFFCURVE",
"75 194 OFFCURVE",
"75 244 QCURVE"
);
}
);
width = 620;
}
);
unicode = 011A;
},
{
glyphname = ecaron;
layers = (
{
layerId = "604F039F-C4E4-4D5F-9F8C-06B1752D997F";
paths = (
{
nodes = (
"93 857 LINE",
"146 942 LINE",
"308 881 LINE",
"471 942 LINE",
"524 857 LINE",
"310 733 LINE"
);
},
{
nodes = (
"19 244 LINE",
"19 431 LINE",
"75 431 LINE",
"75 488 LINE",
"19 488 LINE",
"19 675 LINE",
"601 675 LINE",
"601 488 LINE",
"263 488 LINE",
"263 413 LINE",
"488 413 LINE",
"488 244 LINE",
"263 244 LINE",
"263 243 OFFCURVE",
"263 242 QCURVE",
"263 187 OFFCURVE",
"319 187 QCURVE SMOOTH",
"601 187 LINE",
"601 0 LINE",
"319 0 LINE SMOOTH",
"269 0 OFFCURVE",
"180 39 OFFCURVE",
"114 105 OFFCURVE",
"75 194 OFFCURVE",
"75 244 QCURVE"
);
}
);
width = 620;
}
);
unicode = 011B;
},
{
glyphname = Gcircumflex;
layers = (
{
layerId = "604F039F-C4E4-4D5F-9F8C-06B1752D997F";
paths = (
{
nodes = (
"316 942 LINE",
"530 818 LINE",
"477 733 LINE",
"314 794 LINE",
"152 733 LINE",
"99 818 LINE"
);
},
{
nodes = (
"601 413 LINE",
"601 0 LINE",
"432 0 LINE SMOOTH",
"358 0 OFFCURVE",
"228 56 OFFCURVE",
"131 153 OFFCURVE",
"75 283 OFFCURVE",
"75 357 QCURVE SMOOTH",
"75 470 LINE",
"19 470 LINE",
"19 676 LINE",
"601 676 LINE",
"601 451 LINE",
"413 451 LINE",
"413 488 LINE",
"263 488 LINE",
"263 357 LINE SMOOTH",
"263 325 OFFCURVE",
"286 267 OFFCURVE",
"326 222 OFFCURVE",
"381 193 OFFCURVE",
"413 189 QCURVE",
"413 244 LINE",
"357 244 LINE",
"357 413 LINE"
);
}
);
width = 620;
}
);
unicode = 011C;
},
{
glyphname = gcircumflex;
layers = (
{
layerId = "604F039F-C4E4-4D5F-9F8C-06B1752D997F";
paths = (
{
nodes = (
"316 942 LINE",
"530 818 LINE",
"477 733 LINE",
"314 794 LINE",
"152 733 LINE",
"99 818 LINE"
);
},
{
nodes = (
"601 413 LINE",
"601 0 LINE",
"432 0 LINE SMOOTH",
"358 0 OFFCURVE",
"228 56 OFFCURVE",
"131 153 OFFCURVE",
"75 283 OFFCURVE",
"75 357 QCURVE SMOOTH",
"75 470 LINE",
"19 470 LINE",
"19 676 LINE",
"601 676 LINE",
"601 451 LINE",
"413 451 LINE",
"413 488 LINE",
"263 488 LINE",
"263 357 LINE SMOOTH",
"263 325 OFFCURVE",
"286 267 OFFCURVE",
"326 222 OFFCURVE",
"381 193 OFFCURVE",
"413 189 QCURVE",
"413 244 LINE",
"357 244 LINE",
"357 413 LINE"
);
}
);
width = 620;
}
);
unicode = 011D;
},
{
glyphname = Gdotaccent;
layers = (
{
layerId = "604F039F-C4E4-4D5F-9F8C-06B1752D997F";
paths = (
{
nodes = (
"214 872 OFFCURVE",
"267 926 OFFCURVE",
"305 926 QCURVE SMOOTH",
"343 926 OFFCURVE",
"396 872 OFFCURVE",
"396 834 QCURVE SMOOTH",
"396 796 OFFCURVE",
"343 744 OFFCURVE",
"305 744 QCURVE SMOOTH",
"267 744 OFFCURVE",
"214 796 OFFCURVE",
"214 834 QCURVE SMOOTH"
);
},
{
nodes = (
"601 413 LINE",
"601 0 LINE",
"432 0 LINE SMOOTH",
"358 0 OFFCURVE",
"228 56 OFFCURVE",
"131 153 OFFCURVE",
"75 283 OFFCURVE",
"75 357 QCURVE SMOOTH",
"75 470 LINE",
"19 470 LINE",
"19 676 LINE",
"601 676 LINE",
"601 451 LINE",
"413 451 LINE",
"413 488 LINE",
"263 488 LINE",
"263 357 LINE SMOOTH",
"263 325 OFFCURVE",
"286 267 OFFCURVE",
"326 222 OFFCURVE",
"381 193 OFFCURVE",
"413 189 QCURVE",
"413 244 LINE",
"357 244 LINE",
"357 413 LINE"
);
}
);
width = 620;
}
);
unicode = 0120;
},
{
glyphname = gdotaccent;
layers = (
{
layerId = "604F039F-C4E4-4D5F-9F8C-06B1752D997F";
paths = (
{
nodes = (
"214 872 OFFCURVE",
"267 926 OFFCURVE",
"305 926 QCURVE SMOOTH",
"343 926 OFFCURVE",
"396 872 OFFCURVE",
"396 834 QCURVE SMOOTH",
"396 796 OFFCURVE",
"343 744 OFFCURVE",
"305 744 QCURVE SMOOTH",
"267 744 OFFCURVE",
"214 796 OFFCURVE",
"214 834 QCURVE SMOOTH"
);
},
{
nodes = (
"601 413 LINE",
"601 0 LINE",
"432 0 LINE SMOOTH",
"358 0 OFFCURVE",
"228 56 OFFCURVE",
"131 153 OFFCURVE",
"75 283 OFFCURVE",
"75 357 QCURVE SMOOTH",
"75 470 LINE",
"19 470 LINE",
"19 676 LINE",
"601 676 LINE",
"601 451 LINE",
"413 451 LINE",
"413 488 LINE",
"263 488 LINE",
"263 357 LINE SMOOTH",
"263 325 OFFCURVE",
"286 267 OFFCURVE",
"326 222 OFFCURVE",
"381 193 OFFCURVE",
"413 189 QCURVE",
"413 244 LINE",
"357 244 LINE",
"357 413 LINE"
);
}
);
width = 620;
}
);
unicode = 0121;
},
{
glyphname = Hcircumflex;
layers = (
{
layerId = "604F039F-C4E4-4D5F-9F8C-06B1752D997F";
paths = (
{
nodes = (
"326 942 LINE",
"540 818 LINE",
"487 733 LINE",
"324 794 LINE",
"162 733 LINE",
"109 818 LINE"
);
},
{
nodes = (
"657 188 LINE",
"657 0 LINE",
"582 0 LINE SMOOTH",
"547 0 OFFCURVE",
"486 27 OFFCURVE",
"440 73 OFFCURVE",
"413 134 OFFCURVE",
"413 169 QCURVE SMOOTH",
"413 244 LINE",
"262 244 LINE",
"262 0 LINE",
"75 0 LINE",
"75 244 LINE",
"18 244 LINE",
"18 432 LINE",
"75 432 LINE",
"75 676 LINE",
"262 676 LINE",
"262 432 LINE",
"413 432 LINE",
"413 676 LINE",
"600 676 LINE",
"600 225 LINE SMOOTH",
"600 210 OFFCURVE",
"609 195 OFFCURVE",
"625 188 OFFCURVE",
"636 188 QCURVE",
"637 188 LINE",
"638 188 OFFCURVE",
"639 188 QCURVE",
"640 188 LINE",
"641 188 OFFCURVE",
"641 188 QCURVE",
"642 188 LINE",
"642 188 OFFCURVE",
"642 188 QCURVE",
"644 188 LINE",
"644 188 OFFCURVE",
"645 188 QCURVE",
"646 188 OFFCURVE",
"646 188 QCURVE",
"654 188 LINE",
"654 188 OFFCURVE",
"654 188 QCURVE"
);
}
);
width = 673;
}
);
unicode = 0124;
},
{
glyphname = hcircumflex;
layers = (
{
layerId = "604F039F-C4E4-4D5F-9F8C-06B1752D997F";
paths = (
{
nodes = (
"326 942 LINE",
"540 818 LINE",
"487 733 LINE",
"324 794 LINE",
"162 733 LINE",
"109 818 LINE"
);
},
{
nodes = (
"657 188 LINE",
"657 0 LINE",
"582 0 LINE SMOOTH",
"547 0 OFFCURVE",
"486 27 OFFCURVE",
"440 73 OFFCURVE",
"413 134 OFFCURVE",
"413 169 QCURVE SMOOTH",
"413 244 LINE",
"262 244 LINE",
"262 0 LINE",
"75 0 LINE",
"75 244 LINE",
"18 244 LINE",
"18 432 LINE",
"75 432 LINE",
"75 676 LINE",
"262 676 LINE",
"262 432 LINE",
"413 432 LINE",
"413 676 LINE",
"600 676 LINE",
"600 225 LINE SMOOTH",
"600 210 OFFCURVE",
"609 195 OFFCURVE",
"625 188 OFFCURVE",
"636 188 QCURVE",
"637 188 LINE",
"638 188 OFFCURVE",
"639 188 QCURVE",
"640 188 LINE",
"641 188 OFFCURVE",
"641 188 QCURVE",
"642 188 LINE",
"642 188 OFFCURVE",
"642 188 QCURVE",
"644 188 LINE",
"644 188 OFFCURVE",
"645 188 QCURVE",
"646 188 OFFCURVE",
"646 188 QCURVE",
"654 188 LINE",
"654 188 OFFCURVE",
"654 188 QCURVE"
);
}
);
width = 673;
}
);
unicode = 0125;
},
{
glyphname = Hbar;
layers = (
{
layerId = "604F039F-C4E4-4D5F-9F8C-06B1752D997F";
paths = (
{
nodes = (
"657 188 LINE",
"657 0 LINE",
"582 0 LINE SMOOTH",
"547 0 OFFCURVE",
"486 27 OFFCURVE",
"440 73 OFFCURVE",
"413 134 OFFCURVE",
"413 169 QCURVE SMOOTH",
"413 244 LINE",
"262 244 LINE",
"262 0 LINE",
"75 0 LINE",
"75 244 LINE",
"18 244 LINE",
"18 432 LINE",
"75 432 LINE",
"75 468 LINE",
"15 468 LINE",
"15 622 LINE",
"75 622 LINE",
"75 676 LINE",
"262 676 LINE",
"262 622 LINE",
"413 622 LINE",
"413 676 LINE",
"600 676 LINE",
"600 622 LINE",
"651 622 LINE",
"651 468 LINE",
"600 468 LINE",
"600 225 LINE SMOOTH",
"600 210 OFFCURVE",
"609 195 OFFCURVE",
"625 188 OFFCURVE",
"636 188 QCURVE",
"637 188 LINE",
"638 188 OFFCURVE",
"639 188 QCURVE",
"640 188 LINE",
"641 188 OFFCURVE",
"641 188 QCURVE",
"642 188 LINE",
"642 188 OFFCURVE",
"642 188 QCURVE",
"644 188 LINE",
"644 188 OFFCURVE",
"645 188 QCURVE",
"646 188 OFFCURVE",
"646 188 QCURVE",
"654 188 LINE",
"654 188 OFFCURVE",
"654 188 QCURVE"
);
},
{
nodes = (
"262 432 LINE",
"413 432 LINE",
"413 468 LINE",
"262 468 LINE"
);
}
);
width = 673;
}
);
unicode = 0126;
},
{
glyphname = hbar;
layers = (
{
layerId = "604F039F-C4E4-4D5F-9F8C-06B1752D997F";
paths = (
{
nodes = (
"657 188 LINE",
"657 0 LINE",
"582 0 LINE SMOOTH",
"547 0 OFFCURVE",
"486 27 OFFCURVE",
"440 73 OFFCURVE",
"413 134 OFFCURVE",
"413 169 QCURVE SMOOTH",
"413 244 LINE",
"262 244 LINE",
"262 0 LINE",
"75 0 LINE",
"75 244 LINE",
"18 244 LINE",
"18 432 LINE",
"75 432 LINE",
"75 468 LINE",
"15 468 LINE",
"15 622 LINE",
"75 622 LINE",
"75 676 LINE",
"262 676 LINE",
"262 622 LINE",
"413 622 LINE",
"413 676 LINE",
"600 676 LINE",
"600 622 LINE",
"651 622 LINE",
"651 468 LINE",
"600 468 LINE",
"600 225 LINE SMOOTH",
"600 210 OFFCURVE",
"609 195 OFFCURVE",
"625 188 OFFCURVE",
"636 188 QCURVE",
"637 188 LINE",
"638 188 OFFCURVE",
"639 188 QCURVE",
"640 188 LINE",
"641 188 OFFCURVE",
"641 188 QCURVE",
"642 188 LINE",
"642 188 OFFCURVE",
"642 188 QCURVE",
"644 188 LINE",
"644 188 OFFCURVE",
"645 188 QCURVE",
"646 188 OFFCURVE",
"646 188 QCURVE",
"654 188 LINE",
"654 188 OFFCURVE",
"654 188 QCURVE"
);
},
{
nodes = (
"262 432 LINE",
"413 432 LINE",
"413 468 LINE",
"262 468 LINE"
);
}
);
width = 673;
}
);
unicode = 0127;
},
{
glyphname = Iogonek;
layers = (
{
layerId = "604F039F-C4E4-4D5F-9F8C-06B1752D997F";
paths = (
{
nodes = (
"274 -152 LINE",
"226 -169 OFFCURVE",
"186 -179 QCURVE",
"174 -181 OFFCURVE",
"148 -184 OFFCURVE",
"131 -184 QCURVE SMOOTH",
"109 -184 OFFCURVE",
"64 -176 OFFCURVE",
"48 -165 QCURVE SMOOTH",
"25 -149 OFFCURVE",
"25 -134 QCURVE SMOOTH",
"25 -118 OFFCURVE",
"55 -72 OFFCURVE",
"75 -51 QCURVE SMOOTH",
"83 -42 OFFCURVE",
"122 2 QCURVE",
"109 0 OFFCURVE",
"96 0 QCURVE SMOOTH",
"21 0 LINE",
"21 188 LINE",
"32 188 OFFCURVE",
"53 189 OFFCURVE",
"68 195 OFFCURVE",
"77 210 OFFCURVE",
"77 225 QCURVE SMOOTH",
"77 676 LINE",
"265 676 LINE",
"265 169 LINE SMOOTH",
"265 134 OFFCURVE",
"238 73 OFFCURVE",
"215 50 QCURVE SMOOTH",
"211 46 LINE",
"211 46 OFFCURVE",
"211 46 QCURVE",
"205 40 LINE",
"160 -87 OFFCURVE",
"160 -108 QCURVE SMOOTH",
"160 -123 OFFCURVE",
"170 -126 QCURVE SMOOTH",
"175 -128 OFFCURVE",
"189 -130 OFFCURVE",
"194 -130 QCURVE SMOOTH",
"198 -130 OFFCURVE",
"202 -129 QCURVE SMOOTH",
"210 -128 OFFCURVE",
"248 -116 QCURVE"
);
}
);
width = 285;
}
);
unicode = 012E;
},
{
glyphname = iogonek;
layers = (
{
layerId = "604F039F-C4E4-4D5F-9F8C-06B1752D997F";
paths = (
{
nodes = (
"274 -152 LINE",
"226 -169 OFFCURVE",
"186 -179 QCURVE",
"174 -181 OFFCURVE",
"148 -184 OFFCURVE",
"131 -184 QCURVE SMOOTH",
"109 -184 OFFCURVE",
"64 -176 OFFCURVE",
"48 -165 QCURVE SMOOTH",
"25 -149 OFFCURVE",
"25 -134 QCURVE SMOOTH",
"25 -118 OFFCURVE",
"55 -72 OFFCURVE",
"75 -51 QCURVE SMOOTH",
"83 -42 OFFCURVE",
"122 2 QCURVE",
"109 0 OFFCURVE",
"96 0 QCURVE SMOOTH",
"21 0 LINE",
"21 188 LINE",
"32 188 OFFCURVE",
"53 189 OFFCURVE",
"68 195 OFFCURVE",
"77 210 OFFCURVE",
"77 225 QCURVE SMOOTH",
"77 676 LINE",
"265 676 LINE",
"265 169 LINE SMOOTH",
"265 134 OFFCURVE",
"238 73 OFFCURVE",
"215 50 QCURVE SMOOTH",
"211 46 LINE",
"211 46 OFFCURVE",
"211 46 QCURVE",
"205 40 LINE",
"160 -87 OFFCURVE",
"160 -108 QCURVE SMOOTH",
"160 -123 OFFCURVE",
"170 -126 QCURVE SMOOTH",
"175 -128 OFFCURVE",
"189 -130 OFFCURVE",
"194 -130 QCURVE SMOOTH",
"198 -130 OFFCURVE",
"202 -129 QCURVE SMOOTH",
"210 -128 OFFCURVE",
"248 -116 QCURVE"
);
}
);
width = 285;
}
);
unicode = 012F;
},
{
glyphname = Idotaccent;
layers = (
{
layerId = "604F039F-C4E4-4D5F-9F8C-06B1752D997F";
paths = (
{
nodes = (
"84 872 OFFCURVE",
"137 926 OFFCURVE",
"175 926 QCURVE SMOOTH",
"213 926 OFFCURVE",
"266 872 OFFCURVE",
"266 834 QCURVE SMOOTH",
"266 796 OFFCURVE",
"213 744 OFFCURVE",
"175 744 QCURVE SMOOTH",
"137 744 OFFCURVE",
"84 796 OFFCURVE",
"84 834 QCURVE SMOOTH"
);
},
{
nodes = (
"265 676 LINE",
"265 169 LINE SMOOTH",
"265 134 OFFCURVE",
"238 73 OFFCURVE",
"192 27 OFFCURVE",
"131 0 OFFCURVE",
"96 0 QCURVE SMOOTH",
"21 0 LINE",
"21 188 LINE",
"32 188 OFFCURVE",
"53 189 OFFCURVE",
"68 195 OFFCURVE",
"77 210 OFFCURVE",
"77 225 QCURVE SMOOTH",
"77 676 LINE"
);
}
);
width = 285;
}
);
unicode = 0130;
},
{
glyphname = Jcircumflex;
layers = (
{
layerId = "604F039F-C4E4-4D5F-9F8C-06B1752D997F";
paths = (
{
nodes = (
"180 942 LINE",
"394 818 LINE",
"341 733 LINE",
"178 794 LINE",
"16 733 LINE",
"-37 818 LINE"
);
},
{
nodes = (
"342 675 LINE",
"342 300 LINE SMOOTH",
"342 232 OFFCURVE",
"292 121 OFFCURVE",
"205 43 OFFCURVE",
"89 0 OFFCURVE",
"23 0 QCURVE",
"23 187 LINE",
"49 187 OFFCURVE",
"97 200 OFFCURVE",
"133 228 OFFCURVE",
"154 271 OFFCURVE",
"154 300 QCURVE SMOOTH",
"154 488 LINE",
"23 488 LINE",
"23 675 LINE"
);
}
);
width = 363;
}
);
unicode = 0134;
},
{
glyphname = jcircumflex;
layers = (
{
layerId = "604F039F-C4E4-4D5F-9F8C-06B1752D997F";
paths = (
{
nodes = (
"180 942 LINE",
"394 818 LINE",
"341 733 LINE",
"178 794 LINE",
"16 733 LINE",
"-37 818 LINE"
);
},
{
nodes = (
"342 675 LINE",
"342 300 LINE SMOOTH",
"342 232 OFFCURVE",
"292 121 OFFCURVE",
"205 43 OFFCURVE",
"89 0 OFFCURVE",
"23 0 QCURVE",
"23 187 LINE",
"49 187 OFFCURVE",
"97 200 OFFCURVE",
"133 228 OFFCURVE",
"154 271 OFFCURVE",
"154 300 QCURVE SMOOTH",
"154 488 LINE",
"23 488 LINE",
"23 675 LINE"
);
}
);
width = 363;
}
);
unicode = 0135;
},
{
glyphname = uni0136;
layers = (
{
layerId = "604F039F-C4E4-4D5F-9F8C-06B1752D997F";
paths = (
{
nodes = (
"547 676 LINE",
"524 643 OFFCURVE",
"463 551 OFFCURVE",
"408 449 OFFCURVE",
"370 347 OFFCURVE",
"370 305 QCURVE SMOOTH",
"370 267 OFFCURVE",
"403 222 OFFCURVE",
"454 196 OFFCURVE",
"517 188 OFFCURVE",
"547 188 QCURVE",
"547 0 LINE",
"494 0 OFFCURVE",
"393 18 OFFCURVE",
"305 60 OFFCURVE",
"233 128 OFFCURVE",
"209 179 QCURVE",
"209 0 LINE",
"21 0 LINE",
"21 676 LINE",
"209 676 LINE",
"209 451 LINE",
"228 511 OFFCURVE",
"289 623 OFFCURVE",
"322 676 QCURVE"
);
},
{
nodes = (
"356 -47 LINE",
"284 -231 LINE",
"189 -232 LINE",
"220 -47 LINE"
);
}
);
width = 566;
}
);
unicode = 0136;
},
{
glyphname = uni0137;
layers = (
{
layerId = "604F039F-C4E4-4D5F-9F8C-06B1752D997F";
paths = (
{
nodes = (
"547 676 LINE",
"524 643 OFFCURVE",
"463 551 OFFCURVE",
"408 449 OFFCURVE",
"370 347 OFFCURVE",
"370 305 QCURVE SMOOTH",
"370 267 OFFCURVE",
"403 222 OFFCURVE",
"454 196 OFFCURVE",
"517 188 OFFCURVE",
"547 188 QCURVE",
"547 0 LINE",
"494 0 OFFCURVE",
"393 18 OFFCURVE",
"305 60 OFFCURVE",
"233 128 OFFCURVE",
"209 179 QCURVE",
"209 0 LINE",
"21 0 LINE",
"21 676 LINE",
"209 676 LINE",
"209 451 LINE",
"228 511 OFFCURVE",
"289 623 OFFCURVE",
"322 676 QCURVE"
);
},
{
nodes = (
"356 -47 LINE",
"284 -231 LINE",
"189 -232 LINE",
"220 -47 LINE"
);
}
);
width = 566;
}
);
unicode = 0137;
},
{
glyphname = Lacute;
layers = (
{
layerId = "604F039F-C4E4-4D5F-9F8C-06B1752D997F";
paths = (
{
nodes = (
"418 824 LINE",
"208 730 LINE",
"147 814 LINE",
"322 969 LINE"
);
},
{
nodes = (
"601 169 LINE SMOOTH",
"601 134 OFFCURVE",
"574 73 OFFCURVE",
"528 27 OFFCURVE",
"467 0 OFFCURVE",
"432 0 QCURVE SMOOTH",
"19 0 LINE",
"19 188 LINE",
"75 188 LINE",
"75 676 LINE",
"263 676 LINE",
"263 188 LINE",
"375 188 LINE SMOOTH",
"390 188 OFFCURVE",
"406 197 OFFCURVE",
"412 212 OFFCURVE",
"413 232 OFFCURVE",
"413 244 QCURVE",
"601 244 LINE"
);
}
);
width = 620;
}
);
unicode = 0139;
},
{
glyphname = lacute;
layers = (
{
layerId = "604F039F-C4E4-4D5F-9F8C-06B1752D997F";
paths = (
{
nodes = (
"418 824 LINE",
"208 730 LINE",
"147 814 LINE",
"322 969 LINE"
);
},
{
nodes = (
"601 169 LINE SMOOTH",
"601 134 OFFCURVE",
"574 73 OFFCURVE",
"528 27 OFFCURVE",
"467 0 OFFCURVE",
"432 0 QCURVE SMOOTH",
"19 0 LINE",
"19 188 LINE",
"75 188 LINE",
"75 676 LINE",
"263 676 LINE",
"263 188 LINE",
"375 188 LINE SMOOTH",
"390 188 OFFCURVE",
"406 197 OFFCURVE",
"412 212 OFFCURVE",
"413 232 OFFCURVE",
"413 244 QCURVE",
"601 244 LINE"
);
}
);
width = 620;
}
);
unicode = 013A;
},
{
glyphname = Lcaron;
layers = (
{
layerId = "604F039F-C4E4-4D5F-9F8C-06B1752D997F";
paths = (
{
nodes = (
"474 771 LINE",
"402 587 LINE",
"307 586 LINE",
"338 771 LINE"
);
},
{
nodes = (
"601 169 LINE SMOOTH",
"601 134 OFFCURVE",
"574 73 OFFCURVE",
"528 27 OFFCURVE",
"467 0 OFFCURVE",
"432 0 QCURVE SMOOTH",
"19 0 LINE",
"19 188 LINE",
"75 188 LINE",
"75 676 LINE",
"263 676 LINE",
"263 188 LINE",
"375 188 LINE SMOOTH",
"390 188 OFFCURVE",
"406 197 OFFCURVE",
"412 212 OFFCURVE",
"413 232 OFFCURVE",
"413 244 QCURVE",
"601 244 LINE"
);
}
);
width = 622;
}
);
unicode = 013D;
},
{
glyphname = lcaron;
layers = (
{
layerId = "604F039F-C4E4-4D5F-9F8C-06B1752D997F";
paths = (
{
nodes = (
"474 771 LINE",
"402 587 LINE",
"307 586 LINE",
"338 771 LINE"
);
},
{
nodes = (
"601 169 LINE SMOOTH",
"601 134 OFFCURVE",
"574 73 OFFCURVE",
"528 27 OFFCURVE",
"467 0 OFFCURVE",
"432 0 QCURVE SMOOTH",
"19 0 LINE",
"19 188 LINE",
"75 188 LINE",
"75 676 LINE",
"263 676 LINE",
"263 188 LINE",
"375 188 LINE SMOOTH",
"390 188 OFFCURVE",
"406 197 OFFCURVE",
"412 212 OFFCURVE",
"413 232 OFFCURVE",
"413 244 QCURVE",
"601 244 LINE"
);
}
);
width = 622;
}
);
unicode = 013E;
},
{
glyphname = Ldot;
layers = (
{
layerId = "604F039F-C4E4-4D5F-9F8C-06B1752D997F";
paths = (
{
nodes = (
"601 169 LINE SMOOTH",
"601 134 OFFCURVE",
"574 73 OFFCURVE",
"528 27 OFFCURVE",
"467 0 OFFCURVE",
"432 0 QCURVE SMOOTH",
"19 0 LINE",
"19 188 LINE",
"75 188 LINE",
"75 676 LINE",
"263 676 LINE",
"263 188 LINE",
"375 188 LINE SMOOTH",
"390 188 OFFCURVE",
"406 197 OFFCURVE",
"412 212 OFFCURVE",
"413 232 OFFCURVE",
"413 244 QCURVE",
"601 244 LINE"
);
},
{
nodes = (
"423 451 OFFCURVE",
"476 505 OFFCURVE",
"514 505 QCURVE SMOOTH",
"552 505 OFFCURVE",
"605 451 OFFCURVE",
"605 413 QCURVE SMOOTH",
"605 375 OFFCURVE",
"552 323 OFFCURVE",
"514 323 QCURVE SMOOTH",
"476 323 OFFCURVE",
"423 375 OFFCURVE",
"423 413 QCURVE SMOOTH"
);
}
);
width = 620;
}
);
unicode = 013F;
},
{
glyphname = ldot;
layers = (
{
layerId = "604F039F-C4E4-4D5F-9F8C-06B1752D997F";
paths = (
{
nodes = (
"601 169 LINE SMOOTH",
"601 134 OFFCURVE",
"574 73 OFFCURVE",
"528 27 OFFCURVE",
"467 0 OFFCURVE",
"432 0 QCURVE SMOOTH",
"19 0 LINE",
"19 188 LINE",
"75 188 LINE",
"75 676 LINE",
"263 676 LINE",
"263 188 LINE",
"375 188 LINE SMOOTH",
"390 188 OFFCURVE",
"406 197 OFFCURVE",
"412 212 OFFCURVE",
"413 232 OFFCURVE",
"413 244 QCURVE",
"601 244 LINE"
);
},
{
nodes = (
"423 451 OFFCURVE",
"476 505 OFFCURVE",
"514 505 QCURVE SMOOTH",
"552 505 OFFCURVE",
"605 451 OFFCURVE",
"605 413 QCURVE SMOOTH",
"605 375 OFFCURVE",
"552 323 OFFCURVE",
"514 323 QCURVE SMOOTH",
"476 323 OFFCURVE",
"423 375 OFFCURVE",
"423 413 QCURVE SMOOTH"
);
}
);
width = 620;
}
);
unicode = 0140;
},
{
glyphname = Lslash;
layers = (
{
layerId = "604F039F-C4E4-4D5F-9F8C-06B1752D997F";
paths = (
{
nodes = (
"601 169 LINE SMOOTH",
"601 134 OFFCURVE",
"574 73 OFFCURVE",
"528 27 OFFCURVE",
"467 0 OFFCURVE",
"432 0 QCURVE SMOOTH",
"19 0 LINE",
"19 188 LINE",
"75 188 LINE",
"75 293 LINE",
"15 267 LINE",
"15 421 LINE",
"75 447 LINE",
"75 676 LINE",
"263 676 LINE",
"263 528 LINE",
"399 586 LINE",
"399 432 LINE",
"263 374 LINE",
"263 188 LINE",
"375 188 LINE SMOOTH",
"390 188 OFFCURVE",
"406 197 OFFCURVE",
"412 212 OFFCURVE",
"413 232 OFFCURVE",
"413 244 QCURVE",
"601 244 LINE"
);
}
);
width = 620;
}
);
unicode = 0141;
},
{
glyphname = lslash;
layers = (
{
layerId = "604F039F-C4E4-4D5F-9F8C-06B1752D997F";
paths = (
{
nodes = (
"601 169 LINE SMOOTH",
"601 134 OFFCURVE",
"574 73 OFFCURVE",
"528 27 OFFCURVE",
"467 0 OFFCURVE",
"432 0 QCURVE SMOOTH",
"19 0 LINE",
"19 188 LINE",
"75 188 LINE",
"75 293 LINE",
"15 267 LINE",
"15 421 LINE",
"75 447 LINE",
"75 676 LINE",
"263 676 LINE",
"263 528 LINE",
"399 586 LINE",
"399 432 LINE",
"263 374 LINE",
"263 188 LINE",
"375 188 LINE SMOOTH",
"390 188 OFFCURVE",
"406 197 OFFCURVE",
"412 212 OFFCURVE",
"413 232 OFFCURVE",
"413 244 QCURVE",
"601 244 LINE"
);
}
);
width = 620;
}
);
unicode = 0142;
},
{
glyphname = Ncaron;
layers = (
{
layerId = "604F039F-C4E4-4D5F-9F8C-06B1752D997F";
paths = (
{
nodes = (
"85 857 LINE",
"138 942 LINE",
"300 881 LINE",
"463 942 LINE",
"516 857 LINE",
"302 733 LINE"
);
},
{
nodes = (
"619 0 LINE",
"544 0 LINE SMOOTH",
"509 0 OFFCURVE",
"448 27 OFFCURVE",
"402 73 OFFCURVE",
"375 134 OFFCURVE",
"375 169 QCURVE SMOOTH",
"375 488 LINE",
"310 481 OFFCURVE",
"242 445 OFFCURVE",
"210 385 OFFCURVE",
"206 299 OFFCURVE",
"206 244 QCURVE SMOOTH",
"206 0 LINE",
"18 0 LINE",
"18 676 LINE",
"206 676 LINE",
"206 640 LINE",
"251 660 OFFCURVE",
"338 676 OFFCURVE",
"387 676 QCURVE SMOOTH",
"563 676 LINE",
"563 225 LINE SMOOTH",
"563 210 OFFCURVE",
"572 195 OFFCURVE",
"587 189 OFFCURVE",
"608 188 OFFCURVE",
"619 188 QCURVE"
);
}
);
width = 636;
}
);
unicode = 0147;
},
{
glyphname = ncaron;
layers = (
{
layerId = "604F039F-C4E4-4D5F-9F8C-06B1752D997F";
paths = (
{
nodes = (
"85 857 LINE",
"138 942 LINE",
"300 881 LINE",
"463 942 LINE",
"516 857 LINE",
"302 733 LINE"
);
},
{
nodes = (
"619 0 LINE",
"544 0 LINE SMOOTH",
"509 0 OFFCURVE",
"448 27 OFFCURVE",
"402 73 OFFCURVE",
"375 134 OFFCURVE",
"375 169 QCURVE SMOOTH",
"375 488 LINE",
"310 481 OFFCURVE",
"242 445 OFFCURVE",
"210 385 OFFCURVE",
"206 299 OFFCURVE",
"206 244 QCURVE SMOOTH",
"206 0 LINE",
"18 0 LINE",
"18 676 LINE",
"206 676 LINE",
"206 640 LINE",
"251 660 OFFCURVE",
"338 676 OFFCURVE",
"387 676 QCURVE SMOOTH",
"563 676 LINE",
"563 225 LINE SMOOTH",
"563 210 OFFCURVE",
"572 195 OFFCURVE",
"587 189 OFFCURVE",
"608 188 OFFCURVE",
"619 188 QCURVE"
);
}
);
width = 636;
}
);
unicode = 0148;
},
{
glyphname = OE;
layers = (
{
layerId = "604F039F-C4E4-4D5F-9F8C-06B1752D997F";
paths = (
{
nodes = (
"23 0 LINE",
"23 676 LINE",
"887 675 LINE",
"887 488 LINE",
"549 488 LINE",
"549 413 LINE",
"774 413 LINE",
"774 244 LINE",
"549 244 LINE",
"549 188 LINE",
"887 187 LINE",
"887 0 LINE"
);
},
{
nodes = (
"361 188 LINE",
"361 488 LINE",
"211 488 LINE",
"211 188 LINE"
);
}
);
width = 906;
}
);
unicode = 0152;
},
{
glyphname = oe;
layers = (
{
layerId = "604F039F-C4E4-4D5F-9F8C-06B1752D997F";
paths = (
{
nodes = (
"23 0 LINE",
"23 676 LINE",
"887 675 LINE",
"887 488 LINE",
"549 488 LINE",
"549 413 LINE",
"774 413 LINE",
"774 244 LINE",
"549 244 LINE",
"549 188 LINE",
"887 187 LINE",
"887 0 LINE"
);
},
{
nodes = (
"361 188 LINE",
"361 488 LINE",
"211 488 LINE",
"211 188 LINE"
);
}
);
width = 906;
}
);
unicode = 0153;
},
{
glyphname = Rcaron;
layers = (
{
layerId = "604F039F-C4E4-4D5F-9F8C-06B1752D997F";
paths = (
{
nodes = (
"85 857 LINE",
"138 942 LINE",
"300 881 LINE",
"463 942 LINE",
"516 857 LINE",
"302 733 LINE"
);
},
{
nodes = (
"599 0 LINE",
"540 0 OFFCURVE",
"434 31 OFFCURVE",
"350 92 OFFCURVE",
"293 183 OFFCURVE",
"283 244 QCURVE",
"261 244 LINE",
"261 0 LINE",
"73 0 LINE",
"73 244 LINE",
"17 244 LINE",
"17 432 LINE",
"73 432 LINE",
"73 489 LINE",
"17 489 LINE",
"17 676 LINE",
"599 676 LINE",
"599 413 LINE SMOOTH",
"599 382 OFFCURVE",
"577 326 OFFCURVE",
"539 281 OFFCURVE",
"487 251 OFFCURVE",
"456 247 QCURVE",
"464 224 OFFCURVE",
"494 194 OFFCURVE",
"533 176 OFFCURVE",
"577 169 OFFCURVE",
"599 169 QCURVE"
);
},
{
nodes = (
"411 413 LINE",
"411 489 LINE",
"261 489 LINE",
"261 413 LINE"
);
}
);
width = 617;
}
);
unicode = 0158;
},
{
glyphname = rcaron;
layers = (
{
layerId = "604F039F-C4E4-4D5F-9F8C-06B1752D997F";
paths = (
{
nodes = (
"85 857 LINE",
"138 942 LINE",
"300 881 LINE",
"463 942 LINE",
"516 857 LINE",
"302 733 LINE"
);
},
{
nodes = (
"599 0 LINE",
"540 0 OFFCURVE",
"434 31 OFFCURVE",
"350 92 OFFCURVE",
"293 183 OFFCURVE",
"283 244 QCURVE",
"261 244 LINE",
"261 0 LINE",
"73 0 LINE",
"73 244 LINE",
"17 244 LINE",
"17 432 LINE",
"73 432 LINE",
"73 489 LINE",
"17 489 LINE",
"17 676 LINE",
"599 676 LINE",
"599 413 LINE SMOOTH",
"599 382 OFFCURVE",
"577 326 OFFCURVE",
"539 281 OFFCURVE",
"487 251 OFFCURVE",
"456 247 QCURVE",
"464 224 OFFCURVE",
"494 194 OFFCURVE",
"533 176 OFFCURVE",
"577 169 OFFCURVE",
"599 169 QCURVE"
);
},
{
nodes = (
"411 413 LINE",
"411 489 LINE",
"261 489 LINE",
"261 413 LINE"
);
}
);
width = 617;
}
);
unicode = 0159;
},
{
glyphname = Scircumflex;
layers = (
{
layerId = "604F039F-C4E4-4D5F-9F8C-06B1752D997F";
paths = (
{
nodes = (
"281 942 LINE",
"495 818 LINE",
"442 733 LINE",
"279 794 LINE",
"117 733 LINE",
"64 818 LINE"
);
},
{
nodes = (
"20 244 LINE",
"20 432 LINE SMOOTH",
"20 482 OFFCURVE",
"59 571 OFFCURVE",
"125 637 OFFCURVE",
"214 676 OFFCURVE",
"264 676 QCURVE SMOOTH",
"546 676 LINE",
"546 489 LINE",
"358 489 LINE SMOOTH",
"326 489 OFFCURVE",
"289 492 OFFCURVE",
"280 492 QCURVE SMOOTH",
"264 492 OFFCURVE",
"231 485 OFFCURVE",
"208 452 OFFCURVE",
"208 413 QCURVE",
"546 413 LINE",
"546 244 LINE SMOOTH",
"546 194 OFFCURVE",
"507 105 OFFCURVE",
"441 39 OFFCURVE",
"352 0 OFFCURVE",
"302 0 QCURVE SMOOTH",
"20 0 LINE",
"20 188 LINE",
"264 188 LINE SMOOTH",
"281 188 OFFCURVE",
"300 187 OFFCURVE",
"301 187 QCURVE",
"316 187 OFFCURVE",
"342 196 OFFCURVE",
"358 220 OFFCURVE",
"358 244 QCURVE"
);
}
);
width = 561;
}
);
unicode = 015C;
},
{
glyphname = scircumflex;
layers = (
{
layerId = "604F039F-C4E4-4D5F-9F8C-06B1752D997F";
paths = (
{
nodes = (
"281 942 LINE",
"495 818 LINE",
"442 733 LINE",
"279 794 LINE",
"117 733 LINE",
"64 818 LINE"
);
},
{
nodes = (
"20 244 LINE",
"20 432 LINE SMOOTH",
"20 482 OFFCURVE",
"59 571 OFFCURVE",
"125 637 OFFCURVE",
"214 676 OFFCURVE",
"264 676 QCURVE SMOOTH",
"546 676 LINE",
"546 489 LINE",
"358 489 LINE SMOOTH",
"326 489 OFFCURVE",
"289 492 OFFCURVE",
"280 492 QCURVE SMOOTH",
"264 492 OFFCURVE",
"231 485 OFFCURVE",
"208 452 OFFCURVE",
"208 413 QCURVE",
"546 413 LINE",
"546 244 LINE SMOOTH",
"546 194 OFFCURVE",
"507 105 OFFCURVE",
"441 39 OFFCURVE",
"352 0 OFFCURVE",
"302 0 QCURVE SMOOTH",
"20 0 LINE",
"20 188 LINE",
"264 188 LINE SMOOTH",
"281 188 OFFCURVE",
"300 187 OFFCURVE",
"301 187 QCURVE",
"316 187 OFFCURVE",
"342 196 OFFCURVE",
"358 220 OFFCURVE",
"358 244 QCURVE"
);
}
);
width = 561;
}
);
unicode = 015D;
},
{
glyphname = Scaron;
layers = (
{
layerId = "604F039F-C4E4-4D5F-9F8C-06B1752D997F";
paths = (
{
nodes = (
"93 857 LINE",
"146 942 LINE",
"308 881 LINE",
"471 942 LINE",
"524 857 LINE",
"310 733 LINE"
);
},
{
nodes = (
"20 244 LINE",
"20 432 LINE SMOOTH",
"20 482 OFFCURVE",
"59 571 OFFCURVE",
"125 637 OFFCURVE",
"214 676 OFFCURVE",
"264 676 QCURVE SMOOTH",
"546 676 LINE",
"546 489 LINE",
"358 489 LINE SMOOTH",
"326 489 OFFCURVE",
"289 492 OFFCURVE",
"280 492 QCURVE SMOOTH",
"264 492 OFFCURVE",
"231 485 OFFCURVE",
"208 452 OFFCURVE",
"208 413 QCURVE",
"546 413 LINE",
"546 244 LINE SMOOTH",
"546 194 OFFCURVE",
"507 105 OFFCURVE",
"441 39 OFFCURVE",
"352 0 OFFCURVE",
"302 0 QCURVE SMOOTH",
"20 0 LINE",
"20 188 LINE",
"264 188 LINE SMOOTH",
"281 188 OFFCURVE",
"300 187 OFFCURVE",
"301 187 QCURVE",
"316 187 OFFCURVE",
"342 196 OFFCURVE",
"358 220 OFFCURVE",
"358 244 QCURVE"
);
}
);
width = 561;
}
);
unicode = 0160;
},
{
glyphname = scaron;
layers = (
{
layerId = "604F039F-C4E4-4D5F-9F8C-06B1752D997F";
paths = (
{
nodes = (
"93 857 LINE",
"146 942 LINE",
"308 881 LINE",
"471 942 LINE",
"524 857 LINE",
"310 733 LINE"
);
},
{
nodes = (
"20 244 LINE",
"20 432 LINE SMOOTH",
"20 482 OFFCURVE",
"59 571 OFFCURVE",
"125 637 OFFCURVE",
"214 676 OFFCURVE",
"264 676 QCURVE SMOOTH",
"546 676 LINE",
"546 489 LINE",
"358 489 LINE SMOOTH",
"326 489 OFFCURVE",
"289 492 OFFCURVE",
"280 492 QCURVE SMOOTH",
"264 492 OFFCURVE",
"231 485 OFFCURVE",
"208 452 OFFCURVE",
"208 413 QCURVE",
"546 413 LINE",
"546 244 LINE SMOOTH",
"546 194 OFFCURVE",
"507 105 OFFCURVE",
"441 39 OFFCURVE",
"352 0 OFFCURVE",
"302 0 QCURVE SMOOTH",
"20 0 LINE",
"20 188 LINE",
"264 188 LINE SMOOTH",
"281 188 OFFCURVE",
"300 187 OFFCURVE",
"301 187 QCURVE",
"316 187 OFFCURVE",
"342 196 OFFCURVE",
"358 220 OFFCURVE",
"358 244 QCURVE"
);
}
);
width = 561;
}
);
unicode = 0161;
},
{
glyphname = Tcaron;
layers = (
{
layerId = "604F039F-C4E4-4D5F-9F8C-06B1752D997F";
paths = (
{
nodes = (
"63 857 LINE",
"116 942 LINE",
"278 881 LINE",
"441 942 LINE",
"494 857 LINE",
"280 733 LINE"
);
},
{
nodes = (
"375 226 LINE SMOOTH",
"375 211 OFFCURVE",
"384 195 OFFCURVE",
"399 188 OFFCURVE",
"409 188 QCURVE",
"411 188 LINE",
"412 188 OFFCURVE",
"413 188 QCURVE",
"414 188 OFFCURVE",
"415 188 QCURVE",
"416 188 OFFCURVE",
"416 188 QCURVE",
"417 188 LINE",
"418 188 OFFCURVE",
"418 188 QCURVE",
"419 188 LINE",
"419 188 OFFCURVE",
"419 188 QCURVE",
"427 188 LINE",
"428 188 OFFCURVE",
"428 188 QCURVE",
"431 188 LINE",
"431 0 LINE",
"356 0 LINE SMOOTH",
"321 0 OFFCURVE",
"260 27 OFFCURVE",
"214 73 OFFCURVE",
"187 134 OFFCURVE",
"187 169 QCURVE SMOOTH",
"187 488 LINE",
"18 488 LINE",
"18 676 LINE",
"543 676 LINE",
"543 488 LINE",
"375 488 LINE"
);
}
);
width = 561;
}
);
unicode = 0164;
},
{
glyphname = Tbar;
layers = (
{
layerId = "604F039F-C4E4-4D5F-9F8C-06B1752D997F";
paths = (
{
nodes = (
"375 226 LINE SMOOTH",
"375 211 OFFCURVE",
"384 195 OFFCURVE",
"399 188 OFFCURVE",
"409 188 QCURVE",
"411 188 LINE",
"412 188 OFFCURVE",
"413 188 QCURVE",
"414 188 OFFCURVE",
"415 188 QCURVE",
"416 188 OFFCURVE",
"416 188 QCURVE",
"417 188 LINE",
"418 188 OFFCURVE",
"418 188 QCURVE",
"419 188 LINE",
"419 188 OFFCURVE",
"419 188 QCURVE",
"427 188 LINE",
"428 188 OFFCURVE",
"428 188 QCURVE",
"431 188 LINE",
"431 0 LINE",
"356 0 LINE SMOOTH",
"321 0 OFFCURVE",
"260 27 OFFCURVE",
"214 73 OFFCURVE",
"187 134 OFFCURVE",
"187 169 QCURVE SMOOTH",
"187 254 LINE",
"104 254 LINE",
"104 408 LINE",
"187 408 LINE",
"187 488 LINE",
"18 488 LINE",
"18 676 LINE",
"543 676 LINE",
"543 488 LINE",
"375 488 LINE",
"375 408 LINE",
"458 408 LINE",
"458 254 LINE",
"375 254 LINE"
);
}
);
width = 561;
}
);
unicode = 0166;
},
{
glyphname = tbar;
layers = (
{
layerId = "604F039F-C4E4-4D5F-9F8C-06B1752D997F";
paths = (
{
nodes = (
"375 226 LINE SMOOTH",
"375 211 OFFCURVE",
"384 195 OFFCURVE",
"399 188 OFFCURVE",
"409 188 QCURVE",
"411 188 LINE",
"412 188 OFFCURVE",
"413 188 QCURVE",
"414 188 OFFCURVE",
"415 188 QCURVE",
"416 188 OFFCURVE",
"416 188 QCURVE",
"417 188 LINE",
"418 188 OFFCURVE",
"418 188 QCURVE",
"419 188 LINE",
"419 188 OFFCURVE",
"419 188 QCURVE",
"427 188 LINE",
"428 188 OFFCURVE",
"428 188 QCURVE",
"431 188 LINE",
"431 0 LINE",
"356 0 LINE SMOOTH",
"321 0 OFFCURVE",
"260 27 OFFCURVE",
"214 73 OFFCURVE",
"187 134 OFFCURVE",
"187 169 QCURVE SMOOTH",
"187 254 LINE",
"104 254 LINE",
"104 408 LINE",
"187 408 LINE",
"187 488 LINE",
"18 488 LINE",
"18 676 LINE",
"543 676 LINE",
"543 488 LINE",
"375 488 LINE",
"375 408 LINE",
"458 408 LINE",
"458 254 LINE",
"375 254 LINE"
);
}
);
width = 561;
}
);
unicode = 0167;
},
{
glyphname = Uogonek;
layers = (
{
layerId = "604F039F-C4E4-4D5F-9F8C-06B1752D997F";
paths = (
{
nodes = (
"601 0 LINE",
"526 0 LINE",
"504 -28 OFFCURVE",
"489 -53 QCURVE SMOOTH",
"467 -87 OFFCURVE",
"467 -108 QCURVE SMOOTH",
"467 -123 OFFCURVE",
"477 -126 QCURVE SMOOTH",
"482 -128 OFFCURVE",
"496 -130 OFFCURVE",
"501 -130 QCURVE SMOOTH",
"505 -130 OFFCURVE",
"509 -129 QCURVE SMOOTH",
"517 -128 OFFCURVE",
"555 -116 QCURVE",
"581 -152 LINE",
"533 -169 OFFCURVE",
"493 -179 QCURVE",
"481 -181 OFFCURVE",
"455 -184 OFFCURVE",
"438 -184 QCURVE SMOOTH",
"416 -184 OFFCURVE",
"371 -176 OFFCURVE",
"355 -165 QCURVE SMOOTH",
"332 -149 OFFCURVE",
"332 -134 QCURVE SMOOTH",
"332 -118 OFFCURVE",
"362 -72 OFFCURVE",
"382 -51 QCURVE SMOOTH",
"394 -38 OFFCURVE",
"416 -19 QCURVE SMOOTH",
"425 -10 OFFCURVE",
"437 0 QCURVE",
"432 0 LINE SMOOTH",
"358 0 OFFCURVE",
"228 56 OFFCURVE",
"131 153 OFFCURVE",
"75 283 OFFCURVE",
"75 357 QCURVE SMOOTH",
"75 469 LINE",
"19 469 LINE",
"19 676 LINE",
"263 676 LINE",
"263 485 LINE",
"263 484 OFFCURVE",
"263 482 QCURVE",
"263 463 LINE",
"263 461 OFFCURVE",
"263 460 QCURVE",
"263 445 LINE",
"263 444 OFFCURVE",
"263 442 QCURVE",
"263 393 LINE SMOOTH",
"263 343 OFFCURVE",
"288 257 OFFCURVE",
"350 196 OFFCURVE",
"413 189 QCURVE",
"413 676 LINE",
"601 676 LINE"
);
}
);
width = 622;
}
);
unicode = 0172;
},
{
glyphname = uogonek;
layers = (
{
layerId = "604F039F-C4E4-4D5F-9F8C-06B1752D997F";
paths = (
{
nodes = (
"601 0 LINE",
"526 0 LINE",
"504 -28 OFFCURVE",
"489 -53 QCURVE SMOOTH",
"467 -87 OFFCURVE",
"467 -108 QCURVE SMOOTH",
"467 -123 OFFCURVE",
"477 -126 QCURVE SMOOTH",
"482 -128 OFFCURVE",
"496 -130 OFFCURVE",
"501 -130 QCURVE SMOOTH",
"505 -130 OFFCURVE",
"509 -129 QCURVE SMOOTH",
"517 -128 OFFCURVE",
"555 -116 QCURVE",
"581 -152 LINE",
"533 -169 OFFCURVE",
"493 -179 QCURVE",
"481 -181 OFFCURVE",
"455 -184 OFFCURVE",
"438 -184 QCURVE SMOOTH",
"416 -184 OFFCURVE",
"371 -176 OFFCURVE",
"355 -165 QCURVE SMOOTH",
"332 -149 OFFCURVE",
"332 -134 QCURVE SMOOTH",
"332 -118 OFFCURVE",
"362 -72 OFFCURVE",
"382 -51 QCURVE SMOOTH",
"394 -38 OFFCURVE",
"416 -19 QCURVE SMOOTH",
"425 -10 OFFCURVE",
"437 0 QCURVE",
"432 0 LINE SMOOTH",
"358 0 OFFCURVE",
"228 56 OFFCURVE",
"131 153 OFFCURVE",
"75 283 OFFCURVE",
"75 357 QCURVE SMOOTH",
"75 469 LINE",
"19 469 LINE",
"19 676 LINE",
"263 676 LINE",
"263 485 LINE",
"263 484 OFFCURVE",
"263 482 QCURVE",
"263 463 LINE",
"263 461 OFFCURVE",
"263 460 QCURVE",
"263 445 LINE",
"263 444 OFFCURVE",
"263 442 QCURVE",
"263 393 LINE SMOOTH",
"263 343 OFFCURVE",
"288 257 OFFCURVE",
"350 196 OFFCURVE",
"413 189 QCURVE",
"413 676 LINE",
"601 676 LINE"
);
}
);
width = 622;
}
);
unicode = 0173;
},
{
glyphname = Wcircumflex;
layers = (
{
layerId = "604F039F-C4E4-4D5F-9F8C-06B1752D997F";
paths = (
{
nodes = (
"400 942 LINE",
"614 818 LINE",
"561 733 LINE",
"398 794 LINE",
"236 733 LINE",
"183 818 LINE"
);
},
{
nodes = (
"771 676 LINE",
"771 488 LINE",
"770 488 LINE",
"769 488 OFFCURVE",
"767 488 QCURVE",
"765 488 LINE",
"765 488 OFFCURVE",
"764 488 QCURVE",
"762 488 LINE",
"762 488 OFFCURVE",
"762 488 QCURVE",
"761 488 LINE",
"761 488 OFFCURVE",
"760 488 QCURVE",
"758 488 LINE",
"757 488 OFFCURVE",
"757 488 QCURVE",
"752 488 LINE",
"752 488 OFFCURVE",
"752 488 QCURVE",
"750 488 LINE",
"739 488 OFFCURVE",
"724 481 OFFCURVE",
"715 466 OFFCURVE",
"715 451 QCURVE SMOOTH",
"715 188 LINE",
"771 188 LINE",
"771 0 LINE",
"489 0 LINE",
"489 -38 LINE",
"301 -38 LINE",
"301 0 LINE",
"20 0 LINE",
"20 188 LINE",
"76 188 LINE",
"76 451 LINE SMOOTH",
"76 466 OFFCURVE",
"67 481 OFFCURVE",
"52 488 OFFCURVE",
"42 488 QCURVE",
"41 488 LINE",
"39 488 OFFCURVE",
"38 488 QCURVE",
"36 488 LINE",
"35 488 OFFCURVE",
"35 488 QCURVE",
"33 488 LINE",
"33 488 OFFCURVE",
"32 488 QCURVE",
"31 488 OFFCURVE",
"31 488 QCURVE",
"28 488 LINE",
"28 488 OFFCURVE",
"28 488 QCURVE",
"23 488 LINE",
"23 488 OFFCURVE",
"22 488 QCURVE",
"20 488 LINE",
"20 676 LINE",
"76 676 LINE SMOOTH",
"138 676 OFFCURVE",
"213 639 OFFCURVE",
"252 573 OFFCURVE",
"264 484 OFFCURVE",
"264 432 QCURVE SMOOTH",
"264 188 LINE",
"301 188 LINE",
"301 432 LINE",
"489 432 LINE",
"489 188 LINE",
"527 188 LINE",
"527 432 LINE SMOOTH",
"527 492 OFFCURVE",
"542 583 OFFCURVE",
"586 644 OFFCURVE",
"667 676 OFFCURVE",
"733 676 QCURVE SMOOTH"
);
}
);
width = 789;
}
);
unicode = 0174;
},
{
glyphname = wcircumflex;
layers = (
{
layerId = "604F039F-C4E4-4D5F-9F8C-06B1752D997F";
paths = (
{
nodes = (
"400 942 LINE",
"614 818 LINE",
"561 733 LINE",
"398 794 LINE",
"236 733 LINE",
"183 818 LINE"
);
},
{
nodes = (
"771 676 LINE",
"771 488 LINE",
"770 488 LINE",
"769 488 OFFCURVE",
"767 488 QCURVE",
"765 488 LINE",
"765 488 OFFCURVE",
"764 488 QCURVE",
"762 488 LINE",
"762 488 OFFCURVE",
"762 488 QCURVE",
"761 488 LINE",
"761 488 OFFCURVE",
"760 488 QCURVE",
"758 488 LINE",
"757 488 OFFCURVE",
"757 488 QCURVE",
"752 488 LINE",
"752 488 OFFCURVE",
"752 488 QCURVE",
"750 488 LINE",
"739 488 OFFCURVE",
"724 481 OFFCURVE",
"715 466 OFFCURVE",
"715 451 QCURVE SMOOTH",
"715 188 LINE",
"771 188 LINE",
"771 0 LINE",
"489 0 LINE",
"489 -38 LINE",
"301 -38 LINE",
"301 0 LINE",
"20 0 LINE",
"20 188 LINE",
"76 188 LINE",
"76 451 LINE SMOOTH",
"76 466 OFFCURVE",
"67 481 OFFCURVE",
"52 488 OFFCURVE",
"42 488 QCURVE",
"41 488 LINE",
"39 488 OFFCURVE",
"38 488 QCURVE",
"36 488 LINE",
"35 488 OFFCURVE",
"35 488 QCURVE",
"33 488 LINE",
"33 488 OFFCURVE",
"32 488 QCURVE",
"31 488 OFFCURVE",
"31 488 QCURVE",
"28 488 LINE",
"28 488 OFFCURVE",
"28 488 QCURVE",
"23 488 LINE",
"23 488 OFFCURVE",
"22 488 QCURVE",
"20 488 LINE",
"20 676 LINE",
"76 676 LINE SMOOTH",
"138 676 OFFCURVE",
"213 639 OFFCURVE",
"252 573 OFFCURVE",
"264 484 OFFCURVE",
"264 432 QCURVE SMOOTH",
"264 188 LINE",
"301 188 LINE",
"301 432 LINE",
"489 432 LINE",
"489 188 LINE",
"527 188 LINE",
"527 432 LINE SMOOTH",
"527 492 OFFCURVE",
"542 583 OFFCURVE",
"586 644 OFFCURVE",
"667 676 OFFCURVE",
"733 676 QCURVE SMOOTH"
);
}
);
width = 789;
}
);
unicode = 0175;
},
{
glyphname = Ycircumflex;
layers = (
{
layerId = "604F039F-C4E4-4D5F-9F8C-06B1752D997F";
paths = (
{
nodes = (
"299 942 LINE",
"513 818 LINE",
"460 733 LINE",
"297 794 LINE",
"135 733 LINE",
"82 818 LINE"
);
},
{
nodes = (
"600 413 LINE",
"600 244 LINE",
"544 244 LINE",
"544 194 OFFCURVE",
"505 105 OFFCURVE",
"439 39 OFFCURVE",
"350 0 OFFCURVE",
"300 0 QCURVE SMOOTH",
"131 0 LINE",
"131 188 LINE",
"300 188 LINE SMOOTH",
"356 188 OFFCURVE",
"356 242 QCURVE",
"356 243 OFFCURVE",
"356 244 QCURVE",
"329 244 OFFCURVE",
"258 239 OFFCURVE",
"183 239 OFFCURVE",
"110 249 OFFCURVE",
"53 277 OFFCURVE",
"18 328 OFFCURVE",
"18 370 QCURVE SMOOTH",
"18 676 LINE",
"206 676 LINE",
"206 413 LINE",
"356 413 LINE",
"356 676 LINE",
"544 676 LINE",
"544 413 LINE"
);
}
);
width = 617;
}
);
unicode = 0176;
},
{
glyphname = ycircumflex;
layers = (
{
layerId = "604F039F-C4E4-4D5F-9F8C-06B1752D997F";
paths = (
{
nodes = (
"299 942 LINE",
"513 818 LINE",
"460 733 LINE",
"297 794 LINE",
"135 733 LINE",
"82 818 LINE"
);
},
{
nodes = (
"600 413 LINE",
"600 244 LINE",
"544 244 LINE",
"544 194 OFFCURVE",
"505 105 OFFCURVE",
"439 39 OFFCURVE",
"350 0 OFFCURVE",
"300 0 QCURVE SMOOTH",
"131 0 LINE",
"131 188 LINE",
"300 188 LINE SMOOTH",
"356 188 OFFCURVE",
"356 242 QCURVE",
"356 243 OFFCURVE",
"356 244 QCURVE",
"329 244 OFFCURVE",
"258 239 OFFCURVE",
"183 239 OFFCURVE",
"110 249 OFFCURVE",
"53 277 OFFCURVE",
"18 328 OFFCURVE",
"18 370 QCURVE SMOOTH",
"18 676 LINE",
"206 676 LINE",
"206 413 LINE",
"356 413 LINE",
"356 676 LINE",
"544 676 LINE",
"544 413 LINE"
);
}
);
width = 617;
}
);
unicode = 0177;
},
{
glyphname = Zdotaccent;
layers = (
{
layerId = "604F039F-C4E4-4D5F-9F8C-06B1752D997F";
paths = (
{
nodes = (
"214 872 OFFCURVE",
"267 926 OFFCURVE",
"305 926 QCURVE SMOOTH",
"343 926 OFFCURVE",
"396 872 OFFCURVE",
"396 834 QCURVE SMOOTH",
"396 796 OFFCURVE",
"343 744 OFFCURVE",
"305 744 QCURVE SMOOTH",
"267 744 OFFCURVE",
"214 796 OFFCURVE",
"214 834 QCURVE SMOOTH"
);
},
{
nodes = (
"618 169 LINE SMOOTH",
"618 134 OFFCURVE",
"591 73 OFFCURVE",
"545 27 OFFCURVE",
"484 0 OFFCURVE",
"449 0 QCURVE SMOOTH",
"17 0 LINE",
"309 488 LINE",
"242 488 LINE SMOOTH",
"227 488 OFFCURVE",
"212 479 OFFCURVE",
"205 463 OFFCURVE",
"205 453 QCURVE",
"205 451 LINE",
"205 450 OFFCURVE",
"205 450 QCURVE",
"205 448 LINE",
"205 448 OFFCURVE",
"205 447 QCURVE",
"205 446 OFFCURVE",
"205 446 QCURVE",
"205 445 LINE",
"205 445 OFFCURVE",
"205 445 QCURVE",
"205 443 LINE",
"205 442 OFFCURVE",
"205 442 QCURVE",
"205 431 LINE",
"17 431 LINE",
"17 507 LINE SMOOTH",
"17 542 OFFCURVE",
"44 603 OFFCURVE",
"90 649 OFFCURVE",
"151 676 OFFCURVE",
"186 676 QCURVE SMOOTH",
"618 676 LINE",
"326 187 LINE",
"393 187 LINE SMOOTH",
"408 187 OFFCURVE",
"423 196 OFFCURVE",
"430 212 OFFCURVE",
"430 223 QCURVE",
"430 223 OFFCURVE",
"430 224 QCURVE",
"430 225 OFFCURVE",
"430 225 QCURVE",
"430 227 LINE",
"430 228 OFFCURVE",
"430 229 QCURVE",
"430 231 LINE",
"430 231 OFFCURVE",
"430 232 QCURVE",
"430 233 OFFCURVE",
"430 233 QCURVE",
"430 239 LINE",
"430 239 OFFCURVE",
"430 240 QCURVE",
"430 241 LINE",
"430 241 OFFCURVE",
"430 241 QCURVE",
"430 244 LINE",
"618 244 LINE"
);
}
);
width = 634;
}
);
unicode = 017B;
},
{
glyphname = zdotaccent;
layers = (
{
layerId = "604F039F-C4E4-4D5F-9F8C-06B1752D997F";
paths = (
{
nodes = (
"214 872 OFFCURVE",
"267 926 OFFCURVE",
"305 926 QCURVE SMOOTH",
"343 926 OFFCURVE",
"396 872 OFFCURVE",
"396 834 QCURVE SMOOTH",
"396 796 OFFCURVE",
"343 744 OFFCURVE",
"305 744 QCURVE SMOOTH",
"267 744 OFFCURVE",
"214 796 OFFCURVE",
"214 834 QCURVE SMOOTH"
);
},
{
nodes = (
"618 169 LINE SMOOTH",
"618 134 OFFCURVE",
"591 73 OFFCURVE",
"545 27 OFFCURVE",
"484 0 OFFCURVE",
"449 0 QCURVE SMOOTH",
"17 0 LINE",
"309 488 LINE",
"242 488 LINE SMOOTH",
"227 488 OFFCURVE",
"212 479 OFFCURVE",
"205 463 OFFCURVE",
"205 453 QCURVE",
"205 451 LINE",
"205 450 OFFCURVE",
"205 450 QCURVE",
"205 448 LINE",
"205 448 OFFCURVE",
"205 447 QCURVE",
"205 446 OFFCURVE",
"205 446 QCURVE",
"205 445 LINE",
"205 445 OFFCURVE",
"205 445 QCURVE",
"205 443 LINE",
"205 442 OFFCURVE",
"205 442 QCURVE",
"205 431 LINE",
"17 431 LINE",
"17 507 LINE SMOOTH",
"17 542 OFFCURVE",
"44 603 OFFCURVE",
"90 649 OFFCURVE",
"151 676 OFFCURVE",
"186 676 QCURVE SMOOTH",
"618 676 LINE",
"326 187 LINE",
"393 187 LINE SMOOTH",
"408 187 OFFCURVE",
"423 196 OFFCURVE",
"430 212 OFFCURVE",
"430 223 QCURVE",
"430 223 OFFCURVE",
"430 224 QCURVE",
"430 225 OFFCURVE",
"430 225 QCURVE",
"430 227 LINE",
"430 228 OFFCURVE",
"430 229 QCURVE",
"430 231 LINE",
"430 231 OFFCURVE",
"430 232 QCURVE",
"430 233 OFFCURVE",
"430 233 QCURVE",
"430 239 LINE",
"430 239 OFFCURVE",
"430 240 QCURVE",
"430 241 LINE",
"430 241 OFFCURVE",
"430 241 QCURVE",
"430 244 LINE",
"618 244 LINE"
);
}
);
width = 634;
}
);
unicode = 017C;
},
{
glyphname = Zcaron;
layers = (
{
layerId = "604F039F-C4E4-4D5F-9F8C-06B1752D997F";
paths = (
{
nodes = (
"89 857 LINE",
"142 942 LINE",
"304 881 LINE",
"467 942 LINE",
"520 857 LINE",
"306 733 LINE"
);
},
{
nodes = (
"618 169 LINE SMOOTH",
"618 134 OFFCURVE",
"591 73 OFFCURVE",
"545 27 OFFCURVE",
"484 0 OFFCURVE",
"449 0 QCURVE SMOOTH",
"17 0 LINE",
"309 488 LINE",
"242 488 LINE SMOOTH",
"227 488 OFFCURVE",
"212 479 OFFCURVE",
"205 463 OFFCURVE",
"205 453 QCURVE",
"205 451 LINE",
"205 450 OFFCURVE",
"205 450 QCURVE",
"205 448 LINE",
"205 448 OFFCURVE",
"205 447 QCURVE",
"205 446 OFFCURVE",
"205 446 QCURVE",
"205 445 LINE",
"205 445 OFFCURVE",
"205 445 QCURVE",
"205 443 LINE",
"205 442 OFFCURVE",
"205 442 QCURVE",
"205 431 LINE",
"17 431 LINE",
"17 507 LINE SMOOTH",
"17 542 OFFCURVE",
"44 603 OFFCURVE",
"90 649 OFFCURVE",
"151 676 OFFCURVE",
"186 676 QCURVE SMOOTH",
"618 676 LINE",
"326 187 LINE",
"393 187 LINE SMOOTH",
"408 187 OFFCURVE",
"423 196 OFFCURVE",
"430 212 OFFCURVE",
"430 223 QCURVE",
"430 223 OFFCURVE",
"430 224 QCURVE",
"430 225 OFFCURVE",
"430 225 QCURVE",
"430 227 LINE",
"430 228 OFFCURVE",
"430 229 QCURVE",
"430 231 LINE",
"430 231 OFFCURVE",
"430 232 QCURVE",
"430 233 OFFCURVE",
"430 233 QCURVE",
"430 239 LINE",
"430 239 OFFCURVE",
"430 240 QCURVE",
"430 241 LINE",
"430 241 OFFCURVE",
"430 241 QCURVE",
"430 244 LINE",
"618 244 LINE"
);
}
);
width = 634;
}
);
unicode = 017D;
},
{
glyphname = zcaron;
layers = (
{
layerId = "604F039F-C4E4-4D5F-9F8C-06B1752D997F";
paths = (
{
nodes = (
"89 857 LINE",
"142 942 LINE",
"304 881 LINE",
"467 942 LINE",
"520 857 LINE",
"306 733 LINE"
);
},
{
nodes = (
"618 169 LINE SMOOTH",
"618 134 OFFCURVE",
"591 73 OFFCURVE",
"545 27 OFFCURVE",
"484 0 OFFCURVE",
"449 0 QCURVE SMOOTH",
"17 0 LINE",
"309 488 LINE",
"242 488 LINE SMOOTH",
"227 488 OFFCURVE",
"212 479 OFFCURVE",
"205 463 OFFCURVE",
"205 453 QCURVE",
"205 451 LINE",
"205 450 OFFCURVE",
"205 450 QCURVE",
"205 448 LINE",
"205 448 OFFCURVE",
"205 447 QCURVE",
"205 446 OFFCURVE",
"205 446 QCURVE",
"205 445 LINE",
"205 445 OFFCURVE",
"205 445 QCURVE",
"205 443 LINE",
"205 442 OFFCURVE",
"205 442 QCURVE",
"205 431 LINE",
"17 431 LINE",
"17 507 LINE SMOOTH",
"17 542 OFFCURVE",
"44 603 OFFCURVE",
"90 649 OFFCURVE",
"151 676 OFFCURVE",
"186 676 QCURVE SMOOTH",
"618 676 LINE",
"326 187 LINE",
"393 187 LINE SMOOTH",
"408 187 OFFCURVE",
"423 196 OFFCURVE",
"430 212 OFFCURVE",
"430 223 QCURVE",
"430 223 OFFCURVE",
"430 224 QCURVE",
"430 225 OFFCURVE",
"430 225 QCURVE",
"430 227 LINE",
"430 228 OFFCURVE",
"430 229 QCURVE",
"430 231 LINE",
"430 231 OFFCURVE",
"430 232 QCURVE",
"430 233 OFFCURVE",
"430 233 QCURVE",
"430 239 LINE",
"430 239 OFFCURVE",
"430 240 QCURVE",
"430 241 LINE",
"430 241 OFFCURVE",
"430 241 QCURVE",
"430 244 LINE",
"618 244 LINE"
);
}
);
width = 634;
}
);
unicode = 017E;
},
{
glyphname = circumflex;
layers = (
{
layerId = "604F039F-C4E4-4D5F-9F8C-06B1752D997F";
paths = (
{
nodes = (
"239 942 LINE",
"453 818 LINE",
"400 733 LINE",
"237 794 LINE",
"75 733 LINE",
"22 818 LINE"
);
}
);
width = 473;
}
);
unicode = 02C6;
},
{
glyphname = caron;
layers = (
{
layerId = "604F039F-C4E4-4D5F-9F8C-06B1752D997F";
paths = (
{
nodes = (
"18 857 LINE",
"71 942 LINE",
"233 881 LINE",
"396 942 LINE",
"449 857 LINE",
"235 733 LINE"
);
}
);
width = 465;
}
);
unicode = 02C7;
},
{
glyphname = uni02C9;
layers = (
{
layerId = "604F039F-C4E4-4D5F-9F8C-06B1752D997F";
paths = (
{
nodes = (
"383 880 LINE",
"383 746 LINE",
"38 746 LINE",
"38 880 LINE"
);
}
);
width = 422;
}
);
unicode = 02C9;
},
{
glyphname = breve;
layers = (
{
layerId = "604F039F-C4E4-4D5F-9F8C-06B1752D997F";
paths = (
{
nodes = (
"422 882 LINE",
"418 851 OFFCURVE",
"391 794 OFFCURVE",
"342 748 OFFCURVE",
"278 718 OFFCURVE",
"237 717 QCURVE",
"198 718 OFFCURVE",
"131 745 OFFCURVE",
"84 789 OFFCURVE",
"53 848 OFFCURVE",
"51 881 QCURVE",
"140 881 LINE",
"154 857 OFFCURVE",
"200 819 OFFCURVE",
"236 819 QCURVE SMOOTH",
"255 819 OFFCURVE",
"282 826 OFFCURVE",
"303 843 OFFCURVE",
"321 866 OFFCURVE",
"332 881 QCURVE"
);
}
);
width = 402;
}
);
unicode = 02D8;
},
{
glyphname = dotaccent;
layers = (
{
layerId = "604F039F-C4E4-4D5F-9F8C-06B1752D997F";
paths = (
{
nodes = (
"15 872 OFFCURVE",
"68 926 OFFCURVE",
"106 926 QCURVE SMOOTH",
"144 926 OFFCURVE",
"197 872 OFFCURVE",
"197 834 QCURVE SMOOTH",
"197 796 OFFCURVE",
"144 744 OFFCURVE",
"106 744 QCURVE SMOOTH",
"68 744 OFFCURVE",
"15 796 OFFCURVE",
"15 834 QCURVE SMOOTH"
);
}
);
width = 207;
}
);
unicode = 02D9;
},
{
glyphname = ring;
layers = (
{
layerId = "604F039F-C4E4-4D5F-9F8C-06B1752D997F";
paths = (
{
nodes = (
"157 972 OFFCURVE",
"198 954 OFFCURVE",
"228 922 OFFCURVE",
"246 881 OFFCURVE",
"246 857 QCURVE SMOOTH",
"246 833 OFFCURVE",
"228 792 OFFCURVE",
"198 760 OFFCURVE",
"157 742 OFFCURVE",
"134 742 QCURVE SMOOTH",
"110 742 OFFCURVE",
"69 760 OFFCURVE",
"39 792 OFFCURVE",
"21 833 OFFCURVE",
"21 857 QCURVE SMOOTH",
"21 881 OFFCURVE",
"39 922 OFFCURVE",
"69 954 OFFCURVE",
"110 972 OFFCURVE",
"134 972 QCURVE SMOOTH"
);
},
{
nodes = (
"146 826 OFFCURVE",
"164 844 OFFCURVE",
"164 857 QCURVE SMOOTH",
"164 870 OFFCURVE",
"146 888 OFFCURVE",
"134 888 QCURVE SMOOTH",
"120 888 OFFCURVE",
"102 870 OFFCURVE",
"102 857 QCURVE SMOOTH",
"102 844 OFFCURVE",
"120 826 OFFCURVE",
"134 826 QCURVE SMOOTH"
);
}
);
width = 261;
}
);
unicode = 02DA;
},
{
glyphname = ogonek;
layers = (
{
layerId = "604F039F-C4E4-4D5F-9F8C-06B1752D997F";
paths = (
{
nodes = (
"268 -152 LINE",
"220 -169 OFFCURVE",
"180 -179 QCURVE",
"168 -181 OFFCURVE",
"142 -184 OFFCURVE",
"125 -184 QCURVE SMOOTH",
"103 -184 OFFCURVE",
"58 -176 OFFCURVE",
"42 -165 QCURVE SMOOTH",
"19 -149 OFFCURVE",
"19 -134 QCURVE SMOOTH",
"19 -118 OFFCURVE",
"49 -72 OFFCURVE",
"69 -51 QCURVE SMOOTH",
"81 -38 OFFCURVE",
"124 1 OFFCURVE",
"153 24 QCURVE",
"232 24 LINE",
"197 -18 OFFCURVE",
"154 -87 OFFCURVE",
"154 -108 QCURVE SMOOTH",
"154 -123 OFFCURVE",
"164 -126 QCURVE SMOOTH",
"169 -128 OFFCURVE",
"183 -130 OFFCURVE",
"188 -130 QCURVE SMOOTH",
"192 -130 OFFCURVE",
"196 -129 QCURVE SMOOTH",
"204 -128 OFFCURVE",
"242 -116 QCURVE"
);
}
);
width = 285;
}
);
unicode = 02DB;
},
{
glyphname = tilde;
layers = (
{
layerId = "604F039F-C4E4-4D5F-9F8C-06B1752D997F";
paths = (
{
nodes = (
"51 788 LINE",
"71 839 LINE",
"85 878 OFFCURVE",
"152 920 OFFCURVE",
"195 918 QCURVE",
"220 918 OFFCURVE",
"277 900 OFFCURVE",
"335 879 OFFCURVE",
"391 861 OFFCURVE",
"415 859 QCURVE SMOOTH",
"425 858 OFFCURVE",
"429 863 OFFCURVE",
"431 868 QCURVE",
"430 867 LINE",
"447 918 LINE",
"551 880 LINE",
"533 830 LINE SMOOTH",
"518 790 OFFCURVE",
"454 748 OFFCURVE",
"408 750 QCURVE SMOOTH",
"379 752 OFFCURVE",
"315 772 OFFCURVE",
"282 784 QCURVE",
"283 783 LINE",
"262 790 LINE SMOOTH",
"241 797 OFFCURVE",
"203 807 OFFCURVE",
"189 809 QCURVE SMOOTH",
"180 810 OFFCURVE",
"176 809 OFFCURVE",
"175 807 QCURVE SMOOTH",
"153 750 LINE"
);
}
);
width = 637;
}
);
unicode = 02DC;
},
{
glyphname = hungarumlaut;
layers = (
{
layerId = "604F039F-C4E4-4D5F-9F8C-06B1752D997F";
paths = (
{
nodes = (
"157 915 LINE",
"306 915 LINE",
"212 743 LINE",
"81 743 LINE"
);
},
{
nodes = (
"450 915 LINE",
"599 915 LINE",
"505 743 LINE",
"374 743 LINE"
);
}
);
width = 655;
}
);
unicode = 02DD;
},
{
glyphname = gravecomb;
layers = (
{
layerId = "604F039F-C4E4-4D5F-9F8C-06B1752D997F";
paths = (
{
nodes = (
"438 743 LINE",
"307 743 LINE",
"213 915 LINE",
"362 915 LINE"
);
}
);
width = 668;
}
);
unicode = 0300;
},
{
glyphname = acutecomb;
layers = (
{
layerId = "604F039F-C4E4-4D5F-9F8C-06B1752D997F";
paths = (
{
nodes = (
"289 915 LINE",
"438 915 LINE",
"344 743 LINE",
"213 743 LINE"
);
}
);
width = 591;
}
);
unicode = 0301;
},
{
glyphname = tildecomb;
layers = (
{
layerId = "604F039F-C4E4-4D5F-9F8C-06B1752D997F";
paths = (
{
nodes = (
"54 788 LINE",
"74 839 LINE",
"88 878 OFFCURVE",
"155 920 OFFCURVE",
"198 918 QCURVE",
"223 918 OFFCURVE",
"280 900 OFFCURVE",
"338 879 OFFCURVE",
"394 861 OFFCURVE",
"418 859 QCURVE SMOOTH",
"428 858 OFFCURVE",
"432 863 OFFCURVE",
"434 868 QCURVE",
"433 867 LINE",
"450 918 LINE",
"554 880 LINE",
"536 830 LINE SMOOTH",
"521 790 OFFCURVE",
"457 748 OFFCURVE",
"411 750 QCURVE SMOOTH",
"382 752 OFFCURVE",
"318 772 OFFCURVE",
"285 784 QCURVE",
"286 783 LINE",
"265 790 LINE SMOOTH",
"244 797 OFFCURVE",
"206 807 OFFCURVE",
"192 809 QCURVE SMOOTH",
"183 810 OFFCURVE",
"179 809 OFFCURVE",
"178 807 QCURVE SMOOTH",
"156 750 LINE"
);
}
);
width = 597;
}
);
unicode = 0303;
},
{
glyphname = uni0304;
layers = (
{
layerId = "604F039F-C4E4-4D5F-9F8C-06B1752D997F";
paths = (
{
nodes = (
"369 880 LINE",
"369 746 LINE",
"24 746 LINE",
"24 880 LINE"
);
}
);
width = 398;
}
);
unicode = 0304;
},
{
glyphname = uni0306;
layers = (
{
layerId = "604F039F-C4E4-4D5F-9F8C-06B1752D997F";
paths = (
{
nodes = (
"422 896 LINE",
"418 865 OFFCURVE",
"391 808 OFFCURVE",
"342 762 OFFCURVE",
"278 732 OFFCURVE",
"237 731 QCURVE",
"198 732 OFFCURVE",
"131 759 OFFCURVE",
"84 803 OFFCURVE",
"53 862 OFFCURVE",
"51 895 QCURVE",
"140 895 LINE",
"154 871 OFFCURVE",
"200 833 OFFCURVE",
"236 833 QCURVE SMOOTH",
"255 833 OFFCURVE",
"282 840 OFFCURVE",
"303 857 OFFCURVE",
"321 880 OFFCURVE",
"332 895 QCURVE"
);
}
);
width = 402;
}
);
unicode = 0306;
},
{
glyphname = uni0308;
layers = (
{
layerId = "604F039F-C4E4-4D5F-9F8C-06B1752D997F";
paths = (
{
nodes = (
"48 838 OFFCURVE",
"94 882 OFFCURVE",
"127 882 QCURVE SMOOTH",
"160 882 OFFCURVE",
"206 838 OFFCURVE",
"206 808 QCURVE SMOOTH",
"206 778 OFFCURVE",
"160 736 OFFCURVE",
"127 736 QCURVE SMOOTH",
"94 736 OFFCURVE",
"48 778 OFFCURVE",
"48 808 QCURVE SMOOTH"
);
},
{
nodes = (
"291 838 OFFCURVE",
"337 882 OFFCURVE",
"370 882 QCURVE SMOOTH",
"403 882 OFFCURVE",
"449 838 OFFCURVE",
"449 808 QCURVE SMOOTH",
"449 778 OFFCURVE",
"403 736 OFFCURVE",
"370 736 QCURVE SMOOTH",
"337 736 OFFCURVE",
"291 778 OFFCURVE",
"291 808 QCURVE SMOOTH"
);
}
);
width = 488;
}
);
unicode = 0308;
},
{
glyphname = uni030B;
layers = (
{
layerId = "604F039F-C4E4-4D5F-9F8C-06B1752D997F";
paths = (
{
nodes = (
"229 915 LINE",
"378 915 LINE",
"284 743 LINE",
"153 743 LINE"
);
},
{
nodes = (
"522 915 LINE",
"671 915 LINE",
"577 743 LINE",
"446 743 LINE"
);
}
);
width = 795;
}
);
unicode = 030B;
},
{
glyphname = uni0326;
layers = (
{
layerId = "604F039F-C4E4-4D5F-9F8C-06B1752D997F";
paths = (
{
nodes = (
"356 188 LINE",
"251 -101 LINE",
"113 -102 LINE",
"158 188 LINE"
);
}
);
width = 469;
}
);
unicode = 0326;
},
{
glyphname = uni0327;
layers = (
{
layerId = "604F039F-C4E4-4D5F-9F8C-06B1752D997F";
paths = (
{
nodes = (
"191 33 LINE",
"170 -54 LINE",
"180 -56 LINE",
"196 -60 OFFCURVE",
"228 -72 OFFCURVE",
"241 -81 QCURVE",
"252 -91 OFFCURVE",
"268 -117 OFFCURVE",
"268 -128 QCURVE SMOOTH",
"268 -147 OFFCURVE",
"232 -180 OFFCURVE",
"186 -188 QCURVE",
"187 -188 LINE",
"177 -190 OFFCURVE",
"46 -214 QCURVE",
"61 -167 LINE",
"124 -145 OFFCURVE",
"155 -132 OFFCURVE",
"155 -123 QCURVE SMOOTH",
"155 -115 OFFCURVE",
"130 -101 OFFCURVE",
"104 -91 OFFCURVE",
"76 -85 OFFCURVE",
"66 -84 QCURVE",
"97 33 LINE"
);
}
);
width = 299;
}
);
unicode = 0327;
},
{
glyphname = Germandbls;
layers = (
{
layerId = "604F039F-C4E4-4D5F-9F8C-06B1752D997F";
paths = (
{
nodes = (
"79 0 LINE",
"79 244 LINE",
"23 244 LINE",
"23 432 LINE",
"79 432 LINE",
"79 507 LINE SMOOTH",
"79 542 OFFCURVE",
"106 603 OFFCURVE",
"152 649 OFFCURVE",
"213 676 OFFCURVE",
"248 676 QCURVE SMOOTH",
"605 676 LINE",
"605 169 LINE SMOOTH",
"605 134 OFFCURVE",
"578 73 OFFCURVE",
"532 27 OFFCURVE",
"471 0 OFFCURVE",
"436 0 QCURVE SMOOTH",
"296 0 LINE",
"296 188 LINE",
"417 188 LINE",
"417 244 LINE",
"267 244 LINE",
"267 0 LINE"
);
},
{
nodes = (
"417 413 LINE",
"417 488 LINE",
"323 488 LINE SMOOTH",
"312 488 OFFCURVE",
"291 487 OFFCURVE",
"276 481 OFFCURVE",
"267 466 OFFCURVE",
"267 451 QCURVE SMOOTH",
"267 413 LINE"
);
}
);
width = 628;
}
);
unicode = 1E9E;
},
{
glyphname = endash;
layers = (
{
layerId = "604F039F-C4E4-4D5F-9F8C-06B1752D997F";
paths = (
{
nodes = (
"565 421 LINE",
"565 267 LINE",
"15 267 LINE",
"15 421 LINE"
);
}
);
width = 579;
}
);
unicode = 2013;
},
{
glyphname = emdash;
layers = (
{
layerId = "604F039F-C4E4-4D5F-9F8C-06B1752D997F";
paths = (
{
nodes = (
"641 421 LINE",
"641 267 LINE",
"15 267 LINE",
"15 421 LINE"
);
}
);
width = 663;
}
);
unicode = 2014;
},
{
glyphname = quoteleft;
layers = (
{
layerId = "604F039F-C4E4-4D5F-9F8C-06B1752D997F";
paths = (
{
nodes = (
"28 386 LINE",
"133 676 LINE",
"271 676 LINE",
"226 386 LINE"
);
}
);
width = 291;
}
);
unicode = 2018;
},
{
glyphname = quoteright;
layers = (
{
layerId = "604F039F-C4E4-4D5F-9F8C-06B1752D997F";
paths = (
{
nodes = (
"271 676 LINE",
"166 386 LINE",
"28 386 LINE",
"73 676 LINE"
);
}
);
width = 291;
}
);
unicode = 2019;
},
{
glyphname = quotesinglbase;
layers = (
{
layerId = "604F039F-C4E4-4D5F-9F8C-06B1752D997F";
paths = (
{
nodes = (
"247 188 LINE",
"142 -101 LINE",
"4 -102 LINE",
"49 188 LINE"
);
}
);
width = 261;
}
);
unicode = 201A;
},
{
glyphname = quotedblleft;
layers = (
{
layerId = "604F039F-C4E4-4D5F-9F8C-06B1752D997F";
paths = (
{
nodes = (
"251 386 LINE",
"356 676 LINE",
"494 676 LINE",
"449 386 LINE"
);
},
{
nodes = (
"25 386 LINE",
"130 676 LINE",
"268 676 LINE",
"223 386 LINE"
);
}
);
width = 513;
}
);
unicode = 201C;
},
{
glyphname = quotedblright;
layers = (
{
layerId = "604F039F-C4E4-4D5F-9F8C-06B1752D997F";
paths = (
{
nodes = (
"268 676 LINE",
"163 386 LINE",
"25 386 LINE",
"70 676 LINE"
);
},
{
nodes = (
"494 676 LINE",
"389 386 LINE",
"251 386 LINE",
"296 676 LINE"
);
}
);
width = 505;
}
);
unicode = 201D;
},
{
glyphname = quotedblbase;
layers = (
{
layerId = "604F039F-C4E4-4D5F-9F8C-06B1752D997F";
paths = (
{
nodes = (
"247 188 LINE",
"142 -101 LINE",
"4 -102 LINE",
"49 188 LINE"
);
},
{
nodes = (
"478 188 LINE",
"373 -101 LINE",
"235 -102 LINE",
"280 188 LINE"
);
}
);
width = 504;
}
);
unicode = 201E;
},
{
glyphname = bullet;
layers = (
{
layerId = "604F039F-C4E4-4D5F-9F8C-06B1752D997F";
paths = (
{
nodes = (
"22 370 OFFCURVE",
"42 417 OFFCURVE",
"77 452 OFFCURVE",
"123 472 OFFCURVE",
"150 472 QCURVE SMOOTH",
"177 472 OFFCURVE",
"224 452 OFFCURVE",
"259 417 OFFCURVE",
"279 370 OFFCURVE",
"279 343 QCURVE SMOOTH",
"279 316 OFFCURVE",
"259 270 OFFCURVE",
"224 235 OFFCURVE",
"177 215 OFFCURVE",
"150 215 QCURVE SMOOTH",
"123 215 OFFCURVE",
"77 235 OFFCURVE",
"42 270 OFFCURVE",
"22 316 OFFCURVE",
"22 343 QCURVE SMOOTH"
);
}
);
width = 299;
}
);
unicode = 2022;
},
{
glyphname = ellipsis;
layers = (
{
layerId = "604F039F-C4E4-4D5F-9F8C-06B1752D997F";
paths = (
{
nodes = (
"17 113 OFFCURVE",
"32 148 OFFCURVE",
"57 173 OFFCURVE",
"91 188 OFFCURVE",
"111 188 QCURVE SMOOTH",
"150 188 OFFCURVE",
"205 133 OFFCURVE",
"205 94 QCURVE SMOOTH",
"205 74 OFFCURVE",
"190 40 OFFCURVE",
"165 15 OFFCURVE",
"130 0 OFFCURVE",
"111 0 QCURVE SMOOTH",
"72 0 OFFCURVE",
"17 55 OFFCURVE",
"17 94 QCURVE SMOOTH"
);
},
{
nodes = (
"239 113 OFFCURVE",
"254 148 OFFCURVE",
"279 173 OFFCURVE",
"313 188 OFFCURVE",
"333 188 QCURVE SMOOTH",
"352 188 OFFCURVE",
"387 173 OFFCURVE",
"412 148 OFFCURVE",
"427 113 OFFCURVE",
"427 94 QCURVE SMOOTH",
"427 74 OFFCURVE",
"412 40 OFFCURVE",
"387 15 OFFCURVE",
"352 0 OFFCURVE",
"333 0 QCURVE SMOOTH",
"313 0 OFFCURVE",
"279 15 OFFCURVE",
"254 40 OFFCURVE",
"239 74 OFFCURVE",
"239 94 QCURVE SMOOTH"
);
},
{
nodes = (
"461 113 OFFCURVE",
"476 148 OFFCURVE",
"501 173 OFFCURVE",
"535 188 OFFCURVE",
"555 188 QCURVE SMOOTH",
"574 188 OFFCURVE",
"609 173 OFFCURVE",
"634 148 OFFCURVE",
"649 113 OFFCURVE",
"649 94 QCURVE SMOOTH",
"649 74 OFFCURVE",
"634 40 OFFCURVE",
"609 15 OFFCURVE",
"574 0 OFFCURVE",
"555 0 QCURVE SMOOTH",
"535 0 OFFCURVE",
"501 15 OFFCURVE",
"476 40 OFFCURVE",
"461 74 OFFCURVE",
"461 94 QCURVE SMOOTH"
);
}
);
width = 666;
}
);
unicode = 2026;
},
{
glyphname = perthousand;
layers = (
{
layerId = "604F039F-C4E4-4D5F-9F8C-06B1752D997F";
paths = (
{
nodes = (
"634 671 LINE",
"403 1 LINE",
"245 1 LINE",
"476 671 LINE"
);
},
{
nodes = (
"212 408 LINE",
"212 609 LINE",
"155 609 LINE",
"155 408 LINE"
);
},
{
nodes = (
"340 329 LINE",
"33 329 LINE",
"33 676 LINE",
"340 676 LINE"
);
},
{
nodes = (
"734 86 LINE",
"734 274 LINE",
"670 274 LINE",
"670 86 LINE"
);
},
{
nodes = (
"856 1 LINE",
"549 1 LINE",
"549 348 LINE",
"856 348 LINE"
);
},
{
nodes = (
"1074 86 LINE",
"1074 274 LINE",
"1010 274 LINE",
"1010 86 LINE"
);
},
{
nodes = (
"1196 1 LINE",
"889 1 LINE",
"889 348 LINE",
"1196 348 LINE"
);
}
);
width = 1218;
}
);
unicode = 2030;
},
{
glyphname = trademark;
layers = (
{
layerId = "604F039F-C4E4-4D5F-9F8C-06B1752D997F";
paths = (
{
nodes = (
"328 401 LINE",
"296 401 LINE",
"296 464 LINE",
"292 448 OFFCURVE",
"283 416 OFFCURVE",
"279 401 QCURVE",
"252 401 LINE",
"235 467 LINE",
"235 401 LINE",
"203 401 LINE",
"203 529 LINE",
"246 529 LINE",
"266 459 LINE",
"285 529 LINE",
"328 529 LINE"
);
},
{
nodes = (
"193 500 LINE",
"160 500 LINE",
"160 404 LINE",
"128 404 LINE",
"128 500 LINE",
"92 500 LINE",
"92 529 LINE",
"193 529 LINE"
);
},
{
nodes = (
"429 501 OFFCURVE",
"431 481 OFFCURVE",
"431 470 QCURVE SMOOTH",
"431 434 OFFCURVE",
"406 367 OFFCURVE",
"362 312 OFFCURVE",
"301 272 OFFCURVE",
"265 263 QCURVE SMOOTH",
"243 258 OFFCURVE",
"222 258 QCURVE SMOOTH",
"187 258 OFFCURVE",
"120 283 OFFCURVE",
"66 327 OFFCURVE",
"27 387 OFFCURVE",
"20 422 QCURVE SMOOTH",
"15 445 OFFCURVE",
"15 467 QCURVE SMOOTH",
"15 503 OFFCURVE",
"39 569 OFFCURVE",
"82 623 OFFCURVE",
"142 661 OFFCURVE",
"179 669 QCURVE SMOOTH",
"190 671 OFFCURVE",
"212 674 OFFCURVE",
"223 674 QCURVE SMOOTH",
"259 674 OFFCURVE",
"326 650 OFFCURVE",
"380 607 OFFCURVE",
"419 547 OFFCURVE",
"427 511 QCURVE SMOOTH"
);
},
{
nodes = (
"291 302 OFFCURVE",
"342 334 OFFCURVE",
"379 379 OFFCURVE",
"399 435 OFFCURVE",
"399 466 QCURVE SMOOTH",
"399 486 OFFCURVE",
"395 503 QCURVE SMOOTH",
"388 533 OFFCURVE",
"356 584 OFFCURVE",
"310 621 OFFCURVE",
"254 641 OFFCURVE",
"224 641 QCURVE SMOOTH",
"216 641 OFFCURVE",
"197 639 OFFCURVE",
"187 637 QCURVE SMOOTH",
"155 631 OFFCURVE",
"103 598 OFFCURVE",
"66 552 OFFCURVE",
"45 496 OFFCURVE",
"45 466 QCURVE SMOOTH",
"45 458 OFFCURVE",
"47 439 OFFCURVE",
"49 430 QCURVE SMOOTH",
"63 367 OFFCURVE",
"159 291 OFFCURVE",
"221 291 QCURVE SMOOTH",
"230 291 OFFCURVE",
"250 293 OFFCURVE",
"260 295 QCURVE SMOOTH"
);
}
);
width = 450;
}
);
unicode = 2122;
},
{
glyphname = minus;
layers = (
{
layerId = "604F039F-C4E4-4D5F-9F8C-06B1752D997F";
paths = (
{
nodes = (
"565 421 LINE",
"565 267 LINE",
"15 267 LINE",
"15 421 LINE"
);
}
);
width = 579;
}
);
unicode = 2212;
},
{
glyphname = uni2215;
layers = (
{
layerId = "604F039F-C4E4-4D5F-9F8C-06B1752D997F";
paths = (
{
nodes = (
"455 678 LINE",
"202 0 LINE",
"14 0 LINE",
"267 678 LINE"
);
}
);
width = 461;
}
);
unicode = 2215;
},
{
glyphname = dagger;
layers = (
{
layerId = "604F039F-C4E4-4D5F-9F8C-06B1752D997F";
paths = (
{
nodes = (
"208 801 LINE",
"374 801 LINE",
"374 -165 LINE",
"208 -165 LINE"
);
},
{
nodes = (
"572 601 LINE",
"572 447 LINE",
"19 447 LINE",
"19 601 LINE"
);
}
);
width = 591;
}
);
unicode = 2020;
},
{
glyphname = daggerdbl;
layers = (
{
layerId = "604F039F-C4E4-4D5F-9F8C-06B1752D997F";
paths = (
{
nodes = (
"174 801 LINE",
"340 801 LINE",
"340 -165 LINE",
"174 -165 LINE"
);
},
{
nodes = (
"517 601 LINE",
"517 447 LINE",
"19 447 LINE",
"19 601 LINE"
);
},
{
nodes = (
"517 213 LINE",
"517 59 LINE",
"19 59 LINE",
"19 213 LINE"
);
}
);
width = 548;
}
);
unicode = 2021;
},
{
glyphname = lira;
layers = (
{
layerId = "604F039F-C4E4-4D5F-9F8C-06B1752D997F";
paths = (
{
nodes = (
"419 675 LINE",
"419 522 LINE",
"318 522 LINE",
"301 521 OFFCURVE",
"285 517 QCURVE SMOOTH",
"265 512 OFFCURVE",
"236 489 OFFCURVE",
"219 454 OFFCURVE",
"219 430 QCURVE SMOOTH",
"219 258 LINE",
"365 258 LINE",
"365 204 LINE",
"219 204 LINE",
"219 153 LINE",
"399 153 LINE SMOOTH",
"411 153 OFFCURVE",
"424 160 OFFCURVE",
"429 172 OFFCURVE",
"430 189 OFFCURVE",
"430 198 QCURVE",
"583 198 LINE",
"583 137 LINE SMOOTH",
"583 109 OFFCURVE",
"561 59 OFFCURVE",
"524 22 OFFCURVE",
"474 0 OFFCURVE",
"446 0 QCURVE SMOOTH",
"21 0 LINE",
"21 153 LINE",
"66 153 LINE",
"66 204 LINE",
"18 204 LINE",
"18 258 LINE",
"66 258 LINE",
"66 430 LINE SMOOTH",
"66 486 OFFCURVE",
"107 576 OFFCURVE",
"178 639 OFFCURVE",
"225 656 QCURVE SMOOTH",
"269 672 OFFCURVE",
"318 674 QCURVE"
);
},
{
nodes = (
"365 360 LINE",
"365 311 LINE",
"18 311 LINE",
"18 360 LINE"
);
}
);
width = 597;
}
);
unicode = 20A4;
},
{
glyphname = fraction;
layers = (
{
layerId = "604F039F-C4E4-4D5F-9F8C-06B1752D997F";
paths = (
{
nodes = (
"455 678 LINE",
"202 0 LINE",
"14 0 LINE",
"267 678 LINE"
);
}
);
width = 469;
}
);
unicode = 2044;
},
{
glyphname = uni03A9;
layers = (
{
layerId = "604F039F-C4E4-4D5F-9F8C-06B1752D997F";
paths = (
{
nodes = (
"584 154 LINE",
"584 0 LINE",
"350 0 LINE",
"350 91 LINE",
"350 162 LINE",
"371 173 OFFCURVE",
"410 211 OFFCURVE",
"421 232 QCURVE SMOOTH",
"438 264 OFFCURVE",
"456 329 OFFCURVE",
"456 367 QCURVE SMOOTH",
"456 404 OFFCURVE",
"438 470 OFFCURVE",
"421 508 QCURVE",
"410 521 OFFCURVE",
"387 549 OFFCURVE",
"359 571 OFFCURVE",
"327 586 OFFCURVE",
"308 586 QCURVE SMOOTH",
"287 586 OFFCURVE",
"252 571 OFFCURVE",
"223 549 OFFCURVE",
"199 521 OFFCURVE",
"188 508 QCURVE",
"172 470 OFFCURVE",
"152 404 OFFCURVE",
"152 367 QCURVE SMOOTH",
"152 329 OFFCURVE",
"172 264 OFFCURVE",
"188 232 QCURVE",
"204 211 OFFCURVE",
"237 173 OFFCURVE",
"259 162 QCURVE",
"259 91 LINE",
"259 0 LINE",
"26 0 LINE",
"26 154 LINE",
"47 154 LINE",
"63 117 OFFCURVE",
"113 84 OFFCURVE",
"139 84 QCURVE SMOOTH",
"223 84 LINE",
"223 98 LINE",
"181 111 OFFCURVE",
"109 163 OFFCURVE",
"56 232 OFFCURVE",
"26 315 OFFCURVE",
"26 360 QCURVE SMOOTH",
"26 418 OFFCURVE",
"70 520 OFFCURVE",
"147 597 OFFCURVE",
"249 642 OFFCURVE",
"308 642 QCURVE SMOOTH",
"363 642 OFFCURVE",
"464 597 OFFCURVE",
"539 520 OFFCURVE",
"584 418 OFFCURVE",
"584 360 QCURVE SMOOTH",
"584 315 OFFCURVE",
"556 232 OFFCURVE",
"504 163 OFFCURVE",
"431 111 OFFCURVE",
"386 98 QCURVE",
"386 84 LINE",
"471 84 LINE SMOOTH",
"503 84 OFFCURVE",
"546 117 OFFCURVE",
"562 154 QCURVE"
);
}
);
width = 602;
}
);
unicode = 03A9;
},
{
glyphname = estimated;
layers = (
{
layerId = "604F039F-C4E4-4D5F-9F8C-06B1752D997F";
paths = (
{
nodes = (
"543 261 LINE",
"543 233 LINE",
"480 233 LINE",
"428 233 LINE",
"139 233 LINE",
"139 101 LINE",
"165 69 OFFCURVE",
"240 28 OFFCURVE",
"285 28 QCURVE SMOOTH",
"327 28 OFFCURVE",
"402 69 OFFCURVE",
"428 101 QCURVE",
"428 104 LINE",
"433 107 OFFCURVE",
"439 117 OFFCURVE",
"442 122 QCURVE",
"504 122 LINE",
"468 67 OFFCURVE",
"354 0 OFFCURVE",
"285 0 QCURVE SMOOTH",
"230 0 OFFCURVE",
"135 41 OFFCURVE",
"65 112 OFFCURVE",
"25 207 OFFCURVE",
"25 261 QCURVE SMOOTH",
"25 314 OFFCURVE",
"65 409 OFFCURVE",
"135 480 OFFCURVE",
"230 522 OFFCURVE",
"285 522 QCURVE SMOOTH",
"337 522 OFFCURVE",
"430 483 OFFCURVE",
"500 414 OFFCURVE",
"541 321 OFFCURVE",
"543 268 QCURVE"
);
},
{
nodes = (
"428 268 LINE",
"428 421 LINE",
"402 455 OFFCURVE",
"327 494 OFFCURVE",
"285 494 QCURVE SMOOTH",
"240 494 OFFCURVE",
"165 455 OFFCURVE",
"139 421 QCURVE",
"139 268 LINE"
);
}
);
width = 567;
}
);
unicode = 212E;
},
{
glyphname = Omega;
layers = (
{
layerId = "604F039F-C4E4-4D5F-9F8C-06B1752D997F";
paths = (
{
nodes = (
"602 163 LINE",
"602 0 LINE",
"356 0 LINE",
"356 96 LINE",
"356 171 LINE",
"378 182 OFFCURVE",
"419 222 OFFCURVE",
"431 245 QCURVE SMOOTH",
"448 279 OFFCURVE",
"467 347 OFFCURVE",
"467 387 QCURVE SMOOTH",
"467 425 OFFCURVE",
"448 496 OFFCURVE",
"431 535 QCURVE",
"420 549 OFFCURVE",
"394 578 OFFCURVE",
"365 602 OFFCURVE",
"331 617 OFFCURVE",
"312 617 QCURVE SMOOTH",
"290 617 OFFCURVE",
"253 602 OFFCURVE",
"223 578 OFFCURVE",
"197 549 OFFCURVE",
"185 535 QCURVE",
"168 496 OFFCURVE",
"147 425 OFFCURVE",
"147 387 QCURVE SMOOTH",
"147 347 OFFCURVE",
"168 279 OFFCURVE",
"185 245 QCURVE",
"202 222 OFFCURVE",
"237 182 OFFCURVE",
"260 171 QCURVE",
"260 96 LINE",
"260 0 LINE",
"15 0 LINE",
"15 163 LINE",
"37 163 LINE",
"54 124 OFFCURVE",
"106 89 OFFCURVE",
"134 89 QCURVE SMOOTH",
"222 89 LINE",
"222 104 LINE",
"178 118 OFFCURVE",
"102 172 OFFCURVE",
"46 244 OFFCURVE",
"15 332 OFFCURVE",
"15 380 QCURVE SMOOTH",
"15 441 OFFCURVE",
"61 548 OFFCURVE",
"142 629 OFFCURVE",
"250 676 OFFCURVE",
"312 676 QCURVE SMOOTH",
"370 676 OFFCURVE",
"475 629 OFFCURVE",
"555 548 OFFCURVE",
"602 441 OFFCURVE",
"602 380 QCURVE SMOOTH",
"602 332 OFFCURVE",
"572 244 OFFCURVE",
"518 172 OFFCURVE",
"441 118 OFFCURVE",
"394 104 QCURVE",
"394 89 LINE",
"483 89 LINE SMOOTH",
"516 89 OFFCURVE",
"562 124 OFFCURVE",
"579 163 QCURVE"
);
}
);
width = 621;
}
);
unicode = 2126;
},
{
glyphname = infinity;
layers = (
{
layerId = "604F039F-C4E4-4D5F-9F8C-06B1752D997F";
paths = (
{
nodes = (
"105 155 OFFCURVE",
"19 248 OFFCURVE",
"19 334 QCURVE SMOOTH",
"19 424 OFFCURVE",
"105 519 OFFCURVE",
"182 519 QCURVE SMOOTH",
"213 519 OFFCURVE",
"274 500 OFFCURVE",
"304 483 QCURVE",
"303 484 LINE",
"465 391 LINE",
"507 414 OFFCURVE",
"585 461 OFFCURVE",
"627 484 QCURVE",
"656 501 OFFCURVE",
"724 519 OFFCURVE",
"754 519 QCURVE SMOOTH",
"827 519 OFFCURVE",
"911 424 OFFCURVE",
"911 334 QCURVE SMOOTH",
"911 248 OFFCURVE",
"827 155 OFFCURVE",
"754 155 QCURVE SMOOTH",
"723 155 OFFCURVE",
"656 170 OFFCURVE",
"627 184 QCURVE",
"467 279 LINE",
"303 185 LINE",
"272 171 OFFCURVE",
"211 155 OFFCURVE",
"182 155 QCURVE SMOOTH"
);
},
{
nodes = (
"175 417 OFFCURVE",
"154 414 OFFCURVE",
"135 399 OFFCURVE",
"121 365 OFFCURVE",
"121 334 QCURVE SMOOTH",
"121 305 OFFCURVE",
"135 273 OFFCURVE",
"154 258 OFFCURVE",
"175 256 OFFCURVE",
"182 256 QCURVE SMOOTH",
"198 256 OFFCURVE",
"239 264 OFFCURVE",
"256 275 QCURVE",
"363 334 LINE",
"256 397 LINE",
"236 408 OFFCURVE",
"196 417 OFFCURVE",
"182 417 QCURVE SMOOTH"
);
},
{
nodes = (
"673 277 LINE SMOOTH",
"695 265 OFFCURVE",
"735 256 OFFCURVE",
"754 256 QCURVE SMOOTH",
"758 256 OFFCURVE",
"777 258 OFFCURVE",
"796 273 OFFCURVE",
"810 305 OFFCURVE",
"810 334 QCURVE SMOOTH",
"810 365 OFFCURVE",
"796 399 OFFCURVE",
"777 414 OFFCURVE",
"758 417 OFFCURVE",
"754 417 QCURVE SMOOTH",
"735 417 OFFCURVE",
"696 408 OFFCURVE",
"673 397 QCURVE",
"675 397 LINE",
"568 334 LINE"
);
}
);
width = 922;
}
);
unicode = 221E;
},
{
glyphname = peseta;
layers = (
{
layerId = "604F039F-C4E4-4D5F-9F8C-06B1752D997F";
paths = (
{
nodes = (
"457 415 LINE",
"459 359 OFFCURVE",
"432 298 OFFCURVE",
"384 269 OFFCURVE",
"323 264 OFFCURVE",
"291 265 QCURVE",
"259 265 OFFCURVE",
"238 264 OFFCURVE",
"237 264 OFFCURVE",
"243 263 OFFCURVE",
"237 263 QCURVE",
"237 -1 LINE",
"100 -1 LINE",
"100 263 LINE",
"37 263 LINE",
"37 400 LINE",
"100 400 LINE",
"100 536 LINE",
"37 536 LINE",
"37 674 LINE",
"457 674 LINE"
);
},
{
nodes = (
"809 160 LINE",
"809 284 LINE SMOOTH",
"809 317 OFFCURVE",
"833 375 OFFCURVE",
"877 419 OFFCURVE",
"936 443 OFFCURVE",
"968 443 QCURVE SMOOTH",
"1154 443 LINE",
"1154 321 LINE",
"1030 321 LINE SMOOTH",
"1009 321 OFFCURVE",
"985 323 OFFCURVE",
"978 323 QCURVE SMOOTH",
"968 323 OFFCURVE",
"947 319 OFFCURVE",
"931 296 OFFCURVE",
"931 272 QCURVE",
"1154 272 LINE",
"1154 160 LINE SMOOTH",
"1154 128 OFFCURVE",
"1128 70 OFFCURVE",
"1084 26 OFFCURVE",
"1027 0 OFFCURVE",
"993 0 QCURVE SMOOTH",
"809 0 LINE",
"809 123 LINE",
"993 123 LINE SMOOTH",
"1002 123 OFFCURVE",
"1020 128 OFFCURVE",
"1030 145 OFFCURVE",
"1030 160 QCURVE"
);
},
{
nodes = (
"701 148 LINE SMOOTH",
"701 139 OFFCURVE",
"707 128 OFFCURVE",
"717 123 OFFCURVE",
"723 123 QCURVE SMOOTH",
"738 123 LINE",
"738 0 LINE",
"688 0 LINE SMOOTH",
"666 0 OFFCURVE",
"625 18 OFFCURVE",
"595 48 OFFCURVE",
"579 89 OFFCURVE",
"579 111 QCURVE SMOOTH",
"579 319 LINE",
"497 319 LINE",
"497 443 LINE",
"782 443 LINE",
"782 319 LINE",
"701 319 LINE"
);
},
{
nodes = (
"320 378 LINE",
"320 536 LINE",
"237 536 LINE",
"237 378 LINE"
);
},
{
nodes = (
"579 550 LINE",
"701 550 LINE",
"701 439 LINE",
"579 439 LINE"
);
}
);
width = 1190;
}
);
unicode = 20A7;
},
{
glyphname = florin;
layers = (
{
layerId = "604F039F-C4E4-4D5F-9F8C-06B1752D997F";
paths = (
{
nodes = (
"419 394 LINE",
"419 267 LINE",
"255 267 LINE",
"255 -33 LINE SMOOTH",
"255 -59 OFFCURVE",
"235 -103 OFFCURVE",
"202 -136 OFFCURVE",
"158 -156 OFFCURVE",
"133 -156 QCURVE SMOOTH",
"57 -156 LINE",
"57 -19 LINE",
"65 -19 OFFCURVE",
"99 -19 OFFCURVE",
"109 -14 OFFCURVE",
"116 -4 OFFCURVE",
"116 7 QCURVE",
"117 267 LINE",
"19 267 LINE",
"19 394 LINE",
"117 394 LINE",
"117 417 LINE SMOOTH",
"117 470 OFFCURVE",
"158 565 OFFCURVE",
"228 635 OFFCURVE",
"322 675 OFFCURVE",
"376 675 QCURVE SMOOTH",
"451 675 LINE",
"451 539 LINE",
"405 539 OFFCURVE",
"366 537 OFFCURVE",
"315 525 OFFCURVE",
"277 498 OFFCURVE",
"254 452 OFFCURVE",
"254 417 QCURVE SMOOTH",
"254 394 LINE"
);
}
);
width = 468;
}
);
unicode = 0192;
},
{
glyphname = dcroat.1;
layers = (
{
layerId = "604F039F-C4E4-4D5F-9F8C-06B1752D997F";
paths = (
{
nodes = (
"355 403 LINE",
"355 262 LINE",
"262 262 LINE",
"262 0 LINE",
"74 0 LINE",
"74 262 LINE",
"15 262 LINE",
"15 403 LINE",
"74 403 LINE",
"74 488 LINE",
"18 488 LINE",
"18 676 LINE",
"600 676 LINE",
"600 244 LINE SMOOTH",
"600 194 OFFCURVE",
"561 105 OFFCURVE",
"495 39 OFFCURVE",
"406 0 OFFCURVE",
"356 0 QCURVE SMOOTH",
"295 0 LINE",
"295 188 LINE",
"314 188 OFFCURVE",
"340 186 OFFCURVE",
"345 186 QCURVE SMOOTH",
"360 186 OFFCURVE",
"390 193 OFFCURVE",
"412 217 OFFCURVE",
"412 244 QCURVE SMOOTH",
"412 488 LINE",
"262 488 LINE",
"262 403 LINE"
);
}
);
width = 619;
}
);
},
{
glyphname = notequal;
layers = (
{
layerId = "604F039F-C4E4-4D5F-9F8C-06B1752D997F";
paths = (
{
nodes = (
"297 655 LINE",
"358 638 LINE",
"185 19 LINE",
"123 37 LINE"
);
},
{
nodes = (
"444 293 LINE",
"444 166 LINE",
"27 166 LINE",
"27 293 LINE"
);
},
{
nodes = (
"444 523 LINE",
"444 395 LINE",
"27 395 LINE",
"27 523 LINE"
);
}
);
width = 466;
}
);
unicode = 2260;
},
{
glyphname = brokenbar;
layers = (
{
layerId = "604F039F-C4E4-4D5F-9F8C-06B1752D997F";
paths = (
{
nodes = (
"23 -151 LINE",
"23 143 LINE",
"188 143 LINE",
"188 -151 LINE"
);
},
{
nodes = (
"23 809 LINE",
"188 809 LINE",
"188 525 LINE",
"23 525 LINE"
);
}
);
width = 210;
}
);
unicode = 00A6;
},
{
glyphname = dotlessi;
layers = (
{
layerId = "604F039F-C4E4-4D5F-9F8C-06B1752D997F";
paths = (
{
nodes = (
"265 676 LINE",
"265 169 LINE SMOOTH",
"265 134 OFFCURVE",
"238 73 OFFCURVE",
"192 27 OFFCURVE",
"131 0 OFFCURVE",
"96 0 QCURVE SMOOTH",
"21 0 LINE",
"21 188 LINE",
"32 188 OFFCURVE",
"53 189 OFFCURVE",
"68 195 OFFCURVE",
"77 210 OFFCURVE",
"77 225 QCURVE SMOOTH",
"77 676 LINE"
);
}
);
width = 285;
}
);
unicode = 0131;
},
{
glyphname = guillemotleft;
layers = (
{
layerId = "604F039F-C4E4-4D5F-9F8C-06B1752D997F";
paths = (
{
nodes = (
"17 399 LINE",
"206 557 LINE",
"395 557 LINE",
"367 534 OFFCURVE",
"304 481 OFFCURVE",
"240 427 OFFCURVE",
"177 373 OFFCURVE",
"148 349 QCURVE",
"395 142 LINE",
"206 142 LINE",
"17 299 LINE"
);
},
{
nodes = (
"278 399 LINE",
"468 557 LINE",
"657 557 LINE",
"628 534 OFFCURVE",
"565 481 OFFCURVE",
"500 427 OFFCURVE",
"436 373 OFFCURVE",
"407 349 QCURVE",
"655 142 LINE",
"466 142 LINE",
"278 299 LINE"
);
}
);
width = 675;
}
);
unicode = 00AB;
},
{
glyphname = ccedilla;
layers = (
{
layerId = "604F039F-C4E4-4D5F-9F8C-06B1752D997F";
paths = (
{
nodes = (
"418 33 LINE",
"397 -54 LINE",
"407 -56 LINE",
"423 -60 OFFCURVE",
"455 -72 OFFCURVE",
"468 -81 QCURVE",
"479 -91 OFFCURVE",
"495 -117 OFFCURVE",
"495 -128 QCURVE SMOOTH",
"495 -147 OFFCURVE",
"459 -180 OFFCURVE",
"413 -188 QCURVE",
"414 -188 LINE",
"404 -190 OFFCURVE",
"273 -214 QCURVE",
"288 -167 LINE",
"351 -145 OFFCURVE",
"382 -132 OFFCURVE",
"382 -123 QCURVE SMOOTH",
"382 -115 OFFCURVE",
"357 -101 OFFCURVE",
"331 -91 OFFCURVE",
"303 -85 OFFCURVE",
"293 -84 QCURVE",
"324 33 LINE"
);
},
{
nodes = (
"601 432 LINE",
"413 432 LINE",
"413 489 LINE",
"263 489 LINE",
"263 357 LINE SMOOTH",
"263 308 OFFCURVE",
"295 245 OFFCURVE",
"348 208 OFFCURVE",
"418 191 OFFCURVE",
"482 187 OFFCURVE",
"509 187 QCURVE SMOOTH",
"520 187 OFFCURVE",
"568 188 OFFCURVE",
"601 188 QCURVE",
"601 0 LINE",
"432 0 LINE SMOOTH",
"358 0 OFFCURVE",
"228 56 OFFCURVE",
"131 153 OFFCURVE",
"75 283 OFFCURVE",
"75 357 QCURVE SMOOTH",
"75 470 LINE",
"19 470 LINE",
"19 676 LINE",
"601 676 LINE"
);
}
);
width = 625;
}
);
unicode = 00E7;
},
{
glyphname = Ccedilla;
layers = (
{
layerId = "604F039F-C4E4-4D5F-9F8C-06B1752D997F";
paths = (
{
nodes = (
"418 33 LINE",
"397 -54 LINE",
"407 -56 LINE",
"423 -60 OFFCURVE",
"455 -72 OFFCURVE",
"468 -81 QCURVE",
"479 -91 OFFCURVE",
"495 -117 OFFCURVE",
"495 -128 QCURVE SMOOTH",
"495 -147 OFFCURVE",
"459 -180 OFFCURVE",
"413 -188 QCURVE",
"414 -188 LINE",
"404 -190 OFFCURVE",
"273 -214 QCURVE",
"288 -167 LINE",
"351 -145 OFFCURVE",
"382 -132 OFFCURVE",
"382 -123 QCURVE SMOOTH",
"382 -115 OFFCURVE",
"357 -101 OFFCURVE",
"331 -91 OFFCURVE",
"303 -85 OFFCURVE",
"293 -84 QCURVE",
"324 33 LINE"
);
},
{
nodes = (
"601 432 LINE",
"413 432 LINE",
"413 489 LINE",
"263 489 LINE",
"263 357 LINE SMOOTH",
"263 308 OFFCURVE",
"295 245 OFFCURVE",
"348 208 OFFCURVE",
"418 191 OFFCURVE",
"482 187 OFFCURVE",
"509 187 QCURVE SMOOTH",
"520 187 OFFCURVE",
"568 188 OFFCURVE",
"601 188 QCURVE",
"601 0 LINE",
"432 0 LINE SMOOTH",
"358 0 OFFCURVE",
"228 56 OFFCURVE",
"131 153 OFFCURVE",
"75 283 OFFCURVE",
"75 357 QCURVE SMOOTH",
"75 470 LINE",
"19 470 LINE",
"19 676 LINE",
"601 676 LINE"
);
}
);
width = 625;
}
);
unicode = 00C7;
},
{
glyphname = uni0163;
layers = (
{
layerId = "604F039F-C4E4-4D5F-9F8C-06B1752D997F";
paths = (
{
nodes = (
"369 33 LINE",
"348 -54 LINE",
"358 -56 LINE",
"374 -60 OFFCURVE",
"406 -72 OFFCURVE",
"419 -81 QCURVE",
"430 -91 OFFCURVE",
"446 -117 OFFCURVE",
"446 -128 QCURVE SMOOTH",
"446 -147 OFFCURVE",
"410 -180 OFFCURVE",
"364 -188 QCURVE",
"365 -188 LINE",
"355 -190 OFFCURVE",
"224 -214 QCURVE",
"239 -167 LINE",
"302 -145 OFFCURVE",
"333 -132 OFFCURVE",
"333 -123 QCURVE SMOOTH",
"333 -115 OFFCURVE",
"308 -101 OFFCURVE",
"282 -91 OFFCURVE",
"254 -85 OFFCURVE",
"244 -84 QCURVE",
"275 33 LINE"
);
},
{
nodes = (
"375 226 LINE SMOOTH",
"375 211 OFFCURVE",
"384 195 OFFCURVE",
"399 188 OFFCURVE",
"409 188 QCURVE",
"411 188 LINE",
"412 188 OFFCURVE",
"413 188 QCURVE",
"414 188 OFFCURVE",
"415 188 QCURVE",
"416 188 OFFCURVE",
"416 188 QCURVE",
"417 188 LINE",
"418 188 OFFCURVE",
"418 188 QCURVE",
"419 188 LINE",
"419 188 OFFCURVE",
"419 188 QCURVE",
"427 188 LINE",
"428 188 OFFCURVE",
"428 188 QCURVE",
"431 188 LINE",
"431 0 LINE",
"356 0 LINE SMOOTH",
"321 0 OFFCURVE",
"260 27 OFFCURVE",
"214 73 OFFCURVE",
"187 134 OFFCURVE",
"187 169 QCURVE SMOOTH",
"187 488 LINE",
"18 488 LINE",
"18 676 LINE",
"543 676 LINE",
"543 488 LINE",
"375 488 LINE"
);
}
);
width = 563;
}
);
unicode = 0163;
},
{
glyphname = thorn;
layers = (
{
layerId = "604F039F-C4E4-4D5F-9F8C-06B1752D997F";
paths = (
{
nodes = (
"208 676 LINE",
"208 584 LINE",
"414 584 LINE SMOOTH",
"451 584 OFFCURVE",
"516 556 OFFCURVE",
"564 508 OFFCURVE",
"592 443 OFFCURVE",
"592 406 QCURVE SMOOTH",
"592 275 LINE SMOOTH",
"592 238 OFFCURVE",
"564 173 OFFCURVE",
"516 125 OFFCURVE",
"451 98 OFFCURVE",
"414 98 QCURVE SMOOTH",
"208 98 LINE",
"208 1 LINE",
"20 1 LINE",
"20 676 LINE"
);
},
{
nodes = (
"403 422 LINE SMOOTH",
"403 428 OFFCURVE",
"401 436 QCURVE",
"393 450 OFFCURVE",
"353 453 OFFCURVE",
"337 453 QCURVE SMOOTH",
"330 453 OFFCURVE",
"322 453 QCURVE SMOOTH",
"208 453 LINE",
"208 224 LINE",
"321 224 LINE SMOOTH",
"328 224 OFFCURVE",
"334 224 QCURVE SMOOTH",
"351 224 OFFCURVE",
"390 228 OFFCURVE",
"400 238 QCURVE",
"401 241 OFFCURVE",
"403 249 OFFCURVE",
"403 255 QCURVE SMOOTH"
);
}
);
width = 617;
}
);
unicode = 00FE;
},
{
glyphname = lessequal;
layers = (
{
layerId = "604F039F-C4E4-4D5F-9F8C-06B1752D997F";
paths = (
{
nodes = (
"28 438 LINE",
"347 655 LINE",
"347 510 LINE",
"182 399 LINE",
"223 371 OFFCURVE",
"305 314 OFFCURVE",
"347 287 QCURVE",
"347 143 LINE",
"28 359 LINE"
);
},
{
nodes = (
"344 119 LINE",
"344 0 LINE",
"25 0 LINE",
"25 118 LINE"
);
}
);
width = 370;
}
);
unicode = 2264;
},
{
glyphname = greater;
layers = (
{
layerId = "604F039F-C4E4-4D5F-9F8C-06B1752D997F";
paths = (
{
nodes = (
"363 295 LINE",
"21 59 LINE",
"21 217 LINE",
"198 339 LINE",
"154 368 OFFCURVE",
"65 431 OFFCURVE",
"21 460 QCURVE",
"21 618 LINE",
"363 381 LINE"
);
}
);
width = 367;
}
);
unicode = 003E;
},
{
glyphname = asciicircum;
layers = (
{
layerId = "604F039F-C4E4-4D5F-9F8C-06B1752D997F";
paths = (
{
nodes = (
"318 676 LINE",
"539 356 LINE",
"408 356 LINE",
"280 542 LINE",
"153 356 LINE",
"22 356 LINE",
"244 676 LINE"
);
}
);
width = 560;
}
);
unicode = 005E;
},
{
glyphname = greaterequal;
layers = (
{
layerId = "604F039F-C4E4-4D5F-9F8C-06B1752D997F";
paths = (
{
nodes = (
"347 118 LINE",
"347 0 LINE",
"28 0 LINE",
"28 119 LINE"
);
},
{
nodes = (
"344 359 LINE",
"25 143 LINE",
"25 287 LINE",
"67 314 OFFCURVE",
"149 371 OFFCURVE",
"190 399 QCURVE",
"25 510 LINE",
"25 655 LINE",
"344 438 LINE"
);
}
);
width = 370;
}
);
unicode = 2265;
},
{
glyphname = approxequal;
layers = (
{
layerId = "604F039F-C4E4-4D5F-9F8C-06B1752D997F";
paths = (
{
nodes = (
"21 178 LINE",
"41 229 LINE",
"55 268 OFFCURVE",
"122 310 OFFCURVE",
"165 308 QCURVE",
"190 308 OFFCURVE",
"247 290 OFFCURVE",
"305 269 OFFCURVE",
"361 251 OFFCURVE",
"385 249 QCURVE SMOOTH",
"395 248 OFFCURVE",
"399 253 OFFCURVE",
"401 258 QCURVE",
"400 257 LINE",
"417 308 LINE",
"521 270 LINE",
"503 220 LINE SMOOTH",
"488 180 OFFCURVE",
"424 138 OFFCURVE",
"378 140 QCURVE SMOOTH",
"349 142 OFFCURVE",
"285 162 OFFCURVE",
"252 174 QCURVE",
"253 173 LINE",
"232 180 LINE SMOOTH",
"211 187 OFFCURVE",
"173 197 OFFCURVE",
"159 199 QCURVE SMOOTH",
"150 200 OFFCURVE",
"146 199 OFFCURVE",
"145 197 QCURVE SMOOTH",
"123 140 LINE"
);
},
{
nodes = (
"21 383 LINE",
"41 434 LINE",
"55 473 OFFCURVE",
"122 515 OFFCURVE",
"165 513 QCURVE",
"190 513 OFFCURVE",
"247 495 OFFCURVE",
"305 474 OFFCURVE",
"361 456 OFFCURVE",
"385 454 QCURVE SMOOTH",
"395 453 OFFCURVE",
"399 458 OFFCURVE",
"401 463 QCURVE",
"400 462 LINE",
"417 513 LINE",
"521 475 LINE",
"503 425 LINE SMOOTH",
"488 385 OFFCURVE",
"424 343 OFFCURVE",
"378 345 QCURVE SMOOTH",
"349 347 OFFCURVE",
"285 367 OFFCURVE",
"252 379 QCURVE",
"253 378 LINE",
"232 385 LINE SMOOTH",
"211 392 OFFCURVE",
"173 402 OFFCURVE",
"159 404 QCURVE SMOOTH",
"150 405 OFFCURVE",
"146 404 OFFCURVE",
"145 402 QCURVE SMOOTH",
"123 345 LINE"
);
}
);
width = 542;
}
);
unicode = 2248;
},
{
glyphname = Euro;
layers = (
{
layerId = "604F039F-C4E4-4D5F-9F8C-06B1752D997F";
paths = (
{
nodes = (
"401 417 LINE",
"401 355 LINE",
"263 355 LINE",
"263 337 OFFCURVE",
"265 322 QCURVE",
"401 322 LINE",
"401 260 LINE",
"288 260 LINE",
"302 240 OFFCURVE",
"321 226 QCURVE",
"348 208 OFFCURVE",
"418 191 OFFCURVE",
"482 187 OFFCURVE",
"509 187 QCURVE SMOOTH",
"520 187 OFFCURVE",
"568 188 OFFCURVE",
"601 188 QCURVE",
"601 0 LINE",
"432 0 LINE SMOOTH",
"358 0 OFFCURVE",
"228 56 OFFCURVE",
"131 153 OFFCURVE",
"103 218 QCURVE SMOOTH",
"94 238 OFFCURVE",
"88 260 QCURVE",
"19 260 LINE",
"19 322 LINE",
"76 322 LINE",
"75 338 OFFCURVE",
"75 355 QCURVE",
"19 355 LINE",
"19 417 LINE",
"75 417 LINE",
"75 470 LINE",
"19 470 LINE",
"19 676 LINE",
"601 676 LINE",
"601 445 LINE",
"413 445 LINE",
"413 489 LINE",
"263 489 LINE",
"263 417 LINE"
);
}
);
width = 625;
}
);
unicode = 20AC;
},
{
glyphname = braceright;
layers = (
{
layerId = "604F039F-C4E4-4D5F-9F8C-06B1752D997F";
paths = (
{
nodes = (
"150 128 LINE SMOOTH",
"150 196 OFFCURVE",
"175 251 QCURVE SMOOTH",
"196 299 OFFCURVE",
"231 334 QCURVE",
"196 370 OFFCURVE",
"175 417 QCURVE SMOOTH",
"150 473 OFFCURVE",
"150 541 QCURVE SMOOTH",
"150 576 LINE SMOOTH",
"150 605 OFFCURVE",
"129 648 OFFCURVE",
"93 676 OFFCURVE",
"45 689 OFFCURVE",
"19 689 QCURVE",
"19 876 LINE",
"85 876 OFFCURVE",
"201 833 OFFCURVE",
"288 755 OFFCURVE",
"338 644 OFFCURVE",
"338 576 QCURVE SMOOTH",
"338 541 LINE SMOOTH",
"338 512 OFFCURVE",
"359 469 OFFCURVE",
"395 441 OFFCURVE",
"419 434 QCURVE SMOOTH",
"438 429 OFFCURVE",
"458 428 QCURVE",
"469 428 LINE",
"469 241 LINE",
"460 241 LINE",
"439 240 OFFCURVE",
"419 234 QCURVE",
"395 228 OFFCURVE",
"359 200 OFFCURVE",
"338 157 OFFCURVE",
"338 128 QCURVE SMOOTH",
"338 96 LINE SMOOTH",
"338 28 OFFCURVE",
"288 -83 OFFCURVE",
"201 -161 OFFCURVE",
"85 -204 OFFCURVE",
"19 -204 QCURVE",
"19 -17 LINE",
"45 -17 OFFCURVE",
"93 -4 OFFCURVE",
"129 24 OFFCURVE",
"150 67 OFFCURVE",
"150 96 QCURVE SMOOTH"
);
}
);
width = 493;
}
);
unicode = 007D;
},
{
glyphname = parenleft;
layers = (
{
layerId = "604F039F-C4E4-4D5F-9F8C-06B1752D997F";
paths = (
{
nodes = (
"216 -10 LINE SMOOTH",
"216 -25 OFFCURVE",
"225 -41 OFFCURVE",
"240 -48 OFFCURVE",
"250 -48 QCURVE SMOOTH",
"272 -48 LINE",
"272 -236 LINE",
"197 -236 LINE SMOOTH",
"162 -236 OFFCURVE",
"101 -209 OFFCURVE",
"55 -163 OFFCURVE",
"28 -102 OFFCURVE",
"28 -67 QCURVE SMOOTH",
"28 732 LINE SMOOTH",
"28 767 OFFCURVE",
"55 828 OFFCURVE",
"101 874 OFFCURVE",
"162 901 OFFCURVE",
"197 901 QCURVE SMOOTH",
"272 901 LINE",
"272 713 LINE",
"250 713 LINE SMOOTH",
"240 713 OFFCURVE",
"225 706 OFFCURVE",
"216 690 OFFCURVE",
"216 675 QCURVE SMOOTH"
);
}
);
width = 251;
}
);
unicode = 0028;
},
{
glyphname = parenright;
layers = (
{
layerId = "604F039F-C4E4-4D5F-9F8C-06B1752D997F";
paths = (
{
nodes = (
"84 675 LINE SMOOTH",
"84 690 OFFCURVE",
"75 706 OFFCURVE",
"60 713 OFFCURVE",
"50 713 QCURVE SMOOTH",
"28 713 LINE",
"28 901 LINE",
"103 901 LINE SMOOTH",
"138 901 OFFCURVE",
"199 874 OFFCURVE",
"245 828 OFFCURVE",
"272 767 OFFCURVE",
"272 732 QCURVE SMOOTH",
"272 -67 LINE SMOOTH",
"272 -102 OFFCURVE",
"245 -163 OFFCURVE",
"199 -209 OFFCURVE",
"138 -236 OFFCURVE",
"103 -236 QCURVE SMOOTH",
"28 -236 LINE",
"28 -48 LINE",
"50 -48 LINE SMOOTH",
"60 -48 OFFCURVE",
"75 -41 OFFCURVE",
"84 -25 OFFCURVE",
"84 -10 QCURVE SMOOTH"
);
}
);
width = 251;
}
);
unicode = 0029;
},
{
glyphname = germandbls;
layers = (
{
layerId = "604F039F-C4E4-4D5F-9F8C-06B1752D997F";
paths = (
{
nodes = (
"79 0 LINE",
"79 244 LINE",
"23 244 LINE",
"23 432 LINE",
"79 432 LINE",
"79 507 LINE SMOOTH",
"79 542 OFFCURVE",
"106 603 OFFCURVE",
"152 649 OFFCURVE",
"213 676 OFFCURVE",
"248 676 QCURVE SMOOTH",
"605 676 LINE",
"605 169 LINE SMOOTH",
"605 134 OFFCURVE",
"578 73 OFFCURVE",
"532 27 OFFCURVE",
"471 0 OFFCURVE",
"436 0 QCURVE SMOOTH",
"296 0 LINE",
"296 188 LINE",
"417 188 LINE",
"417 244 LINE",
"267 244 LINE",
"267 0 LINE"
);
},
{
nodes = (
"417 413 LINE",
"417 488 LINE",
"323 488 LINE SMOOTH",
"312 488 OFFCURVE",
"291 487 OFFCURVE",
"276 481 OFFCURVE",
"267 466 OFFCURVE",
"267 451 QCURVE SMOOTH",
"267 413 LINE"
);
}
);
width = 627;
}
);
unicode = 00DF;
},
{
glyphname = guilsinglleft;
layers = (
{
layerId = "604F039F-C4E4-4D5F-9F8C-06B1752D997F";
paths = (
{
nodes = (
"31 295 LINE",
"350 512 LINE",
"350 367 LINE",
"185 256 LINE",
"226 228 OFFCURVE",
"308 171 OFFCURVE",
"350 144 QCURVE",
"350 0 LINE",
"31 216 LINE"
);
}
);
width = 384;
}
);
unicode = 2039;
},
{
glyphname = guilsinglright;
layers = (
{
layerId = "604F039F-C4E4-4D5F-9F8C-06B1752D997F";
paths = (
{
nodes = (
"350 216 LINE",
"31 0 LINE",
"31 144 LINE",
"73 171 OFFCURVE",
"155 228 OFFCURVE",
"196 256 QCURVE",
"31 367 LINE",
"31 512 LINE",
"350 295 LINE"
);
}
);
width = 384;
}
);
unicode = 203A;
},
{
glyphname = dollar;
layers = (
{
layerId = "604F039F-C4E4-4D5F-9F8C-06B1752D997F";
paths = (
{
nodes = (
"20 244 LINE",
"20 432 LINE SMOOTH",
"20 482 OFFCURVE",
"59 571 OFFCURVE",
"125 637 OFFCURVE",
"214 676 OFFCURVE",
"264 676 QCURVE SMOOTH",
"546 676 LINE",
"546 489 LINE",
"358 489 LINE SMOOTH",
"326 489 OFFCURVE",
"289 492 OFFCURVE",
"280 492 QCURVE SMOOTH",
"264 492 OFFCURVE",
"231 485 OFFCURVE",
"208 452 OFFCURVE",
"208 413 QCURVE",
"546 413 LINE",
"546 244 LINE SMOOTH",
"546 194 OFFCURVE",
"507 105 OFFCURVE",
"441 39 OFFCURVE",
"352 0 OFFCURVE",
"302 0 QCURVE SMOOTH",
"20 0 LINE",
"20 188 LINE",
"264 188 LINE SMOOTH",
"281 188 OFFCURVE",
"300 187 OFFCURVE",
"301 187 QCURVE",
"316 187 OFFCURVE",
"342 196 OFFCURVE",
"358 220 OFFCURVE",
"358 244 QCURVE"
);
},
{
nodes = (
"220 766 LINE",
"374 766 LINE",
"374 548 LINE",
"220 548 LINE"
);
},
{
nodes = (
"220 124 LINE",
"374 124 LINE",
"374 -94 LINE",
"220 -94 LINE"
);
}
);
width = 561;
}
);
unicode = 0024;
},
{
glyphname = Oslash;
layers = (
{
layerId = "604F039F-C4E4-4D5F-9F8C-06B1752D997F";
paths = (
{
nodes = (
"307 488 LINE",
"211 488 LINE",
"211 278 LINE"
);
},
{
nodes = (
"361 188 LINE",
"361 398 LINE",
"266 188 LINE"
);
},
{
nodes = (
"549 0 LINE",
"181 0 LINE",
"157 -52 LINE",
"61 -52 LINE",
"85 0 LINE",
"23 0 LINE",
"23 676 LINE",
"392 676 LINE",
"413 722 LINE",
"508 722 LINE",
"487 676 LINE",
"549 676 LINE"
);
}
);
width = 570;
}
);
unicode = 00D8;
},
{
glyphname = uni0394;
layers = (
{
layerId = "604F039F-C4E4-4D5F-9F8C-06B1752D997F";
paths = (
{
nodes = (
"698 0 LINE",
"6 0 LINE",
"352 676 LINE"
);
},
{
nodes = (
"87 50 LINE",
"512 50 LINE",
"300 465 LINE"
);
}
);
width = 719;
}
);
unicode = 0394;
},
{
glyphname = lozenge;
layers = (
{
layerId = "604F039F-C4E4-4D5F-9F8C-06B1752D997F";
paths = (
{
nodes = (
"625 340 LINE",
"321 0 LINE",
"23 340 LINE",
"326 676 LINE"
);
},
{
nodes = (
"323 172 LINE",
"471 340 LINE",
"323 507 LINE",
"177 340 LINE"
);
}
);
width = 649;
}
);
unicode = 25CA;
},
